STARTFONT 2.1
COMMENT
COMMENT Converted from OpenType font "FreeMonoBold.ttf" by "otf2bdf 3.0".
COMMENT
FONT -FreeType-FreeMono-Bold-R-Normal--50-120-300-300-P-236-ISO10646-1
SIZE 12 300 300
FONTBOUNDINGBOX 67 51 -30 -10
STARTPROPERTIES 19
FOUNDRY "FreeType"
FAMILY_NAME "FreeMono"
WEIGHT_NAME "Bold"
SLANT "R"
SETWIDTH_NAME "Normal"
ADD_STYLE_NAME ""
PIXEL_SIZE 50
POINT_SIZE 120
RESOLUTION_X 300
RESOLUTION_Y 300
SPACING "P"
AVERAGE_WIDTH 236
CHARSET_REGISTRY "ISO10646"
CHARSET_ENCODING "1"
FONT_ASCENT 40
FONT_DESCENT 10
COPYRIGHT "Copyright 2002, 2003, 2005, 2008, 2009, 2010, 2012 GNU Freefont contributors."
_OTF_FONTFILE "FreeMonoBold.ttf"
_OTF_PSNAME "FreeMonoBold"
ENDPROPERTIES
CHARS 2031
STARTCHAR 0020
ENCODING 32
SWIDTH 600 0
DWIDTH 30 0
BBX 0 0 0 0
BITMAP
ENDCHAR
STARTCHAR 0021
ENCODING 33
SWIDTH 600 0
DWIDTH 30 0
BBX 8 33 11 -1
BITMAP
3C
7E
FF
FF
FF
FF
FF
FF
FF
FF
7E
7E
7E
7E
7E
7E
7E
7E
7E
7E
3E
3C
3C
00
00
00
18
7E
FF
FF
FF
7E
3C
ENDCHAR
STARTCHAR 0022
ENCODING 34
SWIDTH 600 0
DWIDTH 30 0
BBX 16 15 7 16
BITMAP
FC7F
FC7F
7C3E
7C3E
7C3E
7C3E
7C3E
7C3E
7C3E
3C1E
381E
381C
381C
381C
381C
ENDCHAR
STARTCHAR 0023
ENCODING 35
SWIDTH 600 0
DWIDTH 30 0
BBX 23 37 3 -3
BITMAP
01E1E0
03E1F0
03E1F0
03E1F0
03E1F0
03E1F0
03E1F0
03E1F0
03E3F0
03E3E0
03E3F0
7FFFFE
7FFFFE
7FFFFE
3FFFFE
0FE3E0
07C3E0
07C3E0
07C3E0
07C3E0
07C3E0
7FFFF8
FFFFFC
FFFFFC
FFFFFC
7FFFF8
07C7C0
07C7C0
07C7C0
0FC7C0
0F87C0
0F87C0
0F87C0
0F87C0
0F87C0
0F8780
070780
ENDCHAR
STARTCHAR 0024
ENCODING 36
SWIDTH 600 0
DWIDTH 30 0
BBX 21 40 5 -6
BITMAP
00F000
00F800
00F800
00F800
01FC00
0FFFE0
1FFFF0
3FFFF0
7FFFF0
FE03F0
FC01F0
F801F0
F800E0
FC0000
FE0000
7FE000
7FFE00
3FFF80
0FFFE0
03FFF0
003FF0
0003F8
4000F8
E000F8
F000F8
F001F8
F803F8
FF8FF0
FFFFF0
FFFFE0
FFFFC0
EFFF00
00F800
00F800
00F800
00F800
00F800
00F800
00F800
007000
ENDCHAR
STARTCHAR 0025
ENCODING 37
SWIDTH 600 0
DWIDTH 30 0
BBX 22 32 4 -1
BITMAP
0FC000
3FF000
7FF800
787800
F03C00
E01C00
E01C00
E01C00
F01C00
F03C00
7CF800
3FF808
1FE07C
0FC7FC
003FF0
01FF80
0FFC00
7FE000
FF1F80
F83FE0
007FF0
00F0F0
01E078
01E038
01C038
01C038
01E038
01E078
00F8F0
007FF0
003FE0
000F80
ENDCHAR
STARTCHAR 0026
ENCODING 38
SWIDTH 600 0
DWIDTH 30 0
BBX 22 27 4 1
BITMAP
01FF80
03FFC0
07FFC0
0FFFC0
1FFF80
1F8600
1F0000
1F0000
1F8000
0F8000
0FC000
07E000
0FE000
1FF1F0
3FF9F8
7FF9F8
7EFDF8
FC7FF8
F87FE0
F83FE0
F81FE0
FC1FC0
FFFFF0
7FFFF8
3FFFFC
1FFFF8
0FFDF0
ENDCHAR
STARTCHAR 0027
ENCODING 39
SWIDTH 600 0
DWIDTH 30 0
BBX 7 15 12 16
BITMAP
FE
FE
7C
7C
7C
7C
7C
7C
7C
3C
3C
38
38
38
38
ENDCHAR
STARTCHAR 0028
ENCODING 40
SWIDTH 600 0
DWIDTH 30 0
BBX 11 40 13 -8
BITMAP
0080
03C0
07E0
07E0
0FC0
0FC0
1F80
1F00
3F00
3E00
3E00
7C00
7C00
7C00
7C00
F800
F800
F800
F800
F800
F800
F800
F800
F800
F800
7C00
7C00
7C00
7E00
3E00
3E00
3F00
1F00
1F80
0F80
0FC0
07E0
07E0
03C0
0180
ENDCHAR
STARTCHAR 0029
ENCODING 41
SWIDTH 600 0
DWIDTH 30 0
BBX 11 40 6 -8
BITMAP
2000
7800
FC00
FC00
7E00
7E00
3F00
1F00
1F80
0F80
0F80
0FC0
07C0
07C0
07C0
07E0
03E0
03E0
03E0
03E0
03E0
03E0
03E0
03E0
03E0
07C0
07C0
07C0
07C0
0F80
0F80
1F80
1F00
3F00
7E00
7E00
FC00
FC00
7800
3000
ENDCHAR
STARTCHAR 002A
ENCODING 42
SWIDTH 600 0
DWIDTH 30 0
BBX 21 21 5 10
BITMAP
007000
00F800
00F800
00F800
00F800
00F800
70F870
FFFFF8
FFFFF8
FFFFF8
7FFFF0
0FFF80
03FE00
03FE00
07FF00
0FDF80
1FDF80
1F8FC0
1F07C0
1E03C0
040100
ENDCHAR
STARTCHAR 002B
ENCODING 43
SWIDTH 600 0
DWIDTH 30 0
BBX 25 28 3 0
BITMAP
001C0000
003E0000
003E0000
003E0000
003E0000
003E0000
003E0000
003E0000
003E0000
003E0000
003E0000
7FFFFF00
FFFFFF80
FFFFFF80
FFFFFF80
7FFFFF00
003E0000
003E0000
003E0000
003E0000
003E0000
003E0000
003E0000
003E0000
003E0000
003E0000
003E0000
001C0000
ENDCHAR
STARTCHAR 002C
ENCODING 44
SWIDTH 600 0
DWIDTH 30 0
BBX 10 15 7 -8
BITMAP
0FC0
1FC0
1F80
1F80
3F00
3F00
3E00
3C00
7C00
7800
7800
F000
F000
E000
E000
ENDCHAR
STARTCHAR 002D
ENCODING 45
SWIDTH 600 0
DWIDTH 30 0
BBX 26 5 2 11
BITMAP
7FFFFF80
FFFFFFC0
FFFFFFC0
FFFFFFC0
7FFFFF80
ENDCHAR
STARTCHAR 002E
ENCODING 46
SWIDTH 600 0
DWIDTH 30 0
BBX 7 7 11 -1
BITMAP
18
7E
FE
FE
FE
7E
3C
ENDCHAR
STARTCHAR 002F
ENCODING 47
SWIDTH 600 0
DWIDTH 30 0
BBX 22 41 4 -6
BITMAP
000010
000078
00007C
0000FC
0000F8
0001F8
0001F0
0003F0
0003E0
0007E0
0007C0
0007C0
000F80
000F80
001F80
001F00
003F00
003E00
007E00
007C00
00FC00
00F800
01F800
01F000
03F000
03E000
07E000
07C000
0FC000
0F8000
0F8000
1F8000
1F0000
3F0000
3E0000
7E0000
7C0000
FC0000
F80000
780000
200000
ENDCHAR
STARTCHAR 0030
ENCODING 48
SWIDTH 600 0
DWIDTH 30 0
BBX 22 33 4 -1
BITMAP
00FC00
03FF00
0FFFC0
1FFFE0
1FFFE0
3F87F0
7E01F8
7E01F8
7C00F8
FC00F8
F8007C
F8007C
F8007C
F8007C
F8007C
F8007C
F8007C
F8007C
F8007C
F8007C
F8007C
F8007C
F8007C
FC00FC
7C00F8
7E01F8
7E01F8
3F87F0
1FFFE0
1FFFE0
0FFFC0
07FF00
00FC00
ENDCHAR
STARTCHAR 0031
ENCODING 49
SWIDTH 600 0
DWIDTH 30 0
BBX 21 31 5 0
BITMAP
01F800
03F800
0FF800
1FF800
7FF800
FFF800
FCF800
F8F800
60F800
00F800
00F800
00F800
00F800
00F800
00F800
00F800
00F800
00F800
00F800
00F800
00F800
00F800
00F800
00F800
00F800
00F800
7FFFF0
FFFFF8
FFFFF8
FFFFF8
7FFFF0
ENDCHAR
STARTCHAR 0032
ENCODING 50
SWIDTH 600 0
DWIDTH 30 0
BBX 22 32 3 0
BITMAP
00FE00
03FF80
0FFFE0
1FFFF0
3FFFF0
3F03F8
7E00F8
7C00FC
7C007C
38007C
00007C
0000FC
0000FC
0001F8
0003F0
0007F0
000FE0
001FC0
003F80
007F00
01FE00
03FC00
07F800
0FE000
1FC018
7F803C
FF007C
FFFFFC
FFFFFC
FFFFFC
FFFFFC
FFFFFC
ENDCHAR
STARTCHAR 0033
ENCODING 51
SWIDTH 600 0
DWIDTH 30 0
BBX 23 33 3 -1
BITMAP
00FE00
07FFC0
1FFFE0
3FFFF0
3FFFF8
7F03F8
3C00FC
38007C
00007C
00007C
00007C
0000FC
0001F8
003FF0
00FFE0
00FFC0
00FFE0
007FF0
0003F8
0000FC
00007C
00003E
00003E
00003E
00003E
00007E
6000FC
F803FC
FFFFF8
FFFFF8
7FFFF0
3FFFC0
07FE00
ENDCHAR
STARTCHAR 0034
ENCODING 52
SWIDTH 600 0
DWIDTH 30 0
BBX 21 31 4 0
BITMAP
001FC0
001FC0
003FC0
007FC0
007FC0
00FFC0
00FFC0
01FFC0
01F7C0
03E7C0
07E7C0
07C7C0
0FC7C0
0F87C0
1F07C0
1F07C0
3E07C0
7C07C0
7C07C0
FFFFF0
FFFFF8
FFFFF8
FFFFF8
FFFFF0
0007C0
0007C0
007FF0
00FFF8
00FFF8
00FFF8
007FF0
ENDCHAR
STARTCHAR 0035
ENCODING 53
SWIDTH 600 0
DWIDTH 30 0
BBX 23 32 3 -1
BITMAP
1FFFF0
1FFFF8
1FFFF8
1FFFF8
1FFFF0
1F0000
1F0000
1F0000
1F0000
1F0000
1F7F00
1FFFC0
1FFFE0
1FFFF0
1FFFF8
1FC1FC
0E00FC
00007C
00003E
00003E
00003E
00003E
00003E
00003E
00007E
7800FC
FE03FC
FFFFF8
7FFFF0
3FFFE0
1FFFC0
03FE00
ENDCHAR
STARTCHAR 0036
ENCODING 54
SWIDTH 600 0
DWIDTH 30 0
BBX 21 33 6 -1
BITMAP
000FE0
007FF8
01FFF8
03FFF8
07FFF0
0FF800
1FE000
3F8000
3F0000
7E0000
7E0000
FC0000
FC7C00
F9FF00
FBFFC0
FFFFE0
FFFFE0
FF87F0
FF03F0
FE01F8
FC00F8
F800F8
F800F8
FC00F8
FC00F8
7C01F8
7E01F0
3F87F0
3FFFF0
1FFFE0
0FFFC0
07FF80
01FC00
ENDCHAR
STARTCHAR 0037
ENCODING 55
SWIDTH 600 0
DWIDTH 30 0
BBX 21 31 4 0
BITMAP
FFFFF8
FFFFF8
FFFFF8
FFFFF8
FFFFF8
F800F8
F000F8
6001F8
0001F0
0001F0
0003F0
0003E0
0003E0
0007E0
0007C0
0007C0
000FC0
000F80
000F80
001F80
001F00
003F00
003F00
003E00
007E00
007C00
007C00
00FC00
00F800
00F800
007000
ENDCHAR
STARTCHAR 0038
ENCODING 56
SWIDTH 600 0
DWIDTH 30 0
BBX 20 33 5 -1
BITMAP
01F800
0FFE00
1FFF80
3FFFC0
7FFFE0
7F0FE0
FC03F0
F801F0
F801F0
F801F0
F801F0
F801F0
7C03E0
3F0FC0
3FFF80
0FFF00
0FFF00
1FFF80
3FFFC0
7F0FE0
7C03E0
FC03F0
F801F0
F801F0
F801F0
F801F0
FC03F0
7E07E0
7FFFE0
3FFFC0
1FFF80
0FFF00
03FC00
ENDCHAR
STARTCHAR 0039
ENCODING 57
SWIDTH 600 0
DWIDTH 30 0
BBX 21 33 6 -1
BITMAP
01FC00
0FFF00
1FFF80
3FFFC0
7FFFE0
7F0FE0
7C03F0
FC01F0
F801F0
F801F8
F800F8
F800F8
F801F8
FC03F8
7C07F8
7F0FF8
3FFFF8
3FFFF8
1FFEF8
07FCF8
01F1F8
0001F8
0003F0
0003F0
0007E0
000FE0
001FC0
00FF80
7FFF00
FFFE00
FFFC00
FFF000
3F8000
ENDCHAR
STARTCHAR 003A
ENCODING 58
SWIDTH 600 0
DWIDTH 30 0
BBX 8 23 11 -1
BITMAP
3C
7E
FE
FF
FE
7E
38
00
00
00
00
00
00
00
00
00
18
7E
FE
FE
FE
7E
3C
ENDCHAR
STARTCHAR 003B
ENCODING 59
SWIDTH 600 0
DWIDTH 30 0
BBX 11 30 7 -8
BITMAP
0780
0FC0
1FC0
1FE0
1FC0
0FC0
0300
0000
0000
0000
0000
0000
0000
0000
0000
0FC0
0FC0
1F80
1F80
1F00
3F00
3E00
3E00
3C00
7C00
7800
7800
F000
F000
6000
ENDCHAR
STARTCHAR 003C
ENCODING 60
SWIDTH 600 0
DWIDTH 30 0
BBX 24 22 3 3
BITMAP
00000E
00003F
0000FF
0003FF
000FFC
003FF0
00FFC0
03FF80
0FFE00
3FF800
FFE000
FFC000
3FF000
0FFC00
03FF00
00FFC0
003FF0
000FFC
0003FE
0000FF
00003F
00000F
ENDCHAR
STARTCHAR 003D
ENCODING 61
SWIDTH 600 0
DWIDTH 30 0
BBX 26 14 2 7
BITMAP
7FFFFF80
FFFFFFC0
FFFFFFC0
FFFFFFC0
7FFFFF80
00000000
00000000
00000000
00000000
7FFFFF80
FFFFFFC0
FFFFFFC0
FFFFFFC0
7FFFFF80
ENDCHAR
STARTCHAR 003E
ENCODING 62
SWIDTH 600 0
DWIDTH 30 0
BBX 25 22 3 3
BITMAP
70000000
F8000000
FE000000
FF800000
3FE00000
1FF80000
07FE0000
01FF8000
007FE000
001FF800
0007FE00
0003FF80
000FFC00
003FF000
00FFC000
03FF0000
0FFC0000
3FF00000
7FC00000
FF000000
FC000000
F0000000
ENDCHAR
STARTCHAR 003F
ENCODING 63
SWIDTH 600 0
DWIDTH 30 0
BBX 21 31 5 -1
BITMAP
03FC00
1FFF00
7FFFC0
FFFFE0
FFFFF0
FE07F0
F801F8
F800F8
F800F8
7000F8
0000F8
0001F8
0007F0
001FF0
007FE0
01FFC0
00FF00
00FC00
00F000
00F000
006000
000000
000000
000000
006000
01F800
03F800
03F800
03F800
01F800
00F000
ENDCHAR
STARTCHAR 0040
ENCODING 64
SWIDTH 600 0
DWIDTH 30 0
BBX 21 39 4 -8
BITMAP
00FC00
03FF00
07FF80
0FFFC0
1F87E0
3E01E0
3E01F0
7C00F0
7800F0
7800F0
F800F0
F007F0
F01FF0
F03FF0
F07FF0
F0FCF0
F1F0F0
F1E0F0
F1E0F0
F1E0F0
F1E0F0
F1F0F0
F0F8F0
F0FFF0
F07FF8
F03FF8
F00FF0
F00000
F80000
780000
780000
7C0000
3C0040
3E00E0
1F83F0
0FFFE0
0FFFE0
03FFC0
00FE00
ENDCHAR
STARTCHAR 0041
ENCODING 65
SWIDTH 600 0
DWIDTH 30 0
BBX 32 29 -1 0
BITMAP
07FFC000
07FFE000
07FFE000
07FFF000
03FFF000
001FF000
003FF800
003EF800
003EFC00
007E7C00
007C7E00
00FC3E00
00F83E00
00F83F00
01F81F00
01F01F80
03FFFF80
03FFFF80
03FFFFC0
07FFFFC0
07FFFFE0
0FC007E0
0F8003F0
0F8003F0
7FF01FFC
FFF83FFE
FFF83FFF
FFF83FFE
7FF01FFC
ENDCHAR
STARTCHAR 0042
ENCODING 66
SWIDTH 600 0
DWIDTH 30 0
BBX 27 29 1 0
BITMAP
7FFFE000
FFFFF800
FFFFFC00
FFFFFE00
7FFFFF00
0F803F80
0F801F80
0F800F80
0F800F80
0F800F80
0F801F80
0F807F00
0FFFFE00
0FFFFC00
0FFFFE00
0FFFFF00
0FFFFF80
0F801FC0
0F8007C0
0F8007E0
0F8003E0
0F8003E0
0F8003E0
0F800FE0
7FFFFFC0
FFFFFFC0
FFFFFF80
FFFFFE00
7FFFF800
ENDCHAR
STARTCHAR 0043
ENCODING 67
SWIDTH 600 0
DWIDTH 30 0
BBX 27 29 2 1
BITMAP
00FFE380
03FFFFC0
07FFFFC0
0FFFFFC0
1FFFFFC0
3FC03FC0
3F000FC0
7E0007C0
7C0007C0
FC0007C0
F8000380
F8000000
F8000000
F8000000
F8000000
F8000000
F8000000
F8000000
F8000000
FC000000
7C000000
7E000000
7F0003C0
3FC00FE0
1FFFFFE0
0FFFFFC0
07FFFF80
03FFFF00
007FF800
ENDCHAR
STARTCHAR 0044
ENCODING 68
SWIDTH 600 0
DWIDTH 30 0
BBX 26 29 1 0
BITMAP
7FFF8000
FFFFE000
FFFFF800
FFFFFC00
7FFFFE00
1F00FF00
1F003F00
1F001F80
1F000F80
1F000F80
1F000FC0
1F0007C0
1F0007C0
1F0007C0
1F0007C0
1F0007C0
1F0007C0
1F0007C0
1F0007C0
1F000FC0
1F000F80
1F001F80
1F003F80
1F007F00
7FFFFE00
FFFFFC00
FFFFF800
FFFFF000
7FFF8000
ENDCHAR
STARTCHAR 0045
ENCODING 69
SWIDTH 600 0
DWIDTH 30 0
BBX 26 29 1 0
BITMAP
7FFFFF80
FFFFFF80
FFFFFF80
FFFFFF80
7FFFFF80
0F800F80
0F800F80
0F800F80
0F838F80
0F87CF80
0F87C700
0F87C000
0FFFC000
0FFFC000
0FFFC000
0FFFC000
0FFFC000
0F87C000
0F87C380
0F87C7C0
0F8007C0
0F8007C0
0F8007C0
0F8007C0
7FFFFFC0
FFFFFFC0
FFFFFFC0
FFFFFFC0
7FFFFFC0
ENDCHAR
STARTCHAR 0046
ENCODING 70
SWIDTH 600 0
DWIDTH 30 0
BBX 26 29 1 0
BITMAP
7FFFFFC0
FFFFFFC0
FFFFFFC0
FFFFFFC0
7FFFFFC0
0F8007C0
0F8007C0
0F8007C0
0F8007C0
0F8787C0
0F87C380
0F87C000
0FFFC000
0FFFC000
0FFFC000
0FFFC000
0FFFC000
0F87C000
0F87C000
0F87C000
0F838000
0F800000
0F800000
0F800000
7FFF0000
FFFF8000
FFFF8000
FFFF8000
7FFF0000
ENDCHAR
STARTCHAR 0047
ENCODING 71
SWIDTH 600 0
DWIDTH 30 0
BBX 27 29 2 1
BITMAP
00FFE780
03FFFF80
07FFFF80
0FFFFF80
1FFFFF80
3F803F80
3F000F80
7E000F80
7C000F80
FC000700
F8000000
F8000000
F8000000
F8000000
F8000000
F807FFC0
F80FFFE0
F80FFFE0
F80FFFE0
F807FFC0
FC000F80
7C000F80
7E000F80
3F800F80
3FFFFF80
1FFFFF80
0FFFFF80
03FFFE00
00FFF000
ENDCHAR
STARTCHAR 0048
ENCODING 72
SWIDTH 600 0
DWIDTH 30 0
BBX 27 29 2 0
BITMAP
7FE1FF80
7FF3FF80
FFF3FFC0
7FF3FF80
7FE1FF80
1F003E00
1F003E00
1F003E00
1F003E00
1F003E00
1F003E00
1F003E00
1FFFFE00
1FFFFE00
1FFFFE00
1FFFFE00
1FFFFE00
1F003E00
1F003E00
1F003E00
1F003E00
1F003E00
1F003E00
1F003E00
7FE1FFC0
FFF3FFC0
FFF3FFE0
FFF3FFC0
7FE1FFC0
ENDCHAR
STARTCHAR 0049
ENCODING 73
SWIDTH 600 0
DWIDTH 30 0
BBX 21 29 5 0
BITMAP
7FFFF0
FFFFF8
FFFFF8
FFFFF8
7FFFF0
00F800
00F800
00F800
00F800
00F800
00F800
00F800
00F800
00F800
00F800
00F800
00F800
00F800
00F800
00F800
00F800
00F800
00F800
00F800
7FFFF0
FFFFF8
FFFFF8
FFFFF8
7FFFF0
ENDCHAR
STARTCHAR 004A
ENCODING 74
SWIDTH 600 0
DWIDTH 30 0
BBX 27 29 3 0
BITMAP
00FFFFC0
01FFFFE0
01FFFFE0
01FFFFE0
00FFFFC0
0000F800
0000F800
0000F800
0000F800
0000F800
0000F800
0000F800
0000F800
0000F800
0000F800
2000F800
F800F800
F800F800
F800F800
F800F800
F800F800
F800F800
F801F800
FC03F000
FFFFF000
FFFFE000
FFFFC000
3FFF8000
07FE0000
ENDCHAR
STARTCHAR 004B
ENCODING 75
SWIDTH 600 0
DWIDTH 30 0
BBX 29 29 1 0
BITMAP
7FF87FC0
FFFCFFE0
FFFCFFF0
FFFCFFE0
7FF87FE0
0F807F00
0F80FE00
0F83FC00
0F87F000
0F8FE000
0F9FC000
0FBF8000
0FFF0000
0FFF8000
0FFFC000
0FFFE000
0FE7F000
0FC3F800
0F81F800
0F80FC00
0F80FE00
0F807E00
0F803E00
0F803F00
7FF81FF0
FFFC1FF0
FFFC1FF8
FFFC0FF0
7FF80FF0
ENDCHAR
STARTCHAR 004C
ENCODING 76
SWIDTH 600 0
DWIDTH 30 0
BBX 27 29 2 0
BITMAP
7FFF0000
FFFF8000
FFFF8000
FFFF8000
7FFF0000
03E00000
03E00000
03E00000
03E00000
03E00000
03E00000
03E00000
03E00000
03E00000
03E00000
03E00000
03E001C0
03E003E0
03E003E0
03E003E0
03E003E0
03E003E0
03E003E0
03E003E0
7FFFFFE0
FFFFFFE0
FFFFFFE0
FFFFFFE0
7FFFFFE0
ENDCHAR
STARTCHAR 004D
ENCODING 77
SWIDTH 600 0
DWIDTH 30 0
BBX 32 29 -1 0
BITMAP
3F8001FC
7FC003FE
7FC003FE
7FE007FE
3FE007FC
1FF00FF8
1FF00FF8
1FF81FF8
1FF81FF8
1FFC3FF8
1FFC3FF8
1F7E3EF8
1F7E7EF8
1F3E7CF8
1F3FFCF8
1F1FF8F8
1F1FF8F8
1F0FF8F8
1F0FF0F8
1F07F0F8
1F07E0F8
1F03E0F8
1F0000F8
1F0000F8
7FF00FFE
FFF81FFF
FFF81FFF
FFF81FFF
7FF00FFE
ENDCHAR
STARTCHAR 004E
ENCODING 78
SWIDTH 600 0
DWIDTH 30 0
BBX 30 29 0 0
BITMAP
7F803FF8
FFC07FFC
FFE07FFC
FFE07FFC
7FF03FF8
0FF803E0
0FF803E0
0FFC03E0
0FFE03E0
0FFE03E0
0FBF03E0
0FBF83E0
0F9F83E0
0F8FC3E0
0F8FE3E0
0F87E3E0
0F83F3E0
0F83FBE0
0F81FBE0
0F80FFE0
0F80FFE0
0F807FE0
0F803FE0
0F803FE0
3FF81FE0
7FFC0FE0
7FFC0FE0
7FFC07E0
3FF803E0
ENDCHAR
STARTCHAR 004F
ENCODING 79
SWIDTH 600 0
DWIDTH 30 0
BBX 28 29 1 1
BITMAP
007FE000
01FFF800
03FFFC00
0FFFFF00
0FFFFF80
1FC03F80
3F801FC0
3F000FC0
7E0007E0
7C0003E0
FC0003F0
F80001F0
F80001F0
F80001F0
F80001F0
F80001F0
F80001F0
F80001F0
FC0003F0
7C0003E0
7E0007E0
3F000FC0
3F801FC0
1FC03F80
0FFFFF00
0FFFFF00
03FFFC00
01FFF800
007FE000
ENDCHAR
STARTCHAR 0050
ENCODING 80
SWIDTH 600 0
DWIDTH 30 0
BBX 25 29 1 0
BITMAP
7FFFC000
FFFFF000
FFFFFC00
FFFFFE00
7FFFFF00
0F807F00
0F801F80
0F800F80
0F800F80
0F800F80
0F800F80
0F800F80
0F801F80
0F807F00
0FFFFF00
0FFFFE00
0FFFFC00
0FFFF800
0FFFC000
0F800000
0F800000
0F800000
0F800000
0F800000
7FFF0000
FFFF8000
FFFF8000
FFFF8000
7FFF0000
ENDCHAR
STARTCHAR 0051
ENCODING 81
SWIDTH 600 0
DWIDTH 30 0
BBX 28 36 1 -6
BITMAP
007FE000
01FFF800
03FFFC00
07FFFE00
0FFFFF00
1FC03F80
3F801FC0
3F000FC0
7E0007E0
7C0003E0
FC0003E0
F80001F0
F80001F0
F80001F0
F80001F0
F80001F0
F80001F0
F80001F0
FC0003F0
7C0003E0
7E0007E0
7E0007C0
3F000FC0
1F801F80
1FF0FF00
0FFFFF00
07FFFC00
01FFF800
00FFE000
00F80000
01FFE1E0
03FFFFF0
07FFFFF0
07FFFFE0
07FFFFC0
03801F00
ENDCHAR
STARTCHAR 0052
ENCODING 82
SWIDTH 600 0
DWIDTH 30 0
BBX 29 29 0 0
BITMAP
7FFFC000
FFFFF000
FFFFFC00
FFFFFE00
7FFFFF00
0F807F00
0F801F80
0F800F80
0F800F80
0F800F80
0F801F80
0F803F80
0F80FF00
0FFFFE00
0FFFFC00
0FFFF800
0FFFF000
0FFFF800
0F81FC00
0F80FE00
0F807E00
0F803F00
0F801F80
0F801F80
7FF80FF0
FFFC07F8
FFFC07F8
FFFC03F8
7FF803F0
ENDCHAR
STARTCHAR 0053
ENCODING 83
SWIDTH 600 0
DWIDTH 30 0
BBX 24 29 3 1
BITMAP
01FF9E
07FFFE
1FFFFE
1FFFFE
3FFFFE
7F00FE
7E007E
7C003E
7C003E
7E001E
7F0000
3FE000
3FFF00
1FFFE0
0FFFF8
03FFFC
003FFE
0001FE
00003F
F0001F
F8001F
F8001F
FC003F
FE007F
FFFFFE
FFFFFC
FFFFFC
77FFF0
01FFC0
ENDCHAR
STARTCHAR 0054
ENCODING 84
SWIDTH 600 0
DWIDTH 30 0
BBX 26 29 2 0
BITMAP
FFFFFFC0
FFFFFFC0
FFFFFFC0
FFFFFFC0
FFFFFFC0
F83E07C0
F83E07C0
F83E07C0
F83E07C0
F83E07C0
F83E07C0
F83E07C0
703E0380
003E0000
003E0000
003E0000
003E0000
003E0000
003E0000
003E0000
003E0000
003E0000
003E0000
003E0000
07FFF000
0FFFF800
0FFFF800
0FFFF800
07FFF000
ENDCHAR
STARTCHAR 0055
ENCODING 85
SWIDTH 600 0
DWIDTH 30 0
BBX 28 29 1 0
BITMAP
7FF0FFE0
FFF9FFF0
FFF9FFF0
FFF9FFF0
7FF0FFE0
1F000F80
1F000F80
1F000F80
1F000F80
1F000F80
1F000F80
1F000F80
1F000F80
1F000F80
1F000F80
1F000F80
1F000F80
1F000F80
1F000F80
1F000F80
1F000F80
1F801F80
0F801F00
0FE07F00
07FFFE00
07FFFE00
03FFFC00
00FFF000
007FE000
ENDCHAR
STARTCHAR 0056
ENCODING 86
SWIDTH 600 0
DWIDTH 30 0
BBX 32 29 -1 0
BITMAP
7FF00FFE
FFF81FFF
FFF81FFF
FFF81FFF
7FF00FFE
0F8001F8
0FC001F0
0FC003F0
07E003E0
07E003E0
03E007C0
03F007C0
01F00FC0
01F80F80
01F81F80
00FC1F00
00FC1F00
007C3E00
007E3E00
003E7E00
003F7C00
003FFC00
001FF800
001FF800
000FF000
000FF000
000FF000
0007E000
0007E000
ENDCHAR
STARTCHAR 0057
ENCODING 87
SWIDTH 600 0
DWIDTH 30 0
BBX 31 29 -1 0
BITMAP
7FF01FFC
FFF83FFE
FFF83FFE
FFF83FFE
7FF01FFC
1F0000F8
1F0000F8
1F07E0F8
1F07E0F8
1F8FE0F8
0F8FF0F8
0F8FF1F0
0F9FF1F0
0F9FF9F0
0F9FF9F0
0F9EF9F0
0FBEFDF0
0FFEFDF0
07FC7FF0
07FC7FE0
07FC7FE0
07F83FE0
07F83FE0
07F83FE0
07F01FE0
03F01FE0
03F01FC0
03E00FC0
03E00FC0
ENDCHAR
STARTCHAR 0058
ENCODING 88
SWIDTH 600 0
DWIDTH 30 0
BBX 28 29 1 0
BITMAP
7FC07FC0
FFE0FFE0
FFE0FFE0
FFE0FFE0
7FC07FC0
1FC07F00
0FE07E00
07E0FC00
03F1F800
01FBF800
00FFF000
00FFE000
007FC000
003F8000
001F8000
003FC000
007FC000
00FFE000
01FFF000
03F9F800
07F0FC00
07E0FE00
0FC07F00
1F803F00
7FE07FE0
FFE0FFF0
FFF0FFF0
FFE0FFF0
7FE07FE0
ENDCHAR
STARTCHAR 0059
ENCODING 89
SWIDTH 600 0
DWIDTH 30 0
BBX 28 29 1 0
BITMAP
7FC03FE0
FFE07FF0
FFE07FF0
FFE07FF0
7FC03FE0
0FC01F80
0FC03F00
07E07E00
03E0FC00
03F1FC00
01FBF800
01FBF000
00FFE000
007FE000
007FC000
003F8000
001F0000
001F0000
001F0000
001F0000
001F0000
001F0000
001F0000
001F0000
03FFF800
07FFFC00
07FFFC00
07FFFC00
03FFF800
ENDCHAR
STARTCHAR 005A
ENCODING 90
SWIDTH 600 0
DWIDTH 30 0
BBX 22 29 4 0
BITMAP
7FFFF8
7FFFF8
7FFFF8
7FFFF8
7FFFF8
7C03F8
7C07F0
7C07E0
7C0FC0
7C1F80
7C3F80
383F00
007E00
00FC00
01FC00
03F800
03F000
07E038
0FC07C
1FC07C
1F807C
3F007C
7E007C
FE007C
FFFFFC
FFFFFC
FFFFFC
FFFFFC
FFFFFC
ENDCHAR
STARTCHAR 005B
ENCODING 91
SWIDTH 600 0
DWIDTH 30 0
BBX 11 38 13 -7
BITMAP
FFC0
FFE0
FFE0
FFE0
FFC0
F800
F800
F800
F800
F800
F800
F800
F800
F800
F800
F800
F800
F800
F800
F800
F800
F800
F800
F800
F800
F800
F800
F800
F800
F800
F800
F800
F800
FFC0
FFE0
FFE0
FFE0
FFC0
ENDCHAR
STARTCHAR 005C
ENCODING 92
SWIDTH 600 0
DWIDTH 30 0
BBX 22 41 4 -6
BITMAP
200000
F80000
F80000
FC0000
7C0000
7E0000
3E0000
3F0000
1F0000
1F8000
0F8000
0F8000
07C000
07C000
07E000
03E000
03F000
01F000
01F800
00F800
00FC00
007C00
007E00
003E00
003F00
001F00
001F80
000F80
000FC0
0007C0
0007C0
0007E0
0003E0
0003F0
0001F0
0001F8
0000F8
0000FC
00007C
000078
000010
ENDCHAR
STARTCHAR 005D
ENCODING 93
SWIDTH 600 0
DWIDTH 30 0
BBX 11 38 6 -7
BITMAP
7FE0
FFE0
FFE0
FFE0
7FE0
03E0
03E0
03E0
03E0
03E0
03E0
03E0
03E0
03E0
03E0
03E0
03E0
03E0
03E0
03E0
03E0
03E0
03E0
03E0
03E0
03E0
03E0
03E0
03E0
03E0
03E0
03E0
03E0
7FE0
FFE0
FFE0
FFE0
7FE0
ENDCHAR
STARTCHAR 005E
ENCODING 94
SWIDTH 600 0
DWIDTH 30 0
BBX 22 16 4 16
BITMAP
003000
007000
007800
00FC00
01FE00
03FF00
07FF80
0FFFC0
0FCFC0
1F87E0
3F07F0
7F03F8
FE01FC
FC00FC
F8007C
700038
ENDCHAR
STARTCHAR 005F
ENCODING 95
SWIDTH 600 0
DWIDTH 30 0
BBX 30 5 0 -10
BITMAP
FFFFFFFC
FFFFFFFC
FFFFFFFC
FFFFFFFC
FFFFFFFC
ENDCHAR
STARTCHAR 0060
ENCODING 96
SWIDTH 600 0
DWIDTH 30 0
BBX 9 8 8 26
BITMAP
F000
F800
7C00
3E00
1F00
0F80
0780
0380
ENDCHAR
STARTCHAR 0061
ENCODING 97
SWIDTH 600 0
DWIDTH 30 0
BBX 26 23 2 0
BITMAP
03FFC000
0FFFF000
1FFFF800
1FFFF800
1FFFFC00
0000FC00
00007C00
007C7C00
03FFFC00
0FFFFC00
1FFFFC00
3FFFFC00
7F00FC00
FC007C00
F8007C00
F8007C00
F801FC00
FC0FFF80
7FFFFFC0
7FFFFFC0
3FFFFFC0
1FFF7F80
07F80000
ENDCHAR
STARTCHAR 0062
ENCODING 98
SWIDTH 600 0
DWIDTH 30 0
BBX 29 31 0 0
BITMAP
7F800000
FF800000
FF800000
FF800000
7F800000
0F800000
0F800000
0F800000
0F800000
0F9FFC00
0FBFFF00
0FFFFF80
0FFFFFC0
0FFFFFE0
0FF007F0
0FE003F0
0FC001F0
0FC001F8
0F8000F8
0F8000F8
0F8000F8
0F8000F8
0F8000F8
0FC001F8
0FE003F0
0FF007F0
7FFFFFE0
FFFFFFC0
FFFFFF80
FFFFFF00
7F8FFC00
ENDCHAR
STARTCHAR 0063
ENCODING 99
SWIDTH 600 0
DWIDTH 30 0
BBX 25 23 3 0
BITMAP
01FFEE00
07FFFF00
0FFFFF00
1FFFFF00
3FFFFF00
7F007F00
7E001F00
7C001F00
FC001F00
F8000E00
F8000000
F8000000
F8000000
F8000000
FC000000
7C000300
7E000F80
7F803F80
3FFFFF80
1FFFFF00
0FFFFE00
03FFFC00
007FC000
ENDCHAR
STARTCHAR 0064
ENCODING 100
SWIDTH 600 0
DWIDTH 30 0
BBX 29 31 2 0
BITMAP
00007F80
0000FF80
0000FF80
0000FF80
00007F80
00000F80
00000F80
00000F80
00000F80
01FF8F80
07FFEF80
0FFFFF80
1FFFFF80
3FFFFF80
7F007F80
7E003F80
FC001F80
FC001F80
F8000F80
F8000F80
F8000F80
F8000F80
F8000F80
FC001F80
7E003F80
7F007F80
3FFFFFF0
1FFFFFF8
0FFFFFF8
07FFEFF8
01FF8FF0
ENDCHAR
STARTCHAR 0065
ENCODING 101
SWIDTH 600 0
DWIDTH 30 0
BBX 26 23 2 0
BITMAP
01FFC000
07FFF000
0FFFF800
1FFFFC00
3FFFFE00
7F007F00
7E003F00
FC001F80
F8000F80
FFFFFF80
FFFFFF80
FFFFFF80
FFFFFFC0
FFFFFFC0
F8000000
FC000000
7E000300
7F803F80
3FFFFF80
1FFFFF80
0FFFFF80
03FFFE00
007FE000
ENDCHAR
STARTCHAR 0066
ENCODING 102
SWIDTH 600 0
DWIDTH 30 0
BBX 24 31 4 0
BITMAP
001FF8
007FFE
00FFFF
01FFFF
03FFFE
03F000
03E000
03E000
03E000
3FFFF0
7FFFF8
7FFFF8
7FFFF8
3FFFF0
03E000
03E000
03E000
03E000
03E000
03E000
03E000
03E000
03E000
03E000
03E000
03E000
7FFFF0
FFFFF8
FFFFF8
FFFFF8
7FFFF0
ENDCHAR
STARTCHAR 0067
ENCODING 103
SWIDTH 600 0
DWIDTH 30 0
BBX 27 32 2 -9
BITMAP
01FF3FC0
07FFBFE0
0FFFFFE0
1FFFFFE0
3FFFFFC0
7F01FE00
7E00FE00
FC007E00
F8003E00
F8003E00
F8003E00
F8003E00
F8003E00
F8007E00
FC007E00
7E00FE00
7F01FE00
3FFFFE00
1FFFFE00
0FFFFE00
07FFBE00
01FF3E00
00003E00
00003E00
00003E00
00007E00
0000FC00
03FFFC00
07FFF800
07FFF000
07FFE000
03FF8000
ENDCHAR
STARTCHAR 0068
ENCODING 104
SWIDTH 600 0
DWIDTH 30 0
BBX 27 31 1 0
BITMAP
7F800000
FF800000
FF800000
FF800000
7F800000
0F800000
0F800000
0F800000
0F800000
0F9FF000
0FBFF800
0FFFFC00
0FFFFE00
0FFFFE00
0FE03F00
0FC01F00
0F801F00
0F801F00
0F801F00
0F801F00
0F801F00
0F801F00
0F801F00
0F801F00
0F801F00
0F801F00
3FF0FFC0
7FF9FFE0
FFF9FFE0
7FF9FFE0
3FF0FFC0
ENDCHAR
STARTCHAR 0069
ENCODING 105
SWIDTH 600 0
DWIDTH 30 0
BBX 23 31 4 0
BITMAP
01F800
01F800
01F800
01F800
01F800
000000
000000
000000
000000
1FFC00
3FFC00
3FFC00
3FFC00
1FFC00
007C00
007C00
007C00
007C00
007C00
007C00
007C00
007C00
007C00
007C00
007C00
007C00
7FFFFC
FFFFFE
FFFFFE
FFFFFE
7FFFFC
ENDCHAR
STARTCHAR 006A
ENCODING 106
SWIDTH 600 0
DWIDTH 30 0
BBX 18 41 5 -10
BITMAP
007E00
007E00
007E00
007E00
007E00
000000
000000
000000
000000
7FFFC0
FFFFC0
FFFFC0
FFFFC0
7FFFC0
0007C0
0007C0
0007C0
0007C0
0007C0
0007C0
0007C0
0007C0
0007C0
0007C0
0007C0
0007C0
0007C0
0007C0
0007C0
0007C0
0007C0
0007C0
0007C0
0007C0
000FC0
001F80
7FFF80
FFFF00
FFFE00
FFFC00
7FF000
ENDCHAR
STARTCHAR 006B
ENCODING 107
SWIDTH 600 0
DWIDTH 30 0
BBX 27 31 2 0
BITMAP
7F800000
FF800000
FF800000
FF800000
7F800000
0F800000
0F800000
0F800000
0F800000
0F87FE00
0F8FFF00
0F8FFF00
0F8FFF00
0F87FE00
0F9FE000
0FBFC000
0FFF0000
0FFE0000
0FFC0000
0FFC0000
0FFE0000
0FFF8000
0FBFC000
0F9FE000
0F8FF000
0F83F800
7F81FF80
FF83FFC0
FF83FFE0
FF83FFC0
7F81FF80
ENDCHAR
STARTCHAR 006C
ENCODING 108
SWIDTH 600 0
DWIDTH 30 0
BBX 23 31 4 0
BITMAP
1FFC00
3FFC00
3FFC00
3FFC00
1FFC00
007C00
007C00
007C00
007C00
007C00
007C00
007C00
007C00
007C00
007C00
007C00
007C00
007C00
007C00
007C00
007C00
007C00
007C00
007C00
007C00
007C00
7FFFFC
FFFFFE
FFFFFE
FFFFFE
7FFFFC
ENDCHAR
STARTCHAR 006D
ENCODING 109
SWIDTH 600 0
DWIDTH 30 0
BBX 32 22 -1 1
BITMAP
7F7F1FC0
FFFFBFE0
FFFFFFF0
FFFFFFF8
7FFFFFF8
1F83F0F8
1F03E0F8
1F03E0F8
1F03E0F8
1F03E0F8
1F03E0F8
1F03E0F8
1F03E0F8
1F03E0F8
1F03E0F8
1F03E0F8
1F03E0F8
7FC3F8FE
FFE3FCFF
FFE3FCFF
FFE3FCFF
7FC3F8FE
ENDCHAR
STARTCHAR 006E
ENCODING 110
SWIDTH 600 0
DWIDTH 30 0
BBX 26 22 2 1
BITMAP
7F3FE000
FF7FF000
FFFFF800
FFFFFC00
7FFFFC00
1FE07E00
1F803E00
1F003E00
1F003E00
1F003E00
1F003E00
1F003E00
1F003E00
1F003E00
1F003E00
1F003E00
1F003E00
7FE0FF80
FFF1FFC0
FFF1FFC0
FFF1FFC0
7FE0FF80
ENDCHAR
STARTCHAR 006F
ENCODING 111
SWIDTH 600 0
DWIDTH 30 0
BBX 26 23 2 0
BITMAP
00FFC000
03FFF000
0FFFFC00
1FFFFE00
3FFFFF00
3F807F00
7E001F80
7C000F80
FC000FC0
F80007C0
F80007C0
F80007C0
F80007C0
F80007C0
FC000FC0
7E001F80
7F003F80
3FC0FF00
1FFFFE00
0FFFFC00
07FFF800
03FFF000
007F8000
ENDCHAR
STARTCHAR 0070
ENCODING 112
SWIDTH 600 0
DWIDTH 30 0
BBX 29 32 0 -9
BITMAP
7F8FFC00
FFBFFF00
FFFFFF80
FFFFFFC0
7FFFFFE0
0FF007F0
0FE003F0
0FC001F8
0F8000F8
0F8000F8
0F8000F8
0F8000F8
0FC001F8
0FC001F8
0FE003F0
0FF80FF0
0FFFFFE0
0FFFFFC0
0FFFFF80
0F9FFE00
0F87F800
0F800000
0F800000
0F800000
0F800000
0F800000
0F800000
7FFC0000
FFFE0000
FFFE0000
FFFE0000
7FFC0000
ENDCHAR
STARTCHAR 0071
ENCODING 113
SWIDTH 600 0
DWIDTH 30 0
BBX 29 32 1 -9
BITMAP
01FF8FF0
07FFEFF8
0FFFFFF8
1FFFFFF8
3FFFFFF0
7F007F80
7E003F80
FC001F80
F8000F80
F8000F80
F8000F80
F8000F80
FC001F80
FC001F80
7E003F80
7F80FF80
3FFFFF80
1FFFFF80
0FFFFF80
03FFCF80
00FF0F80
00000F80
00000F80
00000F80
00000F80
00000F80
00000F80
0001FFF0
0003FFF8
0003FFF8
0003FFF8
0001FFF0
ENDCHAR
STARTCHAR 0072
ENCODING 114
SWIDTH 600 0
DWIDTH 30 0
BBX 26 22 3 1
BITMAP
3FE1FE00
7FE3FF80
7FEFFF80
7FFFFFC0
3FFFFF80
03FF0000
03FE0000
03FC0000
03F00000
03E00000
03E00000
03E00000
03E00000
03E00000
03E00000
03E00000
03E00000
7FFFF000
FFFFF800
FFFFF800
FFFFF800
7FFFF000
ENDCHAR
STARTCHAR 0073
ENCODING 115
SWIDTH 600 0
DWIDTH 30 0
BBX 22 23 4 0
BITMAP
07FFB8
0FFFF8
3FFFF8
3FFFF8
7FFFF8
7E00F8
7C0078
7F0030
7FF800
3FFF80
3FFFE0
0FFFF0
01FFF8
0007FC
F000FC
F8007C
FC007C
FF01FC
FFFFF8
FFFFF8
FFFFF0
7FFFC0
01FF00
ENDCHAR
STARTCHAR 0074
ENCODING 116
SWIDTH 600 0
DWIDTH 30 0
BBX 25 31 1 -1
BITMAP
01000000
07C00000
07C00000
07C00000
07C00000
07C00000
07C00000
07C00000
7FFFF800
FFFFFC00
FFFFFC00
FFFFFC00
7FFFF800
07C00000
07C00000
07C00000
07C00000
07C00000
07C00000
07C00000
07C00000
07C00000
07C00000
07C00000
07C00F00
07E03F80
07FFFF80
03FFFF80
01FFFF00
00FFFC00
003FC000
ENDCHAR
STARTCHAR 0075
ENCODING 117
SWIDTH 600 0
DWIDTH 30 0
BBX 27 22 1 0
BITMAP
7F81FF00
FF83FF00
FF83FF00
FF83FF00
7F81FF00
0F801F00
0F801F00
0F801F00
0F801F00
0F801F00
0F801F00
0F801F00
0F801F00
0F801F00
0F801F00
0F803F00
0FC0FF00
07FFFFC0
07FFFFE0
03FFFFE0
01FFDFE0
00FF9FC0
ENDCHAR
STARTCHAR 0076
ENCODING 118
SWIDTH 600 0
DWIDTH 30 0
BBX 30 22 0 0
BITMAP
7FF03FF8
FFF87FFC
FFF87FFC
FFF87FFC
7FF03FF8
0FC007C0
07C00FC0
07E00F80
03E01F80
03F03F00
01F83F00
01F87E00
00FC7E00
00FCFC00
007EFC00
007FF800
003FF800
003FF000
001FF000
001FE000
000FE000
000FC000
ENDCHAR
STARTCHAR 0077
ENCODING 119
SWIDTH 600 0
DWIDTH 30 0
BBX 30 22 0 0
BITMAP
7FC00FF8
FFE01FFC
FFE01FFC
FFE01FFC
7FC00FF8
1F07C3E0
1F0FC3E0
1F8FE3E0
0F8FE3E0
0F9FE7C0
0F9FF7C0
0FFFF7C0
07FFF7C0
07FFFF80
07FEFF80
07FCFF80
03FC7F80
03F87F00
03F87F00
03F83F00
01F03F00
01F01E00
ENDCHAR
STARTCHAR 0078
ENCODING 120
SWIDTH 600 0
DWIDTH 30 0
BBX 28 22 1 0
BITMAP
3FE07FC0
7FF0FFE0
7FF0FFE0
7FF0FFE0
3FE07FC0
0FF0FF00
07F9FE00
03FFFC00
00FFF000
007FE000
003FC000
007FE000
00FFF000
01FFF800
03F9FE00
0FF0FF00
1FE07F80
7FE07FE0
FFF0FFF0
FFF0FFF0
FFF0FFF0
7FE07FE0
ENDCHAR
STARTCHAR 0079
ENCODING 121
SWIDTH 600 0
DWIDTH 30 0
BBX 28 32 1 -10
BITMAP
7FC03FE0
FFE07FF0
FFE07FF0
FFE07FF0
7FC03FE0
1F000F80
1F801F80
0F801F00
0FC03F00
07E03E00
07E07E00
03F07C00
03F0FC00
01F9F800
01F9F800
00FFF000
00FFF000
007FE000
007FC000
003FC000
003F8000
001F8000
001F0000
003F0000
003E0000
007E0000
007C0000
7FFF0000
FFFF8000
FFFF8000
FFFF8000
7FFF0000
ENDCHAR
STARTCHAR 007A
ENCODING 122
SWIDTH 600 0
DWIDTH 30 0
BBX 22 22 4 0
BITMAP
7FFFF8
7FFFF8
7FFFF8
7FFFF8
7FFFF8
7C07F0
7C0FE0
7C1FC0
383F80
007F00
00FC00
01F800
03F000
07E000
0FC030
1F807C
3F007C
7FFFFC
FFFFFC
FFFFFC
FFFFFC
FFFFFC
ENDCHAR
STARTCHAR 007B
ENCODING 123
SWIDTH 600 0
DWIDTH 30 0
BBX 15 39 7 -8
BITMAP
007C
00FE
01FE
03FE
03FC
07E0
07C0
07C0
07C0
07C0
07C0
07C0
07C0
07C0
07C0
07C0
0F80
7F80
FF00
FE00
FF00
7F80
0F80
07C0
07C0
07C0
07C0
07C0
07C0
07C0
07C0
07C0
07C0
07E0
03FC
03FE
01FE
00FE
007C
ENDCHAR
STARTCHAR 007C
ENCODING 124
SWIDTH 600 0
DWIDTH 30 0
BBX 5 39 13 -8
BITMAP
70
F8
F8
F8
F8
F8
F8
F8
F8
F8
F8
F8
F8
F8
F8
F8
F8
F8
F8
F8
F8
F8
F8
F8
F8
F8
F8
F8
F8
F8
F8
F8
F8
F8
F8
F8
F8
F8
20
ENDCHAR
STARTCHAR 007D
ENCODING 125
SWIDTH 600 0
DWIDTH 30 0
BBX 15 39 8 -8
BITMAP
7800
FE00
FF00
FF80
7F80
0FC0
07C0
07C0
07C0
07C0
07C0
07C0
07C0
07C0
07C0
07C0
03E0
03FC
01FE
00FE
01FE
03FC
03E0
07C0
07C0
07C0
07C0
07C0
07C0
07C0
07C0
07C0
07C0
0FC0
7F80
FF80
FF00
FE00
7C00
ENDCHAR
STARTCHAR 007E
ENCODING 126
SWIDTH 600 0
DWIDTH 30 0
BBX 24 10 3 9
BITMAP
07C000
0FF00E
3FF81F
3FFC3F
7FFE7F
FE7FFE
FC3FFC
F81FF8
7007F0
0003E0
ENDCHAR
STARTCHAR 00A0
ENCODING 160
SWIDTH 600 0
DWIDTH 30 0
BBX 0 0 0 0
BITMAP
ENDCHAR
STARTCHAR 00A1
ENCODING 161
SWIDTH 600 0
DWIDTH 30 0
BBX 8 33 11 -10
BITMAP
3C
7E
FF
FF
FF
7E
18
00
00
00
38
3C
7C
7E
7E
7E
7E
7E
7E
7E
7E
7E
7E
FF
FF
FF
FF
FF
FF
FF
FF
7E
3C
ENDCHAR
STARTCHAR 00A2
ENCODING 162
SWIDTH 600 0
DWIDTH 30 0
BBX 21 35 4 -2
BITMAP
003800
007C00
007C00
007C00
007C00
007C00
007C00
007F00
03FFF0
0FFFF8
1FFFF8
3FFFF8
3F81F8
7E00F8
7C00F8
FC00F8
F80070
F80000
F80000
F80000
FC0000
7E0070
7F81F8
3FFFF8
1FFFF8
0FFFF0
03FFC0
00FF00
007C00
007C00
007C00
007C00
007C00
007C00
003800
ENDCHAR
STARTCHAR 00A3
ENCODING 163
SWIDTH 600 0
DWIDTH 30 0
BBX 25 30 2 0
BITMAP
007E0000
01FFC000
03FFE000
07FFF000
07FFF000
0FE1F000
0F80E000
0F800000
0F800000
0F800000
0F800000
0FC00000
07C00000
7FFE0000
FFFF0000
FFFF0000
FFFF0000
7FFE0000
03E00000
03E00000
03E00000
03E00000
07E00000
07C00700
0FC00F80
3FFFFF80
7FFFFF80
7FFFFF80
7FFFFF00
3FFFFE00
ENDCHAR
STARTCHAR 00A4
ENCODING 164
SWIDTH 600 0
DWIDTH 30 0
BBX 24 22 3 4
BITMAP
78001E
FC7E3F
FFFFFF
7FFFFE
3FFFFC
1FFFF8
1FC3F8
1F00F8
3E00FC
3E007C
3E007C
3E007C
3F00FC
1F00F8
1FC3F8
1FFFF8
3FFFFC
7FFFFE
FFFFFF
FC7E3F
78001E
30000C
ENDCHAR
STARTCHAR 00A5
ENCODING 165
SWIDTH 600 0
DWIDTH 30 0
BBX 28 29 1 0
BITMAP
7FC03FE0
FFE07FF0
FFE07FF0
FFE07FF0
7FC03FE0
0FC01F80
0FC03F00
07E07E00
03F0FE00
03F1FC00
01F9F800
00FBF800
00FFF000
007FE000
003FC000
03FFFC00
07FFFC00
07FFFC00
001F0000
03FFF800
07FFFC00
07FFFC00
001F0000
001F0000
01FFF000
03FFF800
03FFF800
03FFF800
01FFF000
ENDCHAR
STARTCHAR 00A6
ENCODING 166
SWIDTH 600 0
DWIDTH 30 0
BBX 5 39 13 -8
BITMAP
70
F8
F8
F8
F8
F8
F8
F8
F8
F8
F8
F8
F8
F8
F8
F8
20
00
00
00
00
00
70
F8
F8
F8
F8
F8
F8
F8
F8
F8
F8
F8
F8
F8
F8
F8
20
ENDCHAR
STARTCHAR 00A7
ENCODING 167
SWIDTH 600 0
DWIDTH 30 0
BBX 28 38 1 -9
BITMAP
001FFF80
007FFF80
00FFFF80
01FFFF80
01FFFF80
03E00780
03C00780
03C00780
03E00380
0FF00000
3FF80000
7FFE0000
7FFF8000
FC3FC000
F81FF000
F807FC00
FC01FE00
7E00FF80
7F803FC0
3FE00FE0
0FF807E0
07FE03F0
01FF81F0
007FC1F0
001FE3F0
000FFFF0
0003FFE0
0000FFC0
00007F00
0E003E00
1E001E00
1E001E00
1E003E00
1FFFFE00
1FFFFC00
1FFFFC00
1FFFF000
1FFFC000
ENDCHAR
STARTCHAR 00A8
ENCODING 168
SWIDTH 600 0
DWIDTH 30 0
BBX 16 6 7 27
BITMAP
781E
FC3F
FC3F
FC3F
FC3F
781E
ENDCHAR
STARTCHAR 00A9
ENCODING 169
SWIDTH 600 0
DWIDTH 30 0
BBX 31 31 0 -1
BITMAP
00078000
007FF800
01FFFE00
03FFFF80
07F01FC0
0F8007E0
1F0201F0
3E1FFCF0
3C3FFC78
787FFC7C
78F87C3C
F1F03C3C
F1E01C1C
F1E0001E
F1E0001E
F1E0001E
F1E0001E
F1E0001C
F1E0081C
70F01C3C
78FFFC3C
787FFC78
3C3FF878
3E0FE0F0
1F0001F0
0F8003E0
07E00FC0
03FFFF80
01FFFF00
007FFC00
001FE000
ENDCHAR
STARTCHAR 00AA
ENCODING 170
SWIDTH 600 0
DWIDTH 30 0
BBX 18 21 6 9
BITMAP
1FFC00
3FFE00
3FFF00
003F00
000F00
0FFF00
3FFF00
7FFF00
FC0F00
F80F00
F83F80
FFFFC0
7FFFC0
3FFF80
0FC000
000000
000000
7FFF80
FFFFC0
FFFFC0
7FFFC0
ENDCHAR
STARTCHAR 00AB
ENCODING 171
SWIDTH 600 0
DWIDTH 30 0
BBX 27 20 2 1
BITMAP
000400C0
001E01E0
003E07C0
007C0F80
01F81F00
03F07E00
0FE0FC00
1FC1F800
3F07F000
FE0FE000
FE0FE000
3F07F000
1F83F800
0FC0FC00
03E07E00
01F83F00
00FC0F80
003E07C0
001E03E0
000E00C0
ENDCHAR
STARTCHAR 00AC
ENCODING 172
SWIDTH 600 0
DWIDTH 30 0
BBX 21 16 2 7
BITMAP
1FFFF8
FFFFF8
FFFFF8
FFFFF8
FFFFF8
1FFFF8
0000F8
0000F8
0000F8
0000F8
0000F8
0000F8
0000F8
0000F8
0000F8
0000F8
ENDCHAR
STARTCHAR 00AD
ENCODING 173
SWIDTH 600 0
DWIDTH 30 0
BBX 26 5 2 11
BITMAP
7FFFFF80
FFFFFFC0
FFFFFFC0
FFFFFFC0
7FFFFF80
ENDCHAR
STARTCHAR 00AE
ENCODING 174
SWIDTH 600 0
DWIDTH 30 0
BBX 31 31 0 -1
BITMAP
00038000
007FF800
01FFFE00
03FFFF80
07F01FC0
0FC007E0
1F0003F0
3E3E00F0
3CFFC0F8
78FFE078
78FFF03C
703CF03C
F03C781C
F03C701C
F03DF01E
F03FF01E
F03FE01E
F03FC01E
F03DE01C
F03CF03C
783C703C
78FF7C7C
3CFF3C78
3EFE3CF8
1F0001F0
0F8003E0
0FE00FC0
07FFFF80
01FFFF00
00FFFC00
001FE000
ENDCHAR
STARTCHAR 00AF
ENCODING 175
SWIDTH 600 0
DWIDTH 30 0
BBX 18 4 6 27
BITMAP
7FFF80
FFFFC0
FFFFC0
7FFF80
ENDCHAR
STARTCHAR 00B0
ENCODING 176
SWIDTH 600 0
DWIDTH 30 0
BBX 18 17 6 13
BITMAP
07F800
1FFE00
3FFF00
7C0F80
780780
F003C0
E001C0
E001C0
E001C0
E001C0
F003C0
700380
780780
3E1F00
1FFE00
0FFC00
03F000
ENDCHAR
STARTCHAR 00B1
ENCODING 177
SWIDTH 600 0
DWIDTH 30 0
BBX 25 31 3 0
BITMAP
001C0000
003E0000
003E0000
003E0000
003E0000
003E0000
003E0000
003E0000
003E0000
7FFFFF00
FFFFFF80
FFFFFF80
FFFFFF80
7FFFFF00
003E0000
003E0000
003E0000
003E0000
003E0000
003E0000
003E0000
001C0000
00000000
00000000
00000000
00000000
7FFFFF00
FFFFFF80
FFFFFF80
FFFFFF80
7FFFFF00
ENDCHAR
STARTCHAR 00B2
ENCODING 178
SWIDTH 600 0
DWIDTH 30 0
BBX 14 19 8 19
BITMAP
1FC0
3FF0
7FF0
F878
F038
E038
0038
0078
00F8
01F0
03E0
07C0
0F80
1F00
3C18
7838
FFFC
FFFC
FFFC
ENDCHAR
STARTCHAR 00B3
ENCODING 179
SWIDTH 600 0
DWIDTH 30 0
BBX 13 19 9 19
BITMAP
3FC0
FFE0
FFF0
E0F0
0070
0070
00F0
0FF0
1FC0
0FE0
03F0
0078
0038
0038
0038
E078
FFF8
FFF0
7FC0
ENDCHAR
STARTCHAR 00B4
ENCODING 180
SWIDTH 600 0
DWIDTH 30 0
BBX 9 8 12 25
BITMAP
0300
0F80
1F80
3F00
7C00
F800
F000
6000
ENDCHAR
STARTCHAR 00B5
ENCODING 181
SWIDTH 600 0
DWIDTH 30 0
BBX 27 29 1 -7
BITMAP
7F81FF00
FF83FF00
FF83FF00
FF83FF00
7F81FF00
0F801F00
0F801F00
0F801F00
0F801F00
0F801F00
0F801F00
0F801F00
0F801F00
0F801F00
0F801F00
0F803F00
0F807F00
0FC3FFC0
0FFFFFE0
0FFFFFE0
0FFFFFE0
0FFFDFC0
0FFE0000
0F800000
0F800000
0F800000
0F800000
0F800000
07000000
ENDCHAR
STARTCHAR 00B6
ENCODING 182
SWIDTH 600 0
DWIDTH 30 0
BBX 26 38 2 -9
BITMAP
007FFFC0
03FFFFC0
0FFFFFC0
1FFFFF80
3FEF3C00
7F0F3C00
FE0F3C00
FC0F3C00
FC0F3C00
FC0F3C00
FC0F3C00
FC0F3C00
FC0F3C00
FE0F3C00
7F0F3C00
3FCF3C00
1FFF3C00
0FFF3C00
03FF3C00
007F3C00
000F3C00
000F3C00
000F3C00
000F3C00
000F3C00
000F3C00
000F3C00
000F3C00
000F3C00
000F3C00
000F3C00
000F3C00
000F3C00
000F3C00
01FF3F80
03FFFFC0
03FFFFC0
01FF3F80
ENDCHAR
STARTCHAR 00B7
ENCODING 183
SWIDTH 600 0
DWIDTH 30 0
BBX 6 6 12 9
BITMAP
78
FC
FC
FC
FC
78
ENDCHAR
STARTCHAR 00B8
ENCODING 184
SWIDTH 600 0
DWIDTH 30 0
BBX 11 10 10 -10
BITMAP
1E00
1F00
1FC0
1FC0
03C0
01E0
FFC0
FFC0
7F80
1F00
ENDCHAR
STARTCHAR 00B9
ENCODING 185
SWIDTH 600 0
DWIDTH 30 0
BBX 13 19 8 19
BITMAP
0300
3F00
FF00
FF00
7700
0700
0700
0700
0700
0700
0700
0700
0700
0700
0700
0700
FFF8
FFF8
FFF8
ENDCHAR
STARTCHAR 00BA
ENCODING 186
SWIDTH 600 0
DWIDTH 30 0
BBX 18 21 6 9
BITMAP
07FC00
0FFE00
1FFF00
3FBF80
3C0780
7C07C0
7803C0
7803C0
7803C0
7C07C0
3E0F80
3FFF80
1FFF00
0FFE00
03F800
000000
000000
7FFF80
FFFFC0
FFFFC0
7FFF80
ENDCHAR
STARTCHAR 00BB
ENCODING 187
SWIDTH 600 0
DWIDTH 30 0
BBX 26 20 2 1
BITMAP
400C0000
F01E0000
F81F0000
7C0FC000
3F07E000
1F81F000
0FC0FC00
07F07E00
03F83F00
01FC1FC0
00FE1FC0
01F83F80
07F07E00
0FE0FC00
1F81F800
3F03E000
7E07C000
F80F8000
F01E0000
C00C0000
ENDCHAR
STARTCHAR 00BC
ENCODING 188
SWIDTH 600 0
DWIDTH 30 0
BBX 33 31 -2 1
BITMAP
0F00000000
7F00000000
FF0001C000
FF0003C000
070003C000
0700078000
0700078000
07000F0000
07000E0000
07001E0000
07003C0000
07003C0000
0700780000
0700701E00
0700F03E00
FFF9E03E00
FFF9E07E00
FFFBC0FE00
000380EE00
000781EE00
000701CE00
000F038E00
001E078E00
001E070E00
003C0FFF80
00380FFF80
00780FFF80
0070000E00
0000007F80
0000007F80
0000007F80
ENDCHAR
STARTCHAR 00BD
ENCODING 189
SWIDTH 600 0
DWIDTH 30 0
BBX 34 31 -2 1
BITMAP
0F00000000
7F00000000
FF0001C000
FF0001C000
470003C000
0700078000
0700078000
07000F0000
07000F0000
07001E0000
07003C0000
07003C0000
070079FC00
07007BFF00
0700F7FF80
FFF9EF8780
FFF9EF0380
FFFBCE0380
0003C00780
0007800780
000F000F00
000F001E00
001E003C00
001E007800
003C01F000
007803E000
007807C180
00700F8380
00000FFFC0
00000FFFC0
00000FFFC0
ENDCHAR
STARTCHAR 00BE
ENCODING 190
SWIDTH 600 0
DWIDTH 30 0
BBX 32 32 -1 0
BITMAP
1F800000
7FC00000
FFE00000
F1F00380
00700380
00700780
00700F00
00F00E00
0FE01E00
0FC01C00
0FE03C00
01F03800
00787800
00387000
0038E03C
0039E07C
E079C07C
FFF3C0FC
FFF381FC
7FC781DC
000703DC
000F039C
001E079C
001C0F1C
003C0E1C
00381FFF
00781FFF
00701FFF
0070001C
000000FF
000000FF
000000FF
ENDCHAR
STARTCHAR 00BF
ENCODING 191
SWIDTH 600 0
DWIDTH 30 0
BBX 21 31 4 -10
BITMAP
007800
00FC00
00FE00
01FE00
00FE00
00FC00
003000
000000
000000
000000
003000
007800
007800
01F800
07F800
1FFC00
3FF000
7FC000
7F0000
FC0000
F80000
F80070
F800F8
F800F8
FC00F8
7F03F8
7FFFF8
3FFFF8
1FFFF0
07FFC0
01FE00
ENDCHAR
STARTCHAR 00C0
ENCODING 192
SWIDTH 600 0
DWIDTH 30 0
BBX 32 40 -1 0
BITMAP
00380000
003C0000
003E0000
001F8000
000FC000
0007E000
0003E000
0000E000
00000000
00000000
00000000
07FFC000
07FFE000
07FFE000
07FFF000
03FFF000
001FF000
003FF800
003EF800
003EFC00
007E7C00
007C7E00
00FC3E00
00F83E00
00F83F00
01F81F00
01F01F80
03FFFF80
03FFFF80
03FFFFC0
07FFFFC0
07FFFFE0
0FC007E0
0F8003F0
0F8003F0
7FF01FFC
FFF83FFE
FFF83FFF
FFF83FFE
7FF01FFC
ENDCHAR
STARTCHAR 00C1
ENCODING 193
SWIDTH 600 0
DWIDTH 30 0
BBX 32 40 -1 0
BITMAP
0000E000
0001F000
0003E000
0007C000
000F8000
001F0000
001E0000
001C0000
00000000
00000000
00000000
07FFC000
07FFE000
07FFE000
07FFF000
03FFF000
001FF000
003FF800
003EF800
003EFC00
007E7C00
007C7E00
00FC3E00
00F83E00
00F83F00
01F81F00
01F01F80
03FFFF80
03FFFF80
03FFFFC0
07FFFFC0
07FFFFE0
0FC007E0
0F8003F0
0F8003F0
7FF01FFC
FFF83FFE
FFF83FFF
FFF83FFE
7FF01FFC
ENDCHAR
STARTCHAR 00C2
ENCODING 194
SWIDTH 600 0
DWIDTH 30 0
BBX 32 40 -1 0
BITMAP
00010000
00078000
000FE000
003FF000
007FFC00
01FC7E00
03F03F00
01C00F00
00000200
00000000
00000000
07FFC000
07FFE000
07FFE000
07FFF000
03FFF000
001FF000
003FF800
003EF800
003EFC00
007E7C00
007C7E00
00FC3E00
00F83E00
00F83F00
01F81F00
01F01F80
03FFFF80
03FFFF80
03FFFFC0
07FFFFC0
07FFFFE0
0FC007E0
0F8003F0
0F8003F0
7FF01FFC
FFF83FFE
FFF83FFF
FFF83FFE
7FF01FFC
ENDCHAR
STARTCHAR 00C3
ENCODING 195
SWIDTH 600 0
DWIDTH 30 0
BBX 32 38 -1 0
BITMAP
007C0300
00FF0780
01FFFF00
03FFFF00
03C3FE00
01007800
00000000
00000000
00000000
07FFC000
07FFE000
07FFE000
07FFF000
03FFF000
001FF000
003FF800
003EF800
003EFC00
007E7C00
007C7E00
00FC3E00
00F83E00
00F83F00
01F81F00
01F01F80
03FFFF80
03FFFF80
03FFFFC0
07FFFFC0
07FFFFE0
0FC007E0
0F8003F0
0F8003F0
7FF01FFC
FFF83FFE
FFF83FFF
FFF83FFE
7FF01FFC
ENDCHAR
STARTCHAR 00C4
ENCODING 196
SWIDTH 600 0
DWIDTH 30 0
BBX 32 39 -1 0
BITMAP
00200800
00781E00
00FC3F00
00FC3F00
00FC3F00
00781E00
00000000
00000000
00000000
00000000
07FFC000
07FFE000
07FFE000
07FFF000
03FFF000
001FF000
003FF800
003EF800
003EFC00
007E7C00
007C7E00
00FC3E00
00F83E00
00F83F00
01F81F00
01F01F80
03FFFF80
03FFFF80
03FFFFC0
07FFFFC0
07FFFFE0
0FC007E0
0F8003F0
0F8003F0
7FF01FFC
FFF83FFE
FFF83FFF
FFF83FFE
7FF01FFC
ENDCHAR
STARTCHAR 00C5
ENCODING 197
SWIDTH 600 0
DWIDTH 30 0
BBX 32 40 -1 0
BITMAP
0007E000
000FF000
001FF000
001C7800
001C3800
001E7800
001FF000
000FE000
0003C000
00000000
00000000
07FFC000
07FFE000
07FFE000
07FFF000
03FFF000
001FF000
003FF800
003EF800
003EFC00
007E7C00
007C7E00
00FC3E00
00F83E00
00F83F00
01F81F00
01F01F80
03FFFF80
03FFFF80
03FFFFC0
07FFFFC0
07FFFFE0
0FC007E0
0F8003F0
0F8003F0
7FF01FFC
FFF83FFE
FFF83FFF
FFF83FFE
7FF01FFC
ENDCHAR
STARTCHAR 00C6
ENCODING 198
SWIDTH 600 0
DWIDTH 30 0
BBX 32 29 -1 0
BITMAP
01FFFFFE
03FFFFFE
03FFFFFE
03FFFFFE
01FFFFFE
007FE03E
007FE03E
00FBE03E
00FBE03E
00FBE73E
01FBEFBE
01F3EF88
01F3FF80
01F3FF80
03E3FF80
03E3FF80
03FFEF80
07FFEF80
07FFE780
07FFE200
07C3E00F
0F83E01F
0F83E01F
0F83E01F
7FC7FFFF
FFEFFFFF
FFEFFFFF
FFEFFFFF
7FC7FFFF
ENDCHAR
STARTCHAR 00C7
ENCODING 199
SWIDTH 600 0
DWIDTH 30 0
BBX 26 39 2 -9
BITMAP
00FFE380
03FFFFC0
07FFFFC0
0FFFFFC0
1FFFFFC0
3F803FC0
3F000FC0
7E0007C0
7C0007C0
7C0007C0
F8000380
F8000000
F8000000
F8000000
F8000000
F8000000
F8000000
F8000000
F8000000
F8000000
FC000000
7C000000
7E000380
3F000780
3FC01F80
1FFFFF80
0FFFFF00
07FFFE00
01FFFC00
003FE000
001F0000
001FC000
001FC000
0001C000
0001E000
00FFC000
00FFC000
007F8000
001F0000
ENDCHAR
STARTCHAR 00C8
ENCODING 200
SWIDTH 600 0
DWIDTH 30 0
BBX 26 40 1 0
BITMAP
00E00000
00F00000
00FC0000
007E0000
003F0000
001F8000
00078000
00038000
00000000
00000000
00000000
7FFFFF80
FFFFFF80
FFFFFF80
FFFFFF80
7FFFFF80
0F800F80
0F800F80
0F800F80
0F838F80
0F87CF80
0F87C700
0F87C000
0FFFC000
0FFFC000
0FFFC000
0FFFC000
0FFFC000
0F87C000
0F87C380
0F87C7C0
0F8007C0
0F8007C0
0F8007C0
0F8007C0
7FFFFFC0
FFFFFFC0
FFFFFFC0
FFFFFFC0
7FFFFFC0
ENDCHAR
STARTCHAR 00C9
ENCODING 201
SWIDTH 600 0
DWIDTH 30 0
BBX 26 40 1 0
BITMAP
0001C000
0003C000
0007C000
001F8000
003F0000
007E0000
007C0000
00300000
00000000
00000000
00000000
7FFFFF80
FFFFFF80
FFFFFF80
FFFFFF80
7FFFFF80
0F800F80
0F800F80
0F800F80
0F838F80
0F87CF80
0F87C700
0F87C000
0FFFC000
0FFFC000
0FFFC000
0FFFC000
0FFFC000
0F87C000
0F87C380
0F87C7C0
0F8007C0
0F8007C0
0F8007C0
0F8007C0
7FFFFFC0
FFFFFFC0
FFFFFFC0
FFFFFFC0
7FFFFFC0
ENDCHAR
STARTCHAR 00CA
ENCODING 202
SWIDTH 600 0
DWIDTH 30 0
BBX 26 40 1 0
BITMAP
00040000
000E0000
003F8000
007FC000
01FFF000
07F1FC00
07E0FC00
07803C00
02000800
00000000
00000000
7FFFFF80
FFFFFF80
FFFFFF80
FFFFFF80
7FFFFF80
0F800F80
0F800F80
0F800F80
0F838F80
0F87CF80
0F87C700
0F87C000
0FFFC000
0FFFC000
0FFFC000
0FFFC000
0FFFC000
0F87C000
0F87C380
0F87C7C0
0F8107C0
0F8007C0
0F8007C0
0F8007C0
7FFFFFC0
FFFFFFC0
FFFFFFC0
FFFFFFC0
7FFFFFC0
ENDCHAR
STARTCHAR 00CB
ENCODING 203
SWIDTH 600 0
DWIDTH 30 0
BBX 26 38 1 1
BITMAP
01E07800
03F0FC00
03F0FC00
03F0FC00
01E07800
00000000
00000000
00000000
00000000
7FFFFF80
FFFFFF80
FFFFFF80
FFFFFF80
7FFFFF80
0F800F80
0F800F80
0F800F80
0F838F80
0F87CF80
0F87C700
0F87C000
0FFFC000
0FFFC000
0FFFC000
0FFFC000
0FFFC000
0F87C000
0F87C380
0F87C7C0
0F8007C0
0F8007C0
0F8007C0
0F8007C0
7FFFFFC0
FFFFFFC0
FFFFFFC0
FFFFFFC0
7FFFFFC0
ENDCHAR
STARTCHAR 00CC
ENCODING 204
SWIDTH 600 0
DWIDTH 30 0
BBX 21 40 5 0
BITMAP
070000
0F8000
07C000
03E000
01F000
00F800
007C00
003800
000000
000000
000000
7FFFF0
FFFFF8
FFFFF8
FFFFF8
7FFFF0
00F800
00F800
00F800
00F800
00F800
00F800
00F800
00F800
00F800
00F800
00F800
00F800
00F800
00F800
00F800
00F800
00F800
00F800
00F800
7FFFF0
FFFFF8
FFFFF8
FFFFF8
7FFFF0
ENDCHAR
STARTCHAR 00CD
ENCODING 205
SWIDTH 600 0
DWIDTH 30 0
BBX 21 40 5 0
BITMAP
000700
000F00
003F00
007E00
00FC00
01F800
01E000
00C000
000000
000000
000000
7FFFF0
FFFFF8
FFFFF8
FFFFF8
7FFFF0
00F800
00F800
00F800
00F800
00F800
00F800
00F800
00F800
00F800
00F800
00F800
00F800
00F800
00F800
00F800
00F800
00F800
00F800
00F800
7FFFF0
FFFFF8
FFFFF8
FFFFF8
7FFFF0
ENDCHAR
STARTCHAR 00CE
ENCODING 206
SWIDTH 600 0
DWIDTH 30 0
BBX 21 39 5 1
BITMAP
00F000
03F800
07FE00
1FFF80
3F9FC0
7E07E0
7801E0
000000
000000
000000
7FFFF0
FFFFF8
FFFFF8
FFFFF8
7FFFF0
00F800
00F800
00F800
00F800
00F800
00F800
00F800
00F800
00F800
00F800
00F800
00F800
00F800
00F800
00F800
00F800
00F800
00F800
00F800
7FFFF0
FFFFF8
FFFFF8
FFFFF8
7FFFF0
ENDCHAR
STARTCHAR 00CF
ENCODING 207
SWIDTH 600 0
DWIDTH 30 0
BBX 21 38 5 1
BITMAP
1E0780
3F0FC0
3F0FC0
3F0FC0
1E0780
000000
000000
000000
000000
7FFFF0
FFFFF8
FFFFF8
FFFFF8
7FFFF0
00F800
00F800
00F800
00F800
00F800
00F800
00F800
00F800
00F800
00F800
00F800
00F800
00F800
00F800
00F800
00F800
00F800
00F800
00F800
7FFFF0
FFFFF8
FFFFF8
FFFFF8
7FFFF0
ENDCHAR
STARTCHAR 00D0
ENCODING 208
SWIDTH 600 0
DWIDTH 30 0
BBX 26 29 1 0
BITMAP
7FFF8000
FFFFE000
FFFFF800
FFFFFC00
7FFFFE00
1F00FF00
1F003F00
1F001F80
1F000F80
1F000F80
1F000FC0
1F0007C0
7FFC07C0
FFFE07C0
FFFE07C0
FFFE07C0
7FFC07C0
1F0007C0
1F0007C0
1F000FC0
1F000F80
1F001F80
1F003F80
1F007F00
7FFFFE00
FFFFFC00
FFFFF800
FFFFF000
7FFF8000
ENDCHAR
STARTCHAR 00D1
ENCODING 209
SWIDTH 600 0
DWIDTH 30 0
BBX 30 38 0 0
BITMAP
00700600
01FE0F00
03FFDF00
03FFFE00
0787FC00
0300F800
00000000
00000000
00000000
7F803FF8
FFC07FFC
FFE07FFC
FFE07FFC
7FF03FF8
0FF803E0
0FF803E0
0FFC03E0
0FFE03E0
0FFE03E0
0FBF03E0
0FBF83E0
0F9F83E0
0F8FC3E0
0F8FE3E0
0F87E3E0
0F83F3E0
0F83FBE0
0F81FBE0
0F80FFE0
0F80FFE0
0F807FE0
0F803FE0
0F803FE0
3FF81FE0
7FFC0FE0
7FFC0FE0
7FFC07E0
3FF803E0
ENDCHAR
STARTCHAR 00D2
ENCODING 210
SWIDTH 600 0
DWIDTH 30 0
BBX 28 40 1 0
BITMAP
00700000
00F80000
007C0000
003E0000
001F0000
000F8000
0007C000
00038000
00000000
00000000
00000000
007FE000
01FFF800
03FFFC00
0FFFFF00
0FFFFF80
1FC03F80
3F801FC0
3F000FC0
7E0007E0
7C0003E0
FC0003F0
F80001F0
F80001F0
F80001F0
F80001F0
F80001F0
F80001F0
F80001F0
FC0003F0
7C0003E0
7E0007E0
3F000FC0
3F801FC0
1FC03F80
0FFFFF00
0FFFFF00
03FFFC00
01FFF800
007FE000
ENDCHAR
STARTCHAR 00D3
ENCODING 211
SWIDTH 600 0
DWIDTH 30 0
BBX 28 40 1 0
BITMAP
0001C000
0003C000
0007C000
000F8000
001F0000
003E0000
003C0000
00380000
00000000
00000000
00000000
007FE000
01FFF800
03FFFC00
0FFFFF00
0FFFFF80
1FC03F80
3F801FC0
3F000FC0
7E0007E0
7C0003E0
FC0003F0
F80001F0
F80001F0
F80001F0
F80001F0
F80001F0
F80001F0
F80001F0
FC0003F0
7C0003E0
7E0007E0
3F000FC0
3F801FC0
1FC03F80
0FFFFF00
0FFFFF00
03FFFC00
01FFF800
007FE000
ENDCHAR
STARTCHAR 00D4
ENCODING 212
SWIDTH 600 0
DWIDTH 30 0
BBX 28 39 1 1
BITMAP
000F0000
001F8000
007FE000
00FFF000
03F9FC00
07E07E00
07801E00
02000400
00000000
00000000
007FE000
01FFF800
03FFFC00
0FFFFF00
0FFFFF80
1FC03F80
3F801FC0
3F000FC0
7E0007E0
7C0003E0
FC0003F0
F80001F0
F80001F0
F80001F0
F80001F0
F80001F0
F80001F0
F80001F0
FC0003F0
7C0003E0
7E0007E0
3F000FC0
3F801FC0
1FC03F80
0FFFFF00
0FFFFF00
03FFFC00
01FFF800
007FE000
ENDCHAR
STARTCHAR 00D5
ENCODING 213
SWIDTH 600 0
DWIDTH 30 0
BBX 28 38 1 0
BITMAP
00F00E00
03FE1E00
07FFFE00
07DFFC00
0707F800
0200F000
00000000
00000000
00000000
007FE000
01FFF800
03FFFC00
0FFFFF00
0FFFFF80
1FC03F80
3F801FC0
3F000FC0
7E0007E0
7C0003E0
FC0003F0
F80001F0
F80001F0
F80001F0
F80001F0
F80001F0
F80001F0
F80001F0
FC0003F0
7C0003E0
7E0007E0
3F000FC0
3F801FC0
1FC03F80
0FFFFF00
0FFFFF00
03FFFC00
01FFF800
007FE000
ENDCHAR
STARTCHAR 00D6
ENCODING 214
SWIDTH 600 0
DWIDTH 30 0
BBX 28 39 1 0
BITMAP
00C03000
01E07800
03F0FC00
03F0FC00
03F0FC00
01E07800
00000000
00000000
00000000
00000000
007FE000
01FFF800
03FFFC00
0FFFFF00
0FFFFF80
1FC03F80
3F801FC0
3F000FC0
7E0007E0
7C0003E0
FC0003F0
F80001F0
F80001F0
F80001F0
F80001F0
F80001F0
F80001F0
F80001F0
FC0003F0
7C0003E0
7E0007E0
3F000FC0
3F801FC0
1FC03F80
0FFFFF00
0FFFFF00
03FFFC00
01FFF800
007FE000
ENDCHAR
STARTCHAR 00D7
ENCODING 215
SWIDTH 600 0
DWIDTH 30 0
BBX 20 20 5 4
BITMAP
7000E0
F801F0
FC03F0
FE07F0
7F0FE0
3F9FC0
1FFF80
0FFF00
07FE00
03FC00
03FC00
07FE00
0FFF00
1FFF80
3F9FC0
7F0FE0
FE07F0
FC03F0
F801F0
7000E0
ENDCHAR
STARTCHAR 00D8
ENCODING 216
SWIDTH 600 0
DWIDTH 30 0
BBX 30 36 0 -4
BITMAP
00000030
00000078
000000FC
003FF1F8
00FFFDF8
01FFFFF0
07FFFFE0
07FFFFC0
0FE01FC0
1FC01FE0
1F803FE0
3F007FF0
3E00FDF0
7E00FDF8
7C01F8F8
7C03F0F8
7C07E0F8
7C0FC0F8
7C1FC0F8
7C1F80F8
7C3F00F8
7E7E01F8
3EFC01F0
3FF803F0
1FF807E0
1FF00FE0
0FE01FC0
0FFFFF80
1FFFFF80
1FFFFE00
3FFFFC00
7E3FF000
7C000000
FC000000
78000000
30000000
ENDCHAR
STARTCHAR 00D9
ENCODING 217
SWIDTH 600 0
DWIDTH 30 0
BBX 28 40 1 0
BITMAP
00700000
00F80000
007C0000
003E0000
001F0000
000F8000
0007C000
00038000
00000000
00000000
00000000
7FF0FFE0
FFF9FFF0
FFF9FFF0
FFF9FFF0
7FF0FFE0
1F000F80
1F000F80
1F000F80
1F000F80
1F000F80
1F000F80
1F000F80
1F000F80
1F000F80
1F000F80
1F000F80
1F000F80
1F000F80
1F000F80
1F000F80
1F000F80
1F801F80
0F801F00
0FE07F00
07FFFE00
07FFFE00
03FFFC00
00FFF000
007FE000
ENDCHAR
STARTCHAR 00DA
ENCODING 218
SWIDTH 600 0
DWIDTH 30 0
BBX 28 40 1 0
BITMAP
0001C000
0003C000
0007C000
000F8000
001F0000
003E0000
003C0000
00380000
00000000
00000000
00000000
7FF0FFE0
FFF9FFF0
FFF9FFF0
FFF9FFF0
7FF0FFE0
1F000F80
1F000F80
1F000F80
1F000F80
1F000F80
1F000F80
1F000F80
1F000F80
1F000F80
1F000F80
1F000F80
1F000F80
1F000F80
1F000F80
1F000F80
1F000F80
1F801F80
0F801F00
0FE07F00
07FFFE00
07FFFE00
03FFFC00
00FFF000
007FE000
ENDCHAR
STARTCHAR 00DB
ENCODING 219
SWIDTH 600 0
DWIDTH 30 0
BBX 28 39 1 1
BITMAP
000F0000
003FC000
007FE000
01FFF800
03F9FC00
07E07E00
07801E00
00000000
00000000
00000000
7FF0FFE0
FFF9FFF0
FFF9FFF0
FFF9FFF0
7FF0FFE0
1F000F80
1F000F80
1F000F80
1F000F80
1F000F80
1F000F80
1F000F80
1F000F80
1F000F80
1F000F80
1F000F80
1F000F80
1F000F80
1F000F80
1F000F80
1F000F80
1F801F80
0F801F00
0FE07F00
07FFFE00
07FFFE00
03FFFC00
00FFF000
007FE000
ENDCHAR
STARTCHAR 00DC
ENCODING 220
SWIDTH 600 0
DWIDTH 30 0
BBX 28 38 1 1
BITMAP
01E07800
03F0FC00
03F0FC00
03F0FC00
01E07800
00000000
00000000
00000000
00000000
7FF0FFE0
FFF9FFF0
FFF9FFF0
FFF9FFF0
7FF0FFE0
1F000F80
1F000F80
1F000F80
1F000F80
1F000F80
1F000F80
1F000F80
1F000F80
1F000F80
1F000F80
1F000F80
1F000F80
1F000F80
1F000F80
1F000F80
1F000F80
1F801F80
0F801F00
0FE07F00
07FFFE00
07FFFE00
03FFFC00
00FFF000
007FE000
ENDCHAR
STARTCHAR 00DD
ENCODING 221
SWIDTH 600 0
DWIDTH 30 0
BBX 28 40 1 0
BITMAP
0000C000
0001E000
0003E000
000FC000
001F8000
003F0000
003E0000
00380000
00000000
00000000
00000000
7FC03FE0
FFE07FF0
FFE07FF0
FFE07FF0
7FC03FE0
0FC01F80
0FC03F00
07E07E00
03E0FC00
03F1FC00
01FBF800
01FBF000
00FFE000
007FE000
007FC000
003F8000
001F0000
001F0000
001F0000
001F0000
001F0000
001F0000
001F0000
001F0000
03FFF800
07FFFC00
07FFFC00
07FFFC00
03FFF800
ENDCHAR
STARTCHAR 00DE
ENCODING 222
SWIDTH 600 0
DWIDTH 30 0
BBX 25 29 1 0
BITMAP
7FFF0000
FFFF8000
FFFF8000
FFFF8000
7FFF0000
0F800000
0FFC0000
0FFFF000
0FFFFC00
0FFFFE00
0FFFFF00
0F81FF80
0F801F80
0F800F80
0F800F80
0F800F80
0F803F80
0FFFFF00
0FFFFF00
0FFFFE00
0FFFFC00
0FFFE000
0F800000
0F800000
7FFF0000
FFFF8000
FFFF8000
FFFF8000
7FFF0000
ENDCHAR
STARTCHAR 00DF
ENCODING 223
SWIDTH 600 0
DWIDTH 30 0
BBX 25 32 1 -1
BITMAP
007E0000
01FF8000
03FFE000
07FFE000
07FFF000
0FC3F800
0F81F800
0F80F800
0F80F800
0F80F800
0F81F800
0F9FF000
0FBFF000
0FBFF000
0FBFF800
0F9FFC00
0F81FE00
0F807F00
0F803F00
0F801F80
0F800F80
0F800F80
0F800F80
0F800F80
0F870F80
0F8F8F80
7FCF9F80
FFEFFF00
FFEFFF00
FFE7FE00
7FC3FC00
0001F000
ENDCHAR
STARTCHAR 00E0
ENCODING 224
SWIDTH 600 0
DWIDTH 30 0
BBX 26 34 2 0
BITMAP
01C00000
01E00000
01F80000
00FC0000
007E0000
001F0000
000F0000
00060000
00000000
00000000
00000000
03FFC000
0FFFF000
1FFFF800
1FFFF800
1FFFFC00
0000FC00
00007C00
007C7C00
03FFFC00
0FFFFC00
1FFFFC00
3FFFFC00
7F00FC00
FC007C00
F8007C00
F8007C00
F801FC00
FC0FFF80
7FFFFFC0
7FFFFFC0
3FFFFFC0
1FFF7F80
07F80000
ENDCHAR
STARTCHAR 00E1
ENCODING 225
SWIDTH 600 0
DWIDTH 30 0
BBX 26 34 2 -1
BITMAP
00038000
00078000
000F8000
003F0000
007E0000
007C0000
00F80000
00600000
00000000
00000000
00000000
03FFC000
0FFFF000
1FFFF800
1FFFF800
1FFFFC00
0000FC00
00007C00
007C7C00
03FFFC00
0FFFFC00
1FFFFC00
3FFFFC00
7F00FC00
FC007C00
F8007C00
F8007C00
F801FC00
FC0FFF80
7FFFFFC0
7FFFFFC0
3FFFFFC0
1FFF7F80
07F80000
ENDCHAR
STARTCHAR 00E2
ENCODING 226
SWIDTH 600 0
DWIDTH 30 0
BBX 26 34 2 -1
BITMAP
001C0000
003E0000
00FF8000
01FFC000
07F7F000
0FC1F800
0F00F800
0E003800
00000000
00000000
00000000
03FFC000
0FFFF000
1FFFF800
1FFFF800
1FFFFC00
0000FC00
00007C00
007C7C00
03FFFC00
0FFFFC00
1FFFFC00
3FFFFC00
7F00FC00
FC007C00
F8007C00
F8007C00
F801FC00
FC0FFF80
7FFFFFC0
7FFFFFC0
3FFFFFC0
1FFF7F80
07F80000
ENDCHAR
STARTCHAR 00E3
ENCODING 227
SWIDTH 600 0
DWIDTH 30 0
BBX 26 32 2 -1
BITMAP
03E01800
07FC3C00
0FFFF800
1F3FF800
1E0FF000
0001C000
00000000
00000000
00000000
03FFC000
0FFFF000
1FFFF800
1FFFF800
1FFFFC00
0000FC00
00007C00
007C7C00
03FFFC00
0FFFFC00
1FFFFC00
3FFFFC00
7F00FC00
FC007C00
F8007C00
F8007C00
F801FC00
FC0FFF80
7FFFFFC0
7FFFFFC0
3FFFFFC0
1FFF7F80
07F80000
ENDCHAR
STARTCHAR 00E4
ENCODING 228
SWIDTH 600 0
DWIDTH 30 0
BBX 26 33 2 -1
BITMAP
01004000
07C1F000
07C1F000
07E1F800
07C1F000
07C1F000
00000000
00000000
00000000
00000000
03FFC000
0FFFF000
1FFFF800
1FFFF800
1FFFFC00
0000FC00
00007C00
007C7C00
03FFFC00
0FFFFC00
1FFFFC00
3FFFFC00
7F00FC00
FC007C00
F8007C00
F8007C00
F801FC00
FC0FFF80
7FFFFFC0
7FFFFFC0
3FFFFFC0
1FFF7F80
07F80000
ENDCHAR
STARTCHAR 00E5
ENCODING 229
SWIDTH 600 0
DWIDTH 30 0
BBX 26 34 2 -1
BITMAP
003E0000
007F0000
00FF8000
00E38000
01E3C000
00E3C000
00FF8000
007F0000
003E0000
00000000
00000000
03FFC000
0FFFF000
1FFFF800
1FFFF800
1FFFFC00
0000FC00
00007C00
007C7C00
03FFFC00
0FFFFC00
1FFFFC00
3FFFFC00
7F00FC00
FC007C00
F8007C00
F8007C00
F801FC00
FC0FFF80
7FFFFFC0
7FFFFFC0
3FFFFFC0
1FFF7F80
07F80000
ENDCHAR
STARTCHAR 00E6
ENCODING 230
SWIDTH 600 0
DWIDTH 30 0
BBX 31 23 -1 0
BITMAP
07FE1FC0
0FFF3FF0
1FFFFFF0
1FFFFFF8
1FFFFFFC
0407F07C
0007F03E
007FE03E
07FFFFFE
1FFFFFFE
3FFFFFFE
7FFFFFFE
FE07FFFE
F807E000
F807E000
F807E000
F80FF01C
FC3FF87E
7FFFFFFE
7FFFFFFE
3FFFFFFE
1FFFBFF8
07F00FC0
ENDCHAR
STARTCHAR 00E7
ENCODING 231
SWIDTH 600 0
DWIDTH 30 0
BBX 24 32 3 -9
BITMAP
01FFCF
07FFFF
0FFFFF
1FFFFF
3FFFFF
7F007F
7E003F
7C001F
FC001F
F8000E
F80000
F80000
F80000
F80000
FC0000
7C0003
7E000F
7F803F
3FFFFF
1FFFFF
0FFFFE
03FFF8
00FFC0
003E00
003F80
003F80
000380
0003C0
01FF80
01FF80
00FF00
003E00
ENDCHAR
STARTCHAR 00E8
ENCODING 232
SWIDTH 600 0
DWIDTH 30 0
BBX 26 34 2 0
BITMAP
01E00000
01F00000
00F80000
007C0000
003F0000
001F0000
000F8000
00070000
00000000
00000000
00000000
01FFC000
07FFF000
0FFFF800
1FFFFC00
3FFFFE00
7F007F00
7E003F00
FC001F80
F8000F80
FFFFFF80
FFFFFF80
FFFFFF80
FFFFFFC0
FFFFFFC0
F8000000
FC000000
7E000300
7F803F80
3FFFFF80
1FFFFF80
0FFFFF80
03FFFE00
007FE000
ENDCHAR
STARTCHAR 00E9
ENCODING 233
SWIDTH 600 0
DWIDTH 30 0
BBX 26 34 2 -1
BITMAP
00018000
0007C000
000FC000
001F8000
003E0000
007C0000
00780000
00700000
00000000
00000000
00000000
01FFC000
07FFF000
0FFFF800
1FFFFC00
3FFFFE00
7F007F00
7E003F00
FC001F80
F8000F80
FFFFFF80
FFFFFF80
FFFFFF80
FFFFFFC0
FFFFFFC0
F8000000
FC000000
7E000300
7F803F80
3FFFFF80
1FFFFF80
0FFFFF80
03FFFE00
007FE000
ENDCHAR
STARTCHAR 00EA
ENCODING 234
SWIDTH 600 0
DWIDTH 30 0
BBX 26 34 2 -1
BITMAP
001C0000
003E0000
00FF8000
01FFC000
07F7F000
0FC1F800
0F00F800
0E003800
00000000
00000000
00000000
01FFC000
07FFF000
0FFFF800
1FFFFC00
3FFFFE00
7F007F00
7E003F00
FC001F80
F8000F80
FFFFFF80
FFFFFF80
FFFFFF80
FFFFFFC0
FFFFFFC0
F8000000
FC000000
7E000300
7F803F80
3FFFFF80
1FFFFF80
0FFFFF80
03FFFE00
007FE000
ENDCHAR
STARTCHAR 00EB
ENCODING 235
SWIDTH 600 0
DWIDTH 30 0
BBX 26 32 2 0
BITMAP
07C1F000
07C1F000
07E1F800
07C1F000
07C1F000
00000000
00000000
00000000
00000000
01FFC000
07FFF000
0FFFF800
1FFFFC00
3FFFFE00
7F007F00
7E003F00
FC001F80
F8000F80
FFFFFF80
FFFFFF80
FFFFFF80
FFFFFFC0
FFFFFFC0
F8000000
FC000000
7E000300
7F803F80
3FFFFF80
1FFFFF80
0FFFFF80
03FFFE00
007FE000
ENDCHAR
STARTCHAR 00EC
ENCODING 236
SWIDTH 600 0
DWIDTH 30 0
BBX 23 33 4 1
BITMAP
070000
078000
07E000
03F000
01F800
007C00
003C00
001800
000000
000000
000000
1FFC00
3FFC00
3FFC00
3FFC00
1FFC00
007C00
007C00
007C00
007C00
007C00
007C00
007C00
007C00
007C00
007C00
007C00
007C00
7FFFFC
FFFFFE
FFFFFE
FFFFFE
7FFFFC
ENDCHAR
STARTCHAR 00ED
ENCODING 237
SWIDTH 600 0
DWIDTH 30 0
BBX 23 33 4 0
BITMAP
001C00
003E00
007C00
00F800
01F000
03E000
03C000
018000
000000
000000
000000
1FFC00
3FFC00
3FFC00
3FFC00
1FFC00
007C00
007C00
007C00
007C00
007C00
007C00
007C00
007C00
007C00
007C00
007C00
007C00
7FFFFC
FFFFFE
FFFFFE
FFFFFE
7FFFFC
ENDCHAR
STARTCHAR 00EE
ENCODING 238
SWIDTH 600 0
DWIDTH 30 0
BBX 23 33 4 0
BITMAP
007000
00F800
03FE00
07FF00
1FDFC0
3F07E0
3C03E0
3800E0
000000
000000
000000
1FFC00
3FFC00
3FFC00
3FFC00
1FFC00
007C00
007C00
007C00
007C00
007C00
007C00
007C00
007C00
007C00
007C00
007C00
007C00
7FFFFC
FFFFFE
FFFFFE
FFFFFE
7FFFFC
ENDCHAR
STARTCHAR 00EF
ENCODING 239
SWIDTH 600 0
DWIDTH 30 0
BBX 23 32 4 0
BITMAP
060180
0F03C0
1F87E0
1F87E0
1F87E0
0F03C0
000000
000000
000000
000000
1FFC00
3FFC00
3FFC00
3FFC00
1FFC00
007C00
007C00
007C00
007C00
007C00
007C00
007C00
007C00
007C00
007C00
007C00
007C00
7FFFFC
FFFFFE
FFFFFE
FFFFFE
7FFFFC
ENDCHAR
STARTCHAR 00F0
ENCODING 240
SWIDTH 600 0
DWIDTH 30 0
BBX 26 34 2 -1
BITMAP
00002000
07C0F000
0FF3F000
07FFE000
01FF8000
00FFC000
03FFE000
07E3F000
0781F800
0600FC00
00007E00
01FFBE00
07FFFF00
0FFFFF00
1FFFFF80
3FE1FF80
3F003F80
7E001FC0
7C000FC0
FC000FC0
F80007C0
F80007C0
F80007C0
F80007C0
F80007C0
FC000F80
7E001F80
7F003F80
3FC0FF00
1FFFFE00
0FFFFC00
07FFF800
03FFE000
007F8000
ENDCHAR
STARTCHAR 00F1
ENCODING 241
SWIDTH 600 0
DWIDTH 30 0
BBX 26 32 2 0
BITMAP
01E00800
07F83C00
0FFF7C00
0FFFF800
0E0FF000
0C03E000
00000000
00000000
00000000
00000000
7F3FE000
FF7FF000
FFFFF800
FFFFFC00
7FFFFC00
1FE07E00
1F803E00
1F003E00
1F003E00
1F003E00
1F003E00
1F003E00
1F003E00
1F003E00
1F003E00
1F003E00
1F003E00
7FE0FF80
FFF1FFC0
FFF1FFC0
FFF1FFC0
7FE0FF80
ENDCHAR
STARTCHAR 00F2
ENCODING 242
SWIDTH 600 0
DWIDTH 30 0
BBX 26 34 2 0
BITMAP
01E00000
01F00000
00F80000
007C0000
003E0000
001F0000
000F0000
00070000
00000000
00000000
00000000
00FFC000
03FFF000
0FFFFC00
1FFFFE00
3FFFFF00
3F807F00
7E001F80
7C000F80
FC000FC0
F80007C0
F80007C0
F80007C0
F80007C0
F80007C0
FC000FC0
7E001F80
7F003F80
3FC0FF00
1FFFFE00
0FFFFC00
07FFF800
03FFF000
007F8000
ENDCHAR
STARTCHAR 00F3
ENCODING 243
SWIDTH 600 0
DWIDTH 30 0
BBX 26 34 2 -1
BITMAP
00038000
0007C000
000F8000
001F0000
003E0000
007C0000
00780000
00300000
00000000
00000000
00000000
00FFC000
03FFF000
0FFFFC00
1FFFFE00
3FFFFF00
3F807F00
7E001F80
7C000F80
FC000FC0
F80007C0
F80007C0
F80007C0
F80007C0
F80007C0
FC000FC0
7E001F80
7F003F80
3FC0FF00
1FFFFE00
0FFFFC00
07FFF800
03FFF000
007F8000
ENDCHAR
STARTCHAR 00F4
ENCODING 244
SWIDTH 600 0
DWIDTH 30 0
BBX 26 34 2 -1
BITMAP
001C0000
003E0000
00FF8000
01FFC000
07F7F000
0FC1F800
0F00F800
0E003800
00000000
00000000
00000000
00FFC000
03FFF000
0FFFFC00
1FFFFE00
3FFFFF00
3F807F00
7E001F80
7C000F80
FC000FC0
F80007C0
F80007C0
F80007C0
F80007C0
F80007C0
FC000FC0
7E001F80
7F003F80
3FC0FF00
1FFFFE00
0FFFFC00
07FFF800
03FFF000
007F8000
ENDCHAR
STARTCHAR 00F5
ENCODING 245
SWIDTH 600 0
DWIDTH 30 0
BBX 26 33 2 -1
BITMAP
01E01800
07F83C00
0FFFFC00
0FFFF800
1E0FF000
0C03E000
00000000
00000000
00000000
00000000
00FFC000
03FFF000
0FFFFC00
1FFFFE00
3FFFFF00
3F807F00
7E001F80
7C000F80
FC000FC0
F80007C0
F80007C0
F80007C0
F80007C0
F80007C0
FC000FC0
7E001F80
7F003F80
3FC0FF00
1FFFFE00
0FFFFC00
07FFF800
03FFF000
007F8000
ENDCHAR
STARTCHAR 00F6
ENCODING 246
SWIDTH 600 0
DWIDTH 30 0
BBX 26 32 2 0
BITMAP
03C0F000
07E1F800
07E1F800
07E1F800
03C0F000
00000000
00000000
00000000
00000000
00FFC000
03FFF000
0FFFFC00
1FFFFE00
3FFFFF00
3F807F00
7E001F80
7C000F80
FC000FC0
F80007C0
F80007C0
F80007C0
F80007C0
F80007C0
FC000FC0
7E001F80
7F003F80
3FC0FF00
1FFFFE00
0FFFFC00
07FFF800
03FFF000
007F8000
ENDCHAR
STARTCHAR 00F7
ENCODING 247
SWIDTH 600 0
DWIDTH 30 0
BBX 26 26 2 1
BITMAP
00080000
003F0000
007F0000
007F0000
007F0000
003F0000
001E0000
00000000
00000000
00000000
7FFFFF80
FFFFFFC0
FFFFFFC0
FFFFFFC0
7FFFFF80
00000000
00000000
00000000
00000000
00080000
003F0000
007F0000
007F0000
007F0000
003F0000
001E0000
ENDCHAR
STARTCHAR 00F8
ENCODING 248
SWIDTH 600 0
DWIDTH 30 0
BBX 28 28 1 -3
BITMAP
00000040
000001F0
000003F0
007FE7F0
01FFFFE0
07FFFFC0
0FFFFF80
1FFFFF80
1FC0FF80
3F01FFC0
3E03FFC0
7E07F7E0
7C0FE3E0
7C1FC3E0
7C1F83E0
7C3F03E0
7C7E03E0
7EFC07E0
3FF80FC0
3FF01FC0
1FE07F80
0FFFFF00
1FFFFE00
3FFFFC00
7FFFF800
FC3FC000
F8000000
70000000
ENDCHAR
STARTCHAR 00F9
ENCODING 249
SWIDTH 600 0
DWIDTH 30 0
BBX 27 33 1 1
BITMAP
00F00000
00F80000
007C0000
003E0000
001F0000
000F8000
00078000
00038000
00000000
00000000
00000000
7F81FF00
FF83FF00
FF83FF00
FF83FF00
7F81FF00
0F801F00
0F801F00
0F801F00
0F801F00
0F801F00
0F801F00
0F801F00
0F801F00
0F801F00
0F801F00
0F803F00
0FC0FF00
07FFFFC0
07FFFFE0
03FFFFE0
01FFDFE0
00FF9FC0
ENDCHAR
STARTCHAR 00FA
ENCODING 250
SWIDTH 600 0
DWIDTH 30 0
BBX 27 33 1 0
BITMAP
0001C000
0003C000
000FC000
001F8000
003F0000
007E0000
00780000
00300000
00000000
00000000
00000000
7F81FF00
FF83FF00
FF83FF00
FF83FF00
7F81FF00
0F801F00
0F801F00
0F801F00
0F801F00
0F801F00
0F801F00
0F801F00
0F801F00
0F801F00
0F801F00
0F803F00
0FC0FF00
07FFFFC0
07FFFFE0
03FFFFE0
01FFDFE0
00FF9FC0
ENDCHAR
STARTCHAR 00FB
ENCODING 251
SWIDTH 600 0
DWIDTH 30 0
BBX 27 33 1 0
BITMAP
000E0000
001F0000
007FC000
00FFE000
03FBF800
07E0FC00
07807C00
07001C00
00000000
00000000
00000000
7F81FF00
FF83FF00
FF83FF00
FF83FF00
7F81FF00
0F801F00
0F801F00
0F801F00
0F801F00
0F801F00
0F801F00
0F801F00
0F801F00
0F801F00
0F801F00
0F803F00
0FC0FF00
07FFFFC0
07FFFFE0
03FFFFE0
01FFDFE0
00FF9FC0
ENDCHAR
STARTCHAR 00FC
ENCODING 252
SWIDTH 600 0
DWIDTH 30 0
BBX 27 32 1 0
BITMAP
00C03000
03E0F800
03F0FC00
03F0FC00
03F0FC00
01E07800
00000000
00000000
00000000
00000000
7F81FF00
FF83FF00
FF83FF00
FF83FF00
7F81FF00
0F801F00
0F801F00
0F801F00
0F801F00
0F801F00
0F801F00
0F801F00
0F801F00
0F801F00
0F801F00
0F803F00
0FC0FF00
07FFFFC0
07FFFFE0
03FFFFE0
01FFDFE0
00FF9FC0
ENDCHAR
STARTCHAR 00FD
ENCODING 253
SWIDTH 600 0
DWIDTH 30 0
BBX 28 44 1 -10
BITMAP
00003000
0000F000
0001F000
0003F000
0007C000
000F8000
000F0000
000E0000
00000000
00000000
00000000
00000000
7FC03FE0
FFE07FF0
FFE07FF0
FFE07FF0
7FC03FE0
1F000F80
1F801F80
0F801F00
0FC03F00
07E03E00
07E07E00
03F07C00
03F0FC00
01F9F800
01F9F800
00FFF000
00FFF000
007FE000
007FC000
003FC000
003F8000
001F8000
001F0000
003F0000
003E0000
007E0000
007C0000
7FFF0000
FFFF8000
FFFF8000
FFFF8000
7FFF0000
ENDCHAR
STARTCHAR 00FE
ENCODING 254
SWIDTH 600 0
DWIDTH 30 0
BBX 29 41 0 -10
BITMAP
7F800000
FF800000
FF800000
FF800000
7F800000
0F800000
0F800000
0F800000
0F800000
0F8FFC00
0FBFFF00
0FFFFF80
0FFFFFC0
0FFFFFE0
0FF007F0
0FE003F0
0FC001F8
0F8000F8
0F8000F8
0F8000F8
0F8000F8
0FC001F8
0FC001F8
0FE003F0
0FF80FF0
0FFFFFE0
0FFFFFC0
0FFFFF80
0F9FFE00
0F87F800
0F800000
0F800000
0F800000
0F800000
0F800000
0F800000
7FFC0000
FFFE0000
FFFE0000
FFFE0000
7FFC0000
ENDCHAR
STARTCHAR 00FF
ENCODING 255
SWIDTH 600 0
DWIDTH 30 0
BBX 28 41 1 -9
BITMAP
01E07800
03F0FC00
03F0FC00
03F0FC00
01E07800
00000000
00000000
00000000
00000000
7FC03FE0
FFE07FF0
FFE07FF0
FFE07FF0
7FC03FE0
1F000F80
1F801F80
0F801F00
0FC03F00
07E03E00
07E07E00
03F07C00
03F0FC00
01F9F800
01F9F800
00FFF000
00FFF000
007FE000
007FC000
003FC000
003F8000
001F8000
001F0000
003F0000
003E0000
007E0000
007C0000
7FFF0000
FFFF8000
FFFF8000
FFFF8000
7FFF0000
ENDCHAR
STARTCHAR 0100
ENCODING 256
SWIDTH 600 0
DWIDTH 30 0
BBX 32 37 -1 0
BITMAP
01FFF000
07FFFC00
07FFFC00
07FFFC00
00000000
00000000
00000000
00000000
07FFC000
07FFE000
07FFE000
07FFF000
03FFF000
001FF000
003FF800
003EF800
003EFC00
007E7C00
007C7E00
00FC3E00
00F83E00
00F83F00
01F81F00
01F01F80
03FFFF80
03FFFF80
03FFFFC0
07FFFFC0
07FFFFE0
0FC007E0
0F8003F0
0F8003F0
7FF01FFC
FFF83FFE
FFF83FFF
FFF83FFE
7FF01FFC
ENDCHAR
STARTCHAR 0101
ENCODING 257
SWIDTH 600 0
DWIDTH 30 0
BBX 26 31 2 -1
BITMAP
07FFF800
0FFFFC00
0FFFFC00
07FFF800
00000000
00000000
00000000
00000000
03FFC000
0FFFF000
1FFFF800
1FFFF800
1FFFFC00
0000FC00
00007C00
007C7C00
03FFFC00
0FFFFC00
1FFFFC00
3FFFFC00
7F00FC00
FC007C00
F8007C00
F8007C00
F801FC00
FC0FFF80
7FFFFFC0
7FFFFFC0
3FFFFFC0
1FFF7F80
07F80000
ENDCHAR
STARTCHAR 0102
ENCODING 258
SWIDTH 600 0
DWIDTH 30 0
BBX 32 40 -1 0
BITMAP
00800200
01C00700
01E00780
01F01F00
00FFFF00
007FFE00
001FF800
0003C000
00000000
00000000
00000000
07FFC000
07FFE000
07FFE000
07FFF000
03FFF000
001FF000
003FF800
003EF800
003EFC00
007E7C00
007C7E00
00FC3E00
00F83E00
00F83F00
01F81F00
01F01F80
03FFFF80
03FFFF80
03FFFFC0
07FFFFC0
07FFFFE0
0FC007E0
0F8003F0
0F8003F0
7FF01FFC
FFF83FFE
FFF83FFF
FFF83FFE
7FF01FFC
ENDCHAR
STARTCHAR 0103
ENCODING 259
SWIDTH 600 0
DWIDTH 30 0
BBX 26 34 2 -1
BITMAP
06001800
0E003800
0F007800
0F80F800
07FFF000
03FFE000
00FFC000
00080000
00000000
00000000
00000000
03FFC000
0FFFF000
1FFFF800
1FFFF800
1FFFFC00
0000FC00
00007C00
007C7C00
03FFFC00
0FFFFC00
1FFFFC00
3FFFFC00
7F00FC00
FC007C00
F8007C00
F8007C00
F801FC00
FC0FFF80
7FFFFFC0
7FFFFFC0
3FFFFFC0
1FFF7F80
07F80000
ENDCHAR
STARTCHAR 0104
ENCODING 260
SWIDTH 600 0
DWIDTH 30 0
BBX 32 39 -1 -10
BITMAP
07FFC000
07FFE000
07FFE000
07FFF000
03FFF000
001FF800
003FF800
003EF800
003EFC00
007E7C00
007C7E00
00FC3E00
00F83E00
00F83F00
01F81F00
01F01F80
03FFFF80
03FFFFC0
03FFFFC0
07FFFFC0
07FFFFE0
0FC003E0
0F8003F0
0F8001F0
7FF01FFE
FFF83FFE
FFF83FFF
FFF83FFE
7FF01FFC
000000F8
000001E0
000003C0
00000780
00000780
0000078C
000007FE
000007FE
000003FC
000001F0
ENDCHAR
STARTCHAR 0105
ENCODING 261
SWIDTH 600 0
DWIDTH 30 0
BBX 26 32 2 -9
BITMAP
03FFC000
0FFFF000
1FFFF800
1FFFF800
1FFFFC00
0000FC00
00007C00
003C7C00
03FFFC00
0FFFFC00
1FFFFC00
3FFFFC00
7F80FC00
FE007C00
F8007C00
F8007C00
F801FC00
FC0FFF80
7FFFFFC0
7FFFFFC0
3FFFFFC0
1FFF7F80
07F81F00
00003E00
00007800
0000F000
0000F000
0000F180
0000FFC0
0000FFC0
00007F80
00003E00
ENDCHAR
STARTCHAR 0106
ENCODING 262
SWIDTH 600 0
DWIDTH 30 0
BBX 27 40 2 0
BITMAP
0000E000
0001F000
0003E000
0007C000
000F8000
001F0000
001E0000
000C0000
00000000
00000000
00000000
00FFE380
03FFFFC0
07FFFFC0
0FFFFFC0
1FFFFFC0
3FC03FC0
3F000FC0
7E0007C0
7C0007C0
FC0007C0
F8000380
F8000000
F8000000
F8000000
F8000000
F8000000
F8000000
F8000000
F8000000
FC000000
7C000000
7E000000
7F0003C0
3FC00FE0
1FFFFFE0
0FFFFFC0
07FFFF80
03FFFF00
007FF800
ENDCHAR
STARTCHAR 0107
ENCODING 263
SWIDTH 600 0
DWIDTH 30 0
BBX 25 34 3 -1
BITMAP
00038000
0007C000
000F8000
001F8000
003E0000
007C0000
00780000
00300000
00000000
00000000
00000000
01FFEE00
07FFFF00
0FFFFF00
1FFFFF00
3FFFFF00
7F007F00
7E001F00
7C001F00
FC001F00
F8000E00
F8000000
F8000000
F8000000
F8000000
FC000000
7C000300
7E000F80
7F803F80
3FFFFF80
1FFFFF00
0FFFFE00
03FFFC00
007FC000
ENDCHAR
STARTCHAR 0108
ENCODING 264
SWIDTH 600 0
DWIDTH 30 0
BBX 27 40 2 0
BITMAP
00040000
001E0000
003F8000
00FFC000
01FFF000
07F1F800
0FC0FC00
07003C00
00000800
00000000
00000000
00FFE380
03FFFFC0
07FFFFC0
0FFFFFC0
1FFFFFC0
3FC03FC0
3F000FC0
7E0007C0
7C0007C0
FC0007C0
F8000380
F8000000
F8000000
F8000000
F8000000
F8000000
F8000000
F8000000
F8000000
FC000000
7C000000
7E000000
7F0003C0
3FC00FE0
1FFFFFE0
0FFFFFC0
07FFFF80
03FFFF00
007FF800
ENDCHAR
STARTCHAR 0109
ENCODING 265
SWIDTH 600 0
DWIDTH 30 0
BBX 25 34 3 -1
BITMAP
00080000
003E0000
00FF8000
01FFC000
07F7F000
0FE1F800
0F80F800
0E003800
00000000
00000000
00000000
01FFEE00
07FFFF00
0FFFFF00
1FFFFF00
3FFFFF00
7F007F00
7E001F00
7C001F00
FC001F00
F8000E00
F8000000
F8000000
F8000000
F8000000
FC000000
7C000300
7E000F80
7F803F80
3FFFFF80
1FFFFF00
0FFFFE00
03FFFC00
007FC000
ENDCHAR
STARTCHAR 010A
ENCODING 266
SWIDTH 600 0
DWIDTH 30 0
BBX 27 39 2 0
BITMAP
001E0000
001F0000
003F0000
003F0000
001F0000
000E0000
00000000
00000000
00000000
00000000
00FFE380
03FFFFC0
07FFFFC0
0FFFFFC0
1FFFFFC0
3FC03FC0
3F000FC0
7E0007C0
7C0007C0
FC0007C0
F8000380
F8000000
F8000000
F8000000
F8000000
F8000000
F8000000
F8000000
F8000000
FC000000
7C000000
7E000000
7F0003C0
3FC00FE0
1FFFFFE0
0FFFFFC0
07FFFF80
03FFFF00
007FF800
ENDCHAR
STARTCHAR 010B
ENCODING 267
SWIDTH 600 0
DWIDTH 30 0
BBX 25 33 3 -1
BITMAP
00080000
003E0000
003E0000
003F0000
003E0000
003E0000
00000000
00000000
00000000
00000000
01FFEE00
07FFFF00
0FFFFF00
1FFFFF00
3FFFFF00
7F007F00
7E001F00
7C001F00
FC001F00
F8000E00
F8000000
F8000000
F8000000
F8000000
FC000000
7C000300
7E000F80
7F803F80
3FFFFF80
1FFFFF00
0FFFFE00
03FFFC00
007FC000
ENDCHAR
STARTCHAR 010C
ENCODING 268
SWIDTH 600 0
DWIDTH 30 0
BBX 27 40 2 1
BITMAP
07003C00
0FC0FC00
07F1F800
03FFF000
00FFC000
003F8000
001E0000
00040000
00000000
00000000
003F8000
01FFF780
03FFFFC0
0FFFFFC0
1FFFFFC0
1FE07FC0
3F801FC0
7F000FC0
7E0007C0
7C0007C0
FC000780
F8000000
F8000000
F8000000
F8000000
F8000000
F8000000
F8000000
F8000000
F8000000
FC000000
7C000000
7E0001C0
3F8007C0
3FE01FE0
1FFFFFC0
0FFFFFC0
03FFFF00
01FFFE00
003FF000
ENDCHAR
STARTCHAR 010D
ENCODING 269
SWIDTH 600 0
DWIDTH 30 0
BBX 25 35 3 -1
BITMAP
0C003800
0F00F800
0FC1F800
07F7F000
03FFC000
00FF8000
003E0000
00180000
00000000
00000000
00000000
00000000
01FFEE00
07FFFF00
0FFFFF00
1FFFFF00
3FFFFF00
7F007F00
7E001F00
7C001F00
FC001F00
F8000E00
F8000000
F8000000
F8000000
F8000000
FC000000
7C000300
7E000F80
7F803F80
3FFFFF80
1FFFFF00
0FFFFE00
03FFFC00
007FC000
ENDCHAR
STARTCHAR 010E
ENCODING 270
SWIDTH 600 0
DWIDTH 30 0
BBX 26 40 1 1
BITMAP
07003C00
0FC0FC00
07F1F800
03FFF000
00FFC000
003F8000
001E0000
00040000
00000000
00000000
00000000
7FFF8000
FFFFE000
FFFFF800
FFFFFC00
7FFFFE00
1F00FF00
1F003F00
1F001F80
1F000F80
1F000F80
1F000FC0
1F0007C0
1F0007C0
1F0007C0
1F0007C0
1F0007C0
1F0007C0
1F0007C0
1F0007C0
1F000FC0
1F000F80
1F001F80
1F003F80
1F007F00
7FFFFE00
FFFFFC00
FFFFF800
FFFFF000
7FFF8000
ENDCHAR
STARTCHAR 010F
ENCODING 271
SWIDTH 600 0
DWIDTH 30 0
BBX 34 31 0 0
BITMAP
00007F8000
0000FF81C0
0000FF83C0
0000FF87C0
00007F8F80
00000FBF00
00000FBE00
00000FBC00
00000FB800
01FFCF8000
07FFFF8000
0FFFFF8000
1FFFFF8000
3FFFFF8000
3F807F8000
7E003F8000
7C001F8000
7C000F8000
FC000F8000
F8000F8000
F8000F8000
F8000F8000
7C000F8000
7C001F8000
7E003F8000
3F807F8000
3FFFFFF000
1FFFFFF800
0FFFFFF800
07FFFFF800
01FFCFF000
ENDCHAR
STARTCHAR 0110
ENCODING 272
SWIDTH 600 0
DWIDTH 30 0
BBX 26 29 1 0
BITMAP
7FFF8000
FFFFE000
FFFFF800
FFFFFC00
7FFFFE00
1F00FF00
1F003F00
1F001F80
1F000F80
1F000F80
1F000FC0
1F0007C0
7FFC07C0
FFFE07C0
FFFE07C0
FFFE07C0
7FFC07C0
1F0007C0
1F0007C0
1F000FC0
1F000F80
1F001F80
1F003F80
1F007F00
7FFFFE00
FFFFFC00
FFFFF800
FFFFF000
7FFF8000
ENDCHAR
STARTCHAR 0111
ENCODING 273
SWIDTH 600 0
DWIDTH 30 0
BBX 29 32 1 -1
BITMAP
00007F80
0000FF80
0000FF80
0000FF80
00007F80
00000F80
00000FF0
00000FF8
00000FF8
01FF8FF8
07FFEFF0
0FFFFF80
1FFFFF80
3FFFFF80
3F80FF80
7E003F80
7C001F80
FC001F80
F8000F80
F8000F80
F8000F80
F8000F80
F8000F80
FC001F80
7C001F80
7E003F80
3F80FFF0
3FFFFFF8
1FFFFFF8
0FFFFFF8
03FFEFF0
00FF0000
ENDCHAR
STARTCHAR 0112
ENCODING 274
SWIDTH 600 0
DWIDTH 30 0
BBX 26 37 1 0
BITMAP
00FFF800
03FFFE00
03FFFE00
03FFFE00
00000000
00000000
00000000
00000000
7FFFFF80
FFFFFF80
FFFFFF80
FFFFFF80
7FFFFF80
0F800F80
0F800F80
0F800F80
0F838F80
0F87CF80
0F87C700
0F87C000
0FFFC000
0FFFC000
0FFFC000
0FFFC000
0FFFC000
0F87C000
0F87C380
0F87C7C0
0F8007C0
0F8007C0
0F8007C0
0F8007C0
7FFFFFC0
FFFFFFC0
FFFFFFC0
FFFFFFC0
7FFFFFC0
ENDCHAR
STARTCHAR 0113
ENCODING 275
SWIDTH 600 0
DWIDTH 30 0
BBX 26 31 2 -1
BITMAP
07FFF800
0FFFFC00
0FFFFC00
07FFF800
00000000
00000000
00000000
00000000
01FFC000
07FFF000
0FFFF800
1FFFFC00
3FFFFE00
7F007F00
7E003F00
FC001F80
F8000F80
FFFFFF80
FFFFFF80
FFFFFF80
FFFFFFC0
FFFFFFC0
F8000000
FC000000
7E000300
7F803F80
3FFFFF80
1FFFFF80
0FFFFF80
03FFFE00
007FE000
ENDCHAR
STARTCHAR 0114
ENCODING 276
SWIDTH 600 0
DWIDTH 30 0
BBX 26 40 1 0
BITMAP
02000800
07001C00
07801E00
07C07C00
03FFFC00
01FFF800
007FE000
000F0000
00000000
00000000
00000000
7FFFFF80
FFFFFF80
FFFFFF80
FFFFFF80
7FFFFF80
0F800F80
0F800F80
0F800F80
0F838F80
0F87CF80
0F87C700
0F87C000
0FFFC000
0FFFC000
0FFFC000
0FFFC000
0FFFC000
0F87C000
0F87C380
0F87C7C0
0F8007C0
0F8007C0
0F8007C0
0F8007C0
7FFFFFC0
FFFFFFC0
FFFFFFC0
FFFFFFC0
7FFFFFC0
ENDCHAR
STARTCHAR 0115
ENCODING 277
SWIDTH 600 0
DWIDTH 30 0
BBX 26 34 2 -1
BITMAP
06001800
0E003800
0F007800
0F80F800
07FFF000
03FFE000
00FFC000
00080000
00000000
00000000
00000000
01FFC000
07FFF000
0FFFF800
1FFFFC00
3FFFFE00
7F007F00
7E003F00
FC001F80
F8000F80
FFFFFF80
FFFFFF80
FFFFFF80
FFFFFFC0
FFFFFFC0
F8000000
FC000000
7E000300
7F803F80
3FFFFF80
1FFFFF80
0FFFFF80
03FFFE00
007FE000
ENDCHAR
STARTCHAR 0116
ENCODING 278
SWIDTH 600 0
DWIDTH 30 0
BBX 26 38 1 0
BITMAP
00060000
000F8000
001F8000
001F8000
001F8000
000F0000
00000000
00000000
00000000
7FFFFF80
FFFFFF80
FFFFFF80
FFFFFF80
7FFFFF80
0F800F80
0F800F80
0F800F80
0F838F80
0F87CF80
0F87C700
0F87C000
0FFFC000
0FFFC000
0FFFC000
0FFFC000
0FFFC000
0F87C000
0F87C380
0F87C7C0
0F8007C0
0F8007C0
0F8007C0
0F8007C0
7FFFFFC0
FFFFFFC0
FFFFFFC0
FFFFFFC0
7FFFFFC0
ENDCHAR
STARTCHAR 0117
ENCODING 279
SWIDTH 600 0
DWIDTH 30 0
BBX 26 33 2 -1
BITMAP
00080000
003E0000
003E0000
003F0000
003E0000
003E0000
00000000
00000000
00000000
00000000
01FFC000
07FFF000
0FFFF800
1FFFFC00
3FFFFE00
7F007F00
7E003F00
FC001F80
F8000F80
FFFFFF80
FFFFFF80
FFFFFF80
FFFFFFC0
FFFFFFC0
F8000000
FC000000
7E000300
7F803F80
3FFFFF80
1FFFFF80
0FFFFF80
03FFFE00
007FE000
ENDCHAR
STARTCHAR 0118
ENCODING 280
SWIDTH 600 0
DWIDTH 30 0
BBX 28 39 1 -10
BITMAP
7FFFFF80
FFFFFF80
FFFFFF80
FFFFFF80
7FFFFF80
0F800F80
0F800F80
0F800F80
0F838F80
0F87CF80
0F87C700
0F87C000
0FFFC000
0FFFC000
0FFFC000
0FFFC000
0FFFC000
0F87C000
0F87C000
0F83C380
0F8007C0
0F8007C0
0F8007C0
0F8007C0
7FFFFFC0
FFFFFFC0
FFFFFFC0
FFFFFFC0
7FFFFFC0
00000780
00001F00
00001E00
00003C00
00003C00
00003C60
00003FF0
00003FF0
00001FE0
00000F80
ENDCHAR
STARTCHAR 0119
ENCODING 281
SWIDTH 600 0
DWIDTH 30 0
BBX 25 32 2 -9
BITMAP
01FFC000
07FFE000
0FFFF800
1FFFFC00
3FFFFE00
7F007E00
7E003F00
7C001F00
F8000F00
FFFFFF80
FFFFFF80
FFFFFF80
FFFFFF80
FFFFFF80
F8000000
7C000000
7E000F00
3F807F80
3FFFFF80
1FFFFF80
0FFFFF00
03FFFC00
007FF000
0003C000
00078000
000F0000
000F0000
000F1800
000FFC00
000FFC00
0007F800
0003E000
ENDCHAR
STARTCHAR 011A
ENCODING 282
SWIDTH 600 0
DWIDTH 30 0
BBX 26 40 1 1
BITMAP
03801E00
07E07E00
03F8FC00
01FFF800
007FE000
001FC000
000F0000
00020000
00000000
00000000
00000000
7FFFFF80
FFFFFF80
FFFFFF80
FFFFFF80
7FFFFF80
0F800F80
0F800F80
0F800F80
0F838F80
0F87CF80
0F87C700
0F87C000
0FFFC000
0FFFC000
0FFFC000
0FFFC000
0FFFC000
0F87C000
0F87C380
0F87C7C0
0F8007C0
0F8007C0
0F8007C0
0F8007C0
7FFFFFC0
FFFFFFC0
FFFFFFC0
FFFFFFC0
7FFFFFC0
ENDCHAR
STARTCHAR 011B
ENCODING 283
SWIDTH 600 0
DWIDTH 30 0
BBX 26 35 2 -1
BITMAP
06001800
0F807C00
0FE1F800
07F7F000
01FFE000
00FF8000
003F0000
000C0000
00000000
00000000
00000000
00000000
01FFC000
07FFF000
0FFFF800
1FFFFC00
3FFFFE00
7F007F00
7E003F00
FC001F80
F8000F80
FFFFFF80
FFFFFF80
FFFFFF80
FFFFFFC0
FFFFFFC0
F8000000
FC000000
7E000300
7F803F80
3FFFFF80
1FFFFF80
0FFFFF80
03FFFE00
007FE000
ENDCHAR
STARTCHAR 011C
ENCODING 284
SWIDTH 600 0
DWIDTH 30 0
BBX 27 40 2 0
BITMAP
00040000
000F0000
003F8000
00FFE000
01FFF000
07F1FC00
07C07C00
07001C00
00000000
00000000
00000000
00FFE780
03FFFF80
07FFFF80
0FFFFF80
1FFFFF80
3F803F80
3F000F80
7E000F80
7C000F80
FC000700
F8000000
F8000000
F8000000
F8000000
F8000000
F807FFC0
F80FFFE0
F80FFFE0
F80FFFE0
F807FFC0
FC000F80
7C000F80
7E000F80
3F800F80
3FFFFF80
1FFFFF80
0FFFFF80
03FFFE00
00FFF000
ENDCHAR
STARTCHAR 011D
ENCODING 285
SWIDTH 600 0
DWIDTH 30 0
BBX 27 43 2 -10
BITMAP
001C0000
003E0000
00FF8000
01FFC000
07F7F000
0FC1F800
0F00F800
0E003800
00000000
00000000
00000000
01FF3FC0
07FFBFE0
0FFFFFE0
1FFFFFE0
3FFFFFC0
7F01FE00
7E00FE00
FC007E00
F8003E00
F8003E00
F8003E00
F8003E00
F8003E00
F8007E00
FC007E00
7E00FE00
7F01FE00
3FFFFE00
1FFFFE00
0FFFFE00
07FFBE00
01FF3E00
00003E00
00003E00
00003E00
00007E00
0000FC00
03FFFC00
07FFF800
07FFF000
07FFE000
03FF8000
ENDCHAR
STARTCHAR 011E
ENCODING 286
SWIDTH 600 0
DWIDTH 30 0
BBX 27 40 2 0
BITMAP
02000800
07001C00
07801E00
07C07C00
03FFFC00
01FFF800
007FE000
000F0000
00000000
00000000
00000000
00FFE780
03FFFF80
07FFFF80
0FFFFF80
1FFFFF80
3F803F80
3F000F80
7E000F80
7C000F80
FC000700
F8000000
F8000000
F8000000
F8000000
F8000000
F807FFC0
F80FFFE0
F80FFFE0
F80FFFE0
F807FFC0
FC000F80
7C000F80
7E000F80
3F800F80
3FFFFF80
1FFFFF80
0FFFFF80
03FFFE00
00FFF000
ENDCHAR
STARTCHAR 011F
ENCODING 287
SWIDTH 600 0
DWIDTH 30 0
BBX 27 43 2 -10
BITMAP
06001800
0E003800
0F007800
0F80F800
07FFF000
03FFE000
00FFC000
00080000
00000000
00000000
00000000
01FF3FC0
07FFBFE0
0FFFFFE0
1FFFFFE0
3FFFFFC0
7F01FE00
7E00FE00
FC007E00
F8003E00
F8003E00
F8003E00
F8003E00
F8003E00
F8007E00
FC007E00
7E00FE00
7F01FE00
3FFFFE00
1FFFFE00
0FFFFE00
07FFBE00
01FF3E00
00003E00
00003E00
00003E00
00007E00
0000FC00
03FFFC00
07FFF800
07FFF000
07FFE000
03FF8000
ENDCHAR
STARTCHAR 0120
ENCODING 288
SWIDTH 600 0
DWIDTH 30 0
BBX 27 38 2 0
BITMAP
001E0000
003F0000
003F0000
003F0000
001E0000
000C0000
00000000
00000000
00000000
00FFE780
03FFFF80
07FFFF80
0FFFFF80
1FFFFF80
3F803F80
3F000F80
7E000F80
7C000F80
FC000700
F8000000
F8000000
F8000000
F8000000
F8000000
F807FFC0
F80FFFE0
F80FFFE0
F80FFFE0
F807FFC0
FC000F80
7C000F80
7E000F80
3F800F80
3FFFFF80
1FFFFF80
0FFFFF80
03FFFE00
00FFF000
ENDCHAR
STARTCHAR 0121
ENCODING 289
SWIDTH 600 0
DWIDTH 30 0
BBX 27 42 2 -10
BITMAP
00080000
003E0000
003E0000
003F0000
003E0000
003E0000
00000000
00000000
00000000
00000000
01FF3FC0
07FFBFE0
0FFFFFE0
1FFFFFE0
3FFFFFC0
7F01FE00
7E00FE00
FC007E00
F8003E00
F8003E00
F8003E00
F8003E00
F8003E00
F8007E00
FC007E00
7E00FE00
7F01FE00
3FFFFE00
1FFFFE00
0FFFFE00
07FFBE00
01FF3E00
00003E00
00003E00
00003E00
00007E00
0000FC00
03FFFC00
07FFF800
07FFF000
07FFE000
03FF8000
ENDCHAR
STARTCHAR 0122
ENCODING 290
SWIDTH 600 0
DWIDTH 30 0
BBX 27 39 2 -9
BITMAP
00FFE780
03FFFF80
07FFFF80
0FFFFF80
1FFFFF80
3F803F80
3F000F80
7E000F80
7C000F80
FC000700
F8000000
F8000000
F8000000
F8000000
F8000000
F807FFC0
F80FFFE0
F80FFFE0
F80FFFE0
F807FFC0
FC000F80
7C000F80
7E000F80
3F800F80
3FFFFF80
1FFFFF80
0FFFFF80
03FFFE00
00FFF000
00000000
001F8000
001F8000
001F0000
001F0000
001E0000
003C0000
003C0000
00380000
00380000
ENDCHAR
STARTCHAR 0123
ENCODING 291
SWIDTH 600 0
DWIDTH 30 0
BBX 27 43 2 -10
BITMAP
00018000
0003C000
0007C000
000F8000
003F0000
007E0000
007C0000
00300000
00000000
00000000
00000000
01FF3FC0
07FFBFE0
0FFFFFE0
1FFFFFE0
3FFFFFC0
7F01FE00
7E00FE00
FC007E00
F8003E00
F8003E00
F8003E00
F8003E00
F8003E00
F8007E00
FC007E00
7E00FE00
7F01FE00
3FFFFE00
1FFFFE00
0FFFFE00
07FFBE00
01FF3E00
00003E00
00003E00
00003E00
00007E00
0000FC00
03FFFC00
07FFF800
07FFF000
07FFE000
03FF8000
ENDCHAR
STARTCHAR 0124
ENCODING 292
SWIDTH 600 0
DWIDTH 30 0
BBX 27 39 2 1
BITMAP
001E0000
003F0000
00FFC000
03FFF000
07F3F800
0FC0FC00
0F003C00
00000800
00000000
00000000
7FE1FF80
7FF3FF80
FFF3FFC0
7FF3FF80
7FE1FF80
1F003E00
1F003E00
1F003E00
1F003E00
1F003E00
1F003E00
1F003E00
1FFFFE00
1FFFFE00
1FFFFE00
1FFFFE00
1FFFFE00
1F003E00
1F003E00
1F003E00
1F003E00
1F003E00
1F003E00
1F003E00
7FE1FFC0
FFF3FFC0
FFF3FFE0
FFF3FFC0
7FE1FFC0
ENDCHAR
STARTCHAR 0125
ENCODING 293
SWIDTH 600 0
DWIDTH 30 0
BBX 27 40 1 0
BITMAP
00030000
0007C000
001FF000
007FF800
00FEFE00
01F83F00
01E01F00
01C00700
00000000
7F800000
FF800000
FF800000
FF800000
7F800000
0F800000
0F800000
0F800000
0F800000
0F9FF000
0FBFF800
0FFFFC00
0FFFFE00
0FFFFE00
0FE03F00
0FC01F00
0F801F00
0F801F00
0F801F00
0F801F00
0F801F00
0F801F00
0F801F00
0F801F00
0F801F00
0F801F00
3FF0FFC0
7FF9FFE0
FFF9FFE0
7FF9FFE0
3FF0FFC0
ENDCHAR
STARTCHAR 0126
ENCODING 294
SWIDTH 600 0
DWIDTH 30 0
BBX 27 29 2 0
BITMAP
7FE1FF80
7FF3FF80
FFF3FFC0
7FF3FF80
7FE1FF80
1F003E00
1F003E00
7F003F80
FF003FC0
FF003FC0
FF003FC0
7F003F80
1FFFFE00
1FFFFE00
1FFFFE00
1FFFFE00
1FFFFE00
1F003E00
1F003E00
1F003E00
1F003E00
1F003E00
1F003E00
1F003E00
7FE1FFC0
FFF3FFC0
FFF3FFE0
FFF3FFC0
7FE1FFC0
ENDCHAR
STARTCHAR 0127
ENCODING 295
SWIDTH 600 0
DWIDTH 30 0
BBX 27 31 1 0
BITMAP
7FFF0000
FFFF8000
FFFF8000
FFFF8000
7FFF0000
0F800000
0F800000
0F800000
0F800000
0F9FF000
0FBFF800
0FFFFC00
0FFFFE00
0FFFFE00
0FE03F00
0FC01F00
0F801F00
0F801F00
0F801F00
0F801F00
0F801F00
0F801F00
0F801F00
0F801F00
0F801F00
0F801F00
3FF0FFC0
7FF9FFE0
FFF9FFE0
7FF9FFE0
3FF0FFC0
ENDCHAR
STARTCHAR 0128
ENCODING 296
SWIDTH 600 0
DWIDTH 30 0
BBX 21 37 5 1
BITMAP
1FC0E0
3FF1E0
7FFFE0
78FFC0
703F80
000000
000000
000000
7FFFF0
FFFFF8
FFFFF8
FFFFF8
7FFFF0
00F800
00F800
00F800
00F800
00F800
00F800
00F800
00F800
00F800
00F800
00F800
00F800
00F800
00F800
00F800
00F800
00F800
00F800
00F800
7FFFF0
FFFFF8
FFFFF8
FFFFF8
7FFFF0
ENDCHAR
STARTCHAR 0129
ENCODING 297
SWIDTH 600 0
DWIDTH 30 0
BBX 23 32 4 0
BITMAP
038020
0FE070
1FFDF0
3FFFE0
3C3FC0
300F80
000000
000000
000000
000000
1FFC00
3FFC00
3FFC00
3FFC00
1FFC00
007C00
007C00
007C00
007C00
007C00
007C00
007C00
007C00
007C00
007C00
007C00
007C00
7FFFFC
FFFFFE
FFFFFE
FFFFFE
7FFFFC
ENDCHAR
STARTCHAR 012A
ENCODING 298
SWIDTH 600 0
DWIDTH 30 0
BBX 21 37 5 0
BITMAP
0FFF80
3FFFE0
3FFFE0
3FFFE0
000000
000000
000000
000000
7FFFF0
FFFFF8
FFFFF8
FFFFF8
7FFFF0
00F800
00F800
00F800
00F800
00F800
00F800
00F800
00F800
00F800
00F800
00F800
00F800
00F800
00F800
00F800
00F800
00F800
00F800
00F800
7FFFF0
FFFFF8
FFFFF8
FFFFF8
7FFFF0
ENDCHAR
STARTCHAR 012B
ENCODING 299
SWIDTH 600 0
DWIDTH 30 0
BBX 23 30 4 0
BITMAP
1FFFE0
3FFFF0
3FFFF0
1FFFE0
000000
000000
000000
000000
1FFC00
3FFC00
3FFC00
3FFC00
1FFC00
007C00
007C00
007C00
007C00
007C00
007C00
007C00
007C00
007C00
007C00
007C00
007C00
7FFFFC
FFFFFE
FFFFFE
FFFFFE
7FFFFC
ENDCHAR
STARTCHAR 012C
ENCODING 300
SWIDTH 600 0
DWIDTH 30 0
BBX 21 40 5 0
BITMAP
100040
3800E0
3801E0
3E03E0
3FFFC0
0FFF80
07FF00
00F000
000000
000000
000000
7FFFF0
FFFFF8
FFFFF8
FFFFF8
7FFFF0
00F800
00F800
00F800
00F800
00F800
00F800
00F800
00F800
00F800
00F800
00F800
00F800
00F800
00F800
00F800
00F800
00F800
00F800
00F800
7FFFF0
FFFFF8
FFFFF8
FFFFF8
7FFFF0
ENDCHAR
STARTCHAR 012D
ENCODING 301
SWIDTH 600 0
DWIDTH 30 0
BBX 23 33 4 0
BITMAP
180060
3800E0
3C01E0
3E03E0
1FFFC0
0FFF80
03FF00
002000
000000
000000
000000
1FFC00
3FFC00
3FFC00
3FFC00
1FFC00
007C00
007C00
007C00
007C00
007C00
007C00
007C00
007C00
007C00
007C00
007C00
007C00
7FFFFC
FFFFFE
FFFFFE
FFFFFE
7FFFFC
ENDCHAR
STARTCHAR 012E
ENCODING 302
SWIDTH 600 0
DWIDTH 30 0
BBX 22 39 5 -10
BITMAP
7FFFF0
FFFFF8
FFFFF8
FFFFF8
7FFFF0
00F800
00F800
00F800
00F800
00F800
00F800
00F800
00F800
00F800
00F800
00F800
00F800
00F800
00F800
00F800
00F800
00F800
00F800
00F800
7FFFF8
FFFFFC
FFFFFC
FFFFF8
7FFFF0
0003E0
000780
000F00
001E00
001E00
001E30
001FF8
001FF8
000FF0
0007C0
ENDCHAR
STARTCHAR 012F
ENCODING 303
SWIDTH 600 0
DWIDTH 30 0
BBX 24 41 4 -10
BITMAP
01F800
01F800
01F800
01F800
01F800
000000
000000
000000
000000
1FFC00
3FFC00
3FFC00
3FFC00
1FFC00
007C00
007C00
007C00
007C00
007C00
007C00
007C00
007C00
007C00
007C00
007C00
007C00
7FFFFC
FFFFFE
FFFFFF
FFFFFE
7FFFFC
0000F8
0001E0
0003C0
000780
000780
00078C
0007FE
0007FE
0003FC
0001F0
ENDCHAR
STARTCHAR 0130
ENCODING 304
SWIDTH 600 0
DWIDTH 30 0
BBX 21 39 5 0
BITMAP
00F000
01F800
01F800
01F800
01F800
006000
000000
000000
000000
000000
7FFFF0
FFFFF8
FFFFF8
FFFFF8
7FFFF0
00F800
00F800
00F800
00F800
00F800
00F800
00F800
00F800
00F800
00F800
00F800
00F800
00F800
00F800
00F800
00F800
00F800
00F800
00F800
7FFFF0
FFFFF8
FFFFF8
FFFFF8
7FFFF0
ENDCHAR
STARTCHAR 0131
ENCODING 305
SWIDTH 600 0
DWIDTH 30 0
BBX 23 22 4 0
BITMAP
1FFC00
3FFC00
3FFC00
3FFC00
1FFC00
007C00
007C00
007C00
007C00
007C00
007C00
007C00
007C00
007C00
007C00
007C00
007C00
7FFFFC
FFFFFE
FFFFFE
FFFFFE
7FFFFC
ENDCHAR
STARTCHAR 0132
ENCODING 306
SWIDTH 600 0
DWIDTH 30 0
BBX 32 29 -1 0
BITMAP
7FF03FFE
FFF87FFF
FFF87FFF
FFF87FFF
7FF03FFE
0F8000F8
0F8000F8
0F8000F8
0F8000F8
0F8000F8
0F8000F8
0F8000F8
0F8000F8
0F8000F8
0F8000F8
0F8E00F8
0F9F00F8
0F9F00F8
0F9F00F8
0F9F00F8
0F9F00F8
0F9F00F8
0F9F01F8
0F9F01F0
7FFFFFF0
FFFFFFE0
FFFFFFE0
FFF7FFC0
7FF1FF00
ENDCHAR
STARTCHAR 0133
ENCODING 307
SWIDTH 600 0
DWIDTH 30 0
BBX 27 41 1 -10
BITMAP
07E03F00
07E03F00
07E03F00
07E03F00
07E03F00
00000000
00000000
00000000
00000000
3FF1FFE0
7FF3FFE0
7FF3FFE0
7FF3FFE0
3FF1FFE0
01F003E0
01F003E0
01F003E0
01F003E0
01F003E0
01F003E0
01F003E0
01F003E0
01F003E0
01F003E0
01F003E0
01F003E0
7FFFC3E0
FFFFE3E0
FFFFE3E0
FFFFE3E0
7FFFC3E0
000003E0
000003E0
000003E0
000007E0
00000FC0
003FFFC0
007FFF80
007FFF00
007FFE00
003FF800
ENDCHAR
STARTCHAR 0134
ENCODING 308
SWIDTH 600 0
DWIDTH 30 0
BBX 27 40 3 0
BITMAP
00004000
0000E000
0003F800
000FFC00
001FFF00
007F1FC0
007C07C0
007803C0
00200080
00000000
00000000
00FFFFC0
01FFFFE0
01FFFFE0
01FFFFE0
00FFFFC0
0000F800
0000F800
0000F800
0000F800
0000F800
0000F800
0000F800
0000F800
0000F800
0000F800
2000F800
F800F800
F800F800
F800F800
F800F800
F800F800
F800F800
F801F800
FC03F000
FFFFF000
FFFFE000
FFFFC000
3FFF8000
07FE0000
ENDCHAR
STARTCHAR 0135
ENCODING 309
SWIDTH 600 0
DWIDTH 30 0
BBX 18 43 5 -10
BITMAP
00E000
01F000
07FC00
0FFE00
3FBF80
7E0FC0
7807C0
7001C0
000000
000000
000000
7FFFC0
FFFFC0
FFFFC0
FFFFC0
7FFFC0
0007C0
0007C0
0007C0
0007C0
0007C0
0007C0
0007C0
0007C0
0007C0
0007C0
0007C0
0007C0
0007C0
0007C0
0007C0
0007C0
0007C0
0007C0
0007C0
0007C0
000FC0
001F80
7FFF80
FFFF00
FFFE00
FFFC00
7FF000
ENDCHAR
STARTCHAR 0136
ENCODING 310
SWIDTH 600 0
DWIDTH 30 0
BBX 29 39 1 -10
BITMAP
7FF87FC0
FFFCFFE0
FFFCFFF0
FFFCFFE0
7FF87FE0
0F807F00
0F80FE00
0F83FC00
0F87F000
0F8FE000
0F9FC000
0FBF8000
0FFF0000
0FFF8000
0FFFC000
0FFFE000
0FE7F000
0FC3F800
0F81F800
0F80FC00
0F80FE00
0F807E00
0F803E00
0F803F00
7FF81FF0
FFFC1FF0
FFFC1FF8
FFFC0FF0
7FF80FF0
00000000
003F0000
003F0000
003E0000
003E0000
003C0000
00780000
00780000
00700000
00700000
ENDCHAR
STARTCHAR 0137
ENCODING 311
SWIDTH 600 0
DWIDTH 30 0
BBX 27 41 2 -10
BITMAP
7F800000
FF800000
FF800000
FF800000
7F800000
0F800000
0F800000
0F800000
0F800000
0F87FE00
0F8FFF00
0F8FFF00
0F8FFF00
0F87FE00
0F9FE000
0FBFC000
0FFF0000
0FFE0000
0FFC0000
0FFC0000
0FFE0000
0FFF8000
0FBFC000
0F9FE000
0F8FF000
0F83F800
7F81FF80
FF83FFC0
FF83FFE0
FF83FFC0
7F81FF80
00000000
00FC0000
00FC0000
00F80000
00F80000
00F00000
01E00000
01E00000
01C00000
01C00000
ENDCHAR
STARTCHAR 0138
ENCODING 312
SWIDTH 600 0
DWIDTH 30 0
BBX 25 22 3 0
BITMAP
7F87FF00
FF8FFF00
FF8FFF00
FF87FF00
7F87FE00
0F8FE000
0FBFC000
0FFF8000
0FFF0000
0FFC0000
0FF80000
0FFC0000
0FFE0000
0FFF0000
0FBF8000
0F9FC000
0F8FE000
7F87FF00
FF8FFF80
FF8FFF80
FF8FFF80
7F87FF00
ENDCHAR
STARTCHAR 0139
ENCODING 313
SWIDTH 600 0
DWIDTH 30 0
BBX 27 40 2 0
BITMAP
001C0000
003E0000
007C0000
00FC0000
01F00000
03E00000
03C00000
01800000
00000000
00000000
00000000
7FFF0000
FFFF8000
FFFF8000
FFFF8000
7FFF0000
03E00000
03E00000
03E00000
03E00000
03E00000
03E00000
03E00000
03E00000
03E00000
03E00000
03E00000
03E001C0
03E003E0
03E003E0
03E003E0
03E003E0
03E003E0
03E003E0
03E003E0
7FFFFFE0
FFFFFFE0
FFFFFFE0
FFFFFFE0
7FFFFFE0
ENDCHAR
STARTCHAR 013A
ENCODING 314
SWIDTH 600 0
DWIDTH 30 0
BBX 23 40 4 0
BITMAP
000380
000780
000F80
001F00
003E00
007C00
007800
007000
000000
1FFC00
3FFC00
3FFC00
3FFC00
1FFC00
007C00
007C00
007C00
007C00
007C00
007C00
007C00
007C00
007C00
007C00
007C00
007C00
007C00
007C00
007C00
007C00
007C00
007C00
007C00
007C00
007C00
7FFFFC
FFFFFE
FFFFFE
FFFFFE
7FFFFC
ENDCHAR
STARTCHAR 013B
ENCODING 315
SWIDTH 600 0
DWIDTH 30 0
BBX 27 39 2 -10
BITMAP
7FFF0000
FFFF8000
FFFF8000
FFFF8000
7FFF0000
03E00000
03E00000
03E00000
03E00000
03E00000
03E00000
03E00000
03E00000
03E00000
03E00000
03E00000
03E001C0
03E003E0
03E003E0
03E003E0
03E003E0
03E003E0
03E003E0
03E003E0
7FFFFFE0
FFFFFFE0
FFFFFFE0
FFFFFFE0
7FFFFFE0
00000000
001F8000
001F8000
001F0000
001F0000
001E0000
003C0000
003C0000
00380000
00380000
ENDCHAR
STARTCHAR 013C
ENCODING 316
SWIDTH 600 0
DWIDTH 30 0
BBX 23 41 4 -10
BITMAP
1FFC00
3FFC00
3FFC00
3FFC00
1FFC00
007C00
007C00
007C00
007C00
007C00
007C00
007C00
007C00
007C00
007C00
007C00
007C00
007C00
007C00
007C00
007C00
007C00
007C00
007C00
007C00
007C00
7FFFFC
FFFFFE
FFFFFE
FFFFFE
7FFFFC
000000
01F800
01F800
01F000
01F000
01E000
03C000
03C000
038000
038000
ENDCHAR
STARTCHAR 013D
ENCODING 317
SWIDTH 600 0
DWIDTH 30 0
BBX 27 30 2 0
BITMAP
00000180
7FFF07C0
FFFF8FC0
FFFF9F80
FFFFBE00
7FFF7C00
03E07800
03E03000
03E00000
03E00000
03E00000
03E00000
03E00000
03E00000
03E00000
03E00000
03E00000
03E001C0
03E003E0
03E003E0
03E003E0
03E003E0
03E003E0
03E003E0
03E003E0
7FFFFFE0
FFFFFFE0
FFFFFFE0
FFFFFFE0
7FFFFFE0
ENDCHAR
STARTCHAR 013E
ENCODING 318
SWIDTH 600 0
DWIDTH 30 0
BBX 24 31 4 0
BITMAP
1FFC00
3FFC06
3FFC1F
3FFC3F
1FFC7E
007CF8
007DF0
007DE0
007CC0
007C00
007C00
007C00
007C00
007C00
007C00
007C00
007C00
007C00
007C00
007C00
007C00
007C00
007C00
007C00
007C00
007C00
7FFFFC
FFFFFE
FFFFFE
FFFFFE
7FFFFC
ENDCHAR
STARTCHAR 013F
ENCODING 319
SWIDTH 600 0
DWIDTH 30 0
BBX 27 29 2 0
BITMAP
7FFF0000
FFFF8000
FFFF8000
FFFF8000
7FFF0000
03E00000
03E03C00
03E07E00
03E07E00
03E07E00
03E07E00
03E03C00
03E00000
03E00000
03E00000
03E00000
03E001C0
03E003E0
03E003E0
03E003E0
03E003E0
03E003E0
03E003E0
03E003E0
7FFFFFE0
FFFFFFE0
FFFFFFE0
FFFFFFE0
7FFFFFE0
ENDCHAR
STARTCHAR 0140
ENCODING 320
SWIDTH 600 0
DWIDTH 30 0
BBX 24 31 4 0
BITMAP
1FFC00
3FFC00
3FFC00
3FFC00
1FFC00
007C00
007C00
007C00
007C1E
007C3F
007C3F
007C3F
007C3F
007C1E
007C00
007C00
007C00
007C00
007C00
007C00
007C00
007C00
007C00
007C00
007C00
007C00
7FFFFC
FFFFFE
FFFFFE
FFFFFE
7FFFFC
ENDCHAR
STARTCHAR 0141
ENCODING 321
SWIDTH 600 0
DWIDTH 30 0
BBX 28 29 1 0
BITMAP
3FFF8000
7FFFC000
7FFFC000
7FFFC000
3FFF8000
01F00000
01F00000
01F00000
01F0E000
01F3F000
01F7F000
01FFF000
01FFE000
03FF8000
07FF0000
1FFC0000
7FF000E0
FFF001F0
FFF001F0
FDF001F0
71F001F0
01F001F0
01F001F0
01F001F0
3FFFFFF0
7FFFFFF0
7FFFFFF0
7FFFFFF0
3FFFFFF0
ENDCHAR
STARTCHAR 0142
ENCODING 322
SWIDTH 600 0
DWIDTH 30 0
BBX 23 31 4 0
BITMAP
1FFC00
3FFC00
3FFC00
3FFC00
1FFC00
007C00
007C00
007C00
007C00
007C40
007DF0
007FF0
007FF0
00FFE0
01FFC0
07FF00
0FFE00
1FFC00
1FFC00
1F7C00
047C00
007C00
007C00
007C00
007C00
007C00
7FFFFC
FFFFFE
FFFFFE
FFFFFE
7FFFFC
ENDCHAR
STARTCHAR 0143
ENCODING 323
SWIDTH 600 0
DWIDTH 30 0
BBX 30 40 0 0
BITMAP
00003000
00007800
0000F800
0001F000
0003E000
0007C000
000F8000
000F0000
00000000
00000000
00000000
7F803FF8
FFC07FFC
FFE07FFC
FFE07FFC
7FF03FF8
0FF803E0
0FF803E0
0FFC03E0
0FFE03E0
0FFE03E0
0FBF03E0
0FBF83E0
0F9F83E0
0F8FC3E0
0F8FE3E0
0F87E3E0
0F83F3E0
0F83FBE0
0F81FBE0
0F80FFE0
0F80FFE0
0F807FE0
0F803FE0
0F803FE0
3FF81FE0
7FFC0FE0
7FFC0FE0
7FFC07E0
3FF803E0
ENDCHAR
STARTCHAR 0144
ENCODING 324
SWIDTH 600 0
DWIDTH 30 0
BBX 26 34 2 0
BITMAP
0000E000
0001E000
0003E000
0007C000
000F8000
001F0000
003E0000
001C0000
00000000
00000000
00000000
00000000
7F3FE000
FF7FF000
FFFFF800
FFFFFC00
7FFFFC00
1FE07E00
1F803E00
1F003E00
1F003E00
1F003E00
1F003E00
1F003E00
1F003E00
1F003E00
1F003E00
1F003E00
1F003E00
7FE0FF80
FFF1FFC0
FFF1FFC0
FFF1FFC0
7FE0FF80
ENDCHAR
STARTCHAR 0145
ENCODING 325
SWIDTH 600 0
DWIDTH 30 0
BBX 30 39 0 -10
BITMAP
7F803FF8
FFC07FFC
FFE07FFC
FFE07FFC
7FF03FF8
0FF803E0
0FF803E0
0FFC03E0
0FFE03E0
0FFE03E0
0FBF03E0
0FBF83E0
0F9F83E0
0F8FC3E0
0F8FE3E0
0F87E3E0
0F83F3E0
0F83FBE0
0F81FBE0
0F80FFE0
0F80FFE0
0F807FE0
0F803FE0
0F803FE0
3FF81FE0
7FFC0FE0
7FFC0FE0
7FFC07E0
3FF803E0
00000000
000FC000
000FC000
000F8000
000F8000
000F0000
001E0000
001E0000
001C0000
001C0000
ENDCHAR
STARTCHAR 0146
ENCODING 326
SWIDTH 600 0
DWIDTH 30 0
BBX 26 32 2 -9
BITMAP
7F3FE000
FF7FF000
FFFFF800
FFFFFC00
7FFFFC00
1FE07E00
1F803E00
1F003E00
1F003E00
1F003E00
1F003E00
1F003E00
1F003E00
1F003E00
1F003E00
1F003E00
1F003E00
7FE0FF80
FFF1FFC0
FFF1FFC0
FFF1FFC0
7FE0FF80
00000000
003F0000
003F0000
003E0000
003E0000
003C0000
00780000
00780000
00700000
00700000
ENDCHAR
STARTCHAR 0147
ENCODING 327
SWIDTH 600 0
DWIDTH 30 0
BBX 30 40 0 1
BITMAP
01C00F00
03F03F00
01FC7E00
00FFFC00
003FF000
000FE000
00078000
00010000
00000000
00000000
00000000
7F803FF8
FFC07FFC
FFE07FFC
FFE07FFC
7FF03FF8
0FF803E0
0FF803E0
0FFC03E0
0FFE03E0
0FFE03E0
0FBF03E0
0FBF83E0
0F9F83E0
0F8FC3E0
0F8FE3E0
0F87E3E0
0F83F3E0
0F83FBE0
0F81FBE0
0F80FFE0
0F80FFE0
0F807FE0
0F803FE0
0F803FE0
3FF81FE0
7FFC0FE0
7FFC0FE0
7FFC07E0
3FF803E0
ENDCHAR
STARTCHAR 0148
ENCODING 328
SWIDTH 600 0
DWIDTH 30 0
BBX 26 34 2 0
BITMAP
06001800
0F807C00
0FE1F800
07F7F000
01FFE000
00FF8000
003F0000
000C0000
00000000
00000000
00000000
00000000
7F3FE000
FF7FF000
FFFFF800
FFFFFC00
7FFFFC00
1FE07E00
1F803E00
1F003E00
1F003E00
1F003E00
1F003E00
1F003E00
1F003E00
1F003E00
1F003E00
1F003E00
1F003E00
7FE0FF80
FFF1FFC0
FFF1FFC0
FFF1FFC0
7FE0FF80
ENDCHAR
STARTCHAR 0149
ENCODING 329
SWIDTH 600 0
DWIDTH 30 0
BBX 28 33 0 0
BITMAP
03000000
0F800000
1F800000
3F000000
7C000000
F8000000
F0000000
60000000
00000000
00000000
00000000
1FCFF800
3FDFFC00
3FFFFE00
3FFFFF00
1FFFFF00
07F81F80
07E00F80
07C00F80
07C00F80
07C00F80
07C00F80
07C00F80
07C00F80
07C00F80
07C00F80
07C00F80
07C00F80
1FF83FE0
3FFC7FF0
7FFC7FF0
3FFC7FF0
1FF83FE0
ENDCHAR
STARTCHAR 014A
ENCODING 330
SWIDTH 600 0
DWIDTH 30 0
BBX 26 38 2 -6
BITMAP
000FC000
7F3FF000
FF7FF800
FFFFFC00
FFFFFE00
7FF07F00
1FC03F00
1F801F00
1F001F80
1F000F80
1F000F80
1F000F80
1F0007C0
1F0007C0
1F0007C0
1F0007C0
1F0007C0
1F0007C0
1F0007C0
1F0007C0
1F0007C0
1F0007C0
1F0007C0
1F0007C0
1F0007C0
1F0007C0
1F000FC0
7FE00F80
FFF00F80
FFF00F80
FFF00F80
7FE01F80
00003F00
000FFF00
000FFE00
000FFE00
000FFC00
0003F000
ENDCHAR
STARTCHAR 014B
ENCODING 331
SWIDTH 600 0
DWIDTH 30 0
BBX 23 32 2 -9
BITMAP
7F1FE0
FF7FF0
FFFFF8
FFFFFC
7FFFFC
1FE07E
1F803E
1F003E
1F003E
1F003E
1F003E
1F003E
1F003E
1F003E
1F003E
1F003E
1F003E
7FE03E
FFF03E
FFF03E
FFF03E
7FE03E
00003E
00003E
00003E
00007E
0000FC
003FFC
007FF8
007FF8
007FE0
001FC0
ENDCHAR
STARTCHAR 014C
ENCODING 332
SWIDTH 600 0
DWIDTH 30 0
BBX 28 37 1 0
BITMAP
01FFF800
07FFFE00
07FFFE00
03FFFC00
00000000
00000000
00000000
00000000
007FE000
01FFF800
03FFFC00
0FFFFF00
0FFFFF80
1FC03F80
3F801FC0
3F000FC0
7E0007E0
7C0003E0
FC0003F0
F80001F0
F80001F0
F80001F0
F80001F0
F80001F0
F80001F0
F80001F0
FC0003F0
7C0003E0
7E0007E0
3F000FC0
3F801FC0
1FC03F80
0FFFFF00
0FFFFF00
03FFFC00
01FFF800
007FE000
ENDCHAR
STARTCHAR 014D
ENCODING 333
SWIDTH 600 0
DWIDTH 30 0
BBX 26 31 2 -1
BITMAP
07FFF800
0FFFFC00
0FFFFC00
07FFF800
00000000
00000000
00000000
00000000
00FFC000
03FFF000
0FFFFC00
1FFFFE00
3FFFFF00
3F807F00
7E001F80
7C000F80
FC000FC0
F80007C0
F80007C0
F80007C0
F80007C0
F80007C0
FC000FC0
7E001F80
7F003F80
3FC0FF00
1FFFFE00
0FFFFC00
07FFF800
03FFF000
007F8000
ENDCHAR
STARTCHAR 014E
ENCODING 334
SWIDTH 600 0
DWIDTH 30 0
BBX 28 40 1 0
BITMAP
02000800
07001C00
07801E00
07C07C00
03FFFC00
01FFF800
007FE000
000F0000
00000000
00000000
00000000
007FE000
01FFF800
03FFFC00
0FFFFF00
0FFFFF80
1FC03F80
3F801FC0
3F000FC0
7E0007E0
7C0003E0
FC0003F0
F80001F0
F80001F0
F80001F0
F80001F0
F80001F0
F80001F0
F80001F0
FC0003F0
7C0003E0
7E0007E0
3F000FC0
3F801FC0
1FC03F80
0FFFFF00
0FFFFF00
03FFFC00
01FFF800
007FE000
ENDCHAR
STARTCHAR 014F
ENCODING 335
SWIDTH 600 0
DWIDTH 30 0
BBX 26 34 2 -1
BITMAP
06001800
0E003800
0F007800
0F80F800
07FFF000
03FFE000
00FFC000
00080000
00000000
00000000
00000000
00FFC000
03FFF000
0FFFFC00
1FFFFE00
3FFFFF00
3F807F00
7E001F80
7C000F80
FC000FC0
F80007C0
F80007C0
F80007C0
F80007C0
F80007C0
FC000FC0
7E001F80
7F003F80
3FC0FF00
1FFFFE00
0FFFFC00
07FFF800
03FFF000
007F8000
ENDCHAR
STARTCHAR 0150
ENCODING 336
SWIDTH 600 0
DWIDTH 30 0
BBX 28 40 1 0
BITMAP
00030180
000783C0
000F8FC0
001F1F80
003E3F00
007C7E00
00F87C00
00F07000
00000000
00000000
00000000
007FE000
01FFF800
03FFFC00
0FFFFF00
0FFFFF80
1FC03F80
3F801FC0
3F000FC0
7E0007E0
7C0003E0
FC0003F0
F80001F0
F80001F0
F80001F0
F80001F0
F80001F0
F80001F0
F80001F0
FC0003F0
7C0003E0
7E0007E0
3F000FC0
3F801FC0
1FC03F80
0FFFFF00
0FFFFF00
03FFFC00
01FFF800
007FE000
ENDCHAR
STARTCHAR 0151
ENCODING 337
SWIDTH 600 0
DWIDTH 30 0
BBX 26 35 2 -1
BITMAP
00060300
000F0780
001F0F80
003E3F00
007C7E00
00F8FC00
01F0F800
00E0E000
00000000
00000000
00000000
00000000
00FFC000
03FFF000
0FFFFC00
1FFFFE00
3FFFFF00
3F807F00
7E001F80
7C000F80
FC000FC0
F80007C0
F80007C0
F80007C0
F80007C0
F80007C0
FC000FC0
7E001F80
7F003F80
3FC0FF00
1FFFFE00
0FFFFC00
07FFF800
03FFF000
007F8000
ENDCHAR
STARTCHAR 0152
ENCODING 338
SWIDTH 600 0
DWIDTH 30 0
BBX 32 29 -1 0
BITMAP
003FFFFE
01FFFFFE
03FFFFFE
0FFFFFFE
1FFFFFFE
1FE3E03E
3F83E03E
7F03E03E
7E03E03E
7C03E73E
FC03EFBE
F803EF88
F803FF80
F803FF80
F803FF80
F803FF80
F803FF80
F803EF80
FC03EF00
7C03E000
7E03E00F
3F03E01F
3F83E01F
1FE3E01F
0FFFFFFF
07FFFFFF
03FFFFFF
01FFFFFF
003FFFFF
ENDCHAR
STARTCHAR 0153
ENCODING 339
SWIDTH 600 0
DWIDTH 30 0
BBX 31 23 -1 0
BITMAP
07F81FC0
0FFC7FE0
1FFEFFF0
3FFFFFF8
3FFFFFFC
7E1FF87C
7C0FF07C
FC07F03E
F807E03E
F807FFFE
F807FFFE
F807FFFE
F807FFFE
F807FFFE
FC07E000
7C0FE000
7E0FF008
7F1FF87E
3FFFFFFE
1FFFFFFE
1FFE7FFE
07FC3FF8
03F00FC0
ENDCHAR
STARTCHAR 0154
ENCODING 340
SWIDTH 600 0
DWIDTH 30 0
BBX 29 40 0 0
BITMAP
0001C000
0003C000
0007C000
000F8000
003F0000
003E0000
007C0000
00380000
00000000
00000000
00000000
7FFFC000
FFFFF000
FFFFFC00
FFFFFE00
7FFFFF00
0F807F00
0F801F80
0F800F80
0F800F80
0F800F80
0F801F80
0F803F80
0F80FF00
0FFFFE00
0FFFFC00
0FFFF800
0FFFF000
0FFFF800
0F81FC00
0F80FE00
0F807E00
0F803F00
0F801F80
0F801F80
7FF80FF0
FFFC07F8
FFFC07F8
FFFC03F8
7FF803F0
ENDCHAR
STARTCHAR 0155
ENCODING 341
SWIDTH 600 0
DWIDTH 30 0
BBX 26 34 3 0
BITMAP
0000C000
0001E000
0003E000
0007C000
000F8000
001F0000
003E0000
001C0000
00000000
00000000
00000000
00000000
3FE1FE00
7FE3FF80
7FEFFF80
7FFFFFC0
3FFFFF80
03FF0000
03FE0000
03FC0000
03F00000
03E00000
03E00000
03E00000
03E00000
03E00000
03E00000
03E00000
03E00000
7FFFF000
FFFFF800
FFFFF800
FFFFF800
7FFFF000
ENDCHAR
STARTCHAR 0156
ENCODING 342
SWIDTH 600 0
DWIDTH 30 0
BBX 29 39 0 -10
BITMAP
7FFFC000
FFFFF000
FFFFFC00
FFFFFE00
7FFFFF00
0F807F00
0F801F80
0F800F80
0F800F80
0F800F80
0F801F80
0F803F80
0F80FF00
0FFFFE00
0FFFFC00
0FFFF800
0FFFF000
0FFFF800
0F81FC00
0F80FE00
0F807E00
0F803F00
0F801F80
0F801F80
7FF80FF0
FFFC07F8
FFFC07F8
FFFC03F8
7FF803F0
00000000
001F8000
001F8000
001F0000
001F0000
001E0000
003C0000
003C0000
00380000
00380000
ENDCHAR
STARTCHAR 0157
ENCODING 343
SWIDTH 600 0
DWIDTH 30 0
BBX 26 32 3 -9
BITMAP
3FE1FE00
7FE3FF80
7FEFFF80
7FFFFFC0
3FFFFF80
03FF0000
03FE0000
03FC0000
03F00000
03E00000
03E00000
03E00000
03E00000
03E00000
03E00000
03E00000
03E00000
7FFFF000
FFFFF800
FFFFF800
FFFFF800
7FFFF000
00000000
01F80000
01F80000
01F00000
01F00000
01E00000
03C00000
03C00000
03800000
03800000
ENDCHAR
STARTCHAR 0158
ENCODING 344
SWIDTH 600 0
DWIDTH 30 0
BBX 29 40 0 1
BITMAP
01C00F00
03F03F00
01FC7E00
00FFFC00
003FF000
000FE000
00078000
00010000
00000000
00000000
00000000
7FFFC000
FFFFF000
FFFFFC00
FFFFFE00
7FFFFF00
0F807F00
0F801F80
0F800F80
0F800F80
0F800F80
0F801F80
0F803F80
0F80FF00
0FFFFE00
0FFFFC00
0FFFF800
0FFFF000
0FFFF800
0F81FC00
0F80FE00
0F807E00
0F803F00
0F801F80
0F801F80
7FF80FF0
FFFC07F8
FFFC07F8
FFFC03F8
7FF803F0
ENDCHAR
STARTCHAR 0159
ENCODING 345
SWIDTH 600 0
DWIDTH 30 0
BBX 26 34 3 0
BITMAP
06001800
0F807C00
0FE1F800
07F7F000
01FFE000
00FF8000
003F0000
000C0000
00000000
00000000
00000000
00000000
3FE1FE00
7FE3FF80
7FEFFF80
7FFFFFC0
3FFFFF80
03FF0000
03FE0000
03FC0000
03F00000
03E00000
03E00000
03E00000
03E00000
03E00000
03E00000
03E00000
03E00000
7FFFF000
FFFFF800
FFFFF800
FFFFF800
7FFFF000
ENDCHAR
STARTCHAR 015A
ENCODING 346
SWIDTH 600 0
DWIDTH 30 0
BBX 24 40 3 0
BITMAP
000380
0007C0
000F80
001F00
003E00
007C00
007800
003000
000000
000000
000000
01FF9E
07FFFE
1FFFFE
1FFFFE
3FFFFE
7F00FE
7E007E
7C003E
7C003E
7E001E
7F0000
3FE000
3FFF00
1FFFE0
0FFFF8
03FFFC
003FFE
0001FE
00003F
F0001F
F8001F
F8001F
FC003F
FE007F
FFFFFE
FFFFFC
FFFFFC
77FFF0
01FFC0
ENDCHAR
STARTCHAR 015B
ENCODING 347
SWIDTH 600 0
DWIDTH 30 0
BBX 22 34 4 -1
BITMAP
000700
000F80
001F00
003E00
007C00
00F800
00F000
006000
000000
000000
000000
07FFB8
0FFFF8
3FFFF8
3FFFF8
7FFFF8
7E00F8
7C0078
7F0030
7FF800
3FFF80
3FFFE0
0FFFF0
01FFF8
0007FC
F000FC
F8007C
FC007C
FF01FC
FFFFF8
FFFFF8
FFFFF0
7FFFC0
01FF00
ENDCHAR
STARTCHAR 015C
ENCODING 348
SWIDTH 600 0
DWIDTH 30 0
BBX 24 39 3 1
BITMAP
007800
00FE00
03FF00
0FFFC0
1FCFE0
3F03F0
3C00F0
000000
000000
000000
01FF9E
07FFFE
1FFFFE
1FFFFE
3FFFFE
7F00FE
7E007E
7C003E
7C003E
7E001E
7F0000
3FE000
3FFF00
1FFFE0
0FFFF8
03FFFC
003FFE
0001FE
00003F
F0001F
F8001F
F8001F
FC003F
FE007F
FFFFFE
FFFFFC
FFFFFC
77FFF0
01FFC0
ENDCHAR
STARTCHAR 015D
ENCODING 349
SWIDTH 600 0
DWIDTH 30 0
BBX 22 34 4 -1
BITMAP
003000
00FC00
01FE00
07FF80
1FFFC0
3F87E0
3E01F0
180060
000000
000000
000000
07FFB8
0FFFF8
3FFFF8
3FFFF8
7FFFF8
7E00F8
7C0078
7F0030
7FF800
3FFF80
3FFFE0
0FFFF0
01FFF8
0007FC
F000FC
F8007C
FC007C
FF01FC
FFFFF8
FFFFF8
FFFFF0
7FFFC0
01FF00
ENDCHAR
STARTCHAR 015E
ENCODING 350
SWIDTH 600 0
DWIDTH 30 0
BBX 24 39 3 -9
BITMAP
01FF9E
07FFFE
0FFFFE
1FFFFE
3FFFFE
7F00FE
7E007E
7C003E
7C003E
7E001E
7F0000
3FE000
3FFE00
1FFFE0
0FFFF8
03FFFC
003FFE
0001FE
00007F
70003F
F8001F
F8001F
F8001F
FC003F
FF00FE
FFFFFE
FFFFFC
FFFFF8
73FFE0
007F00
003F00
003F80
003F80
000780
0003C0
01FF80
01FF80
00FF00
003E00
ENDCHAR
STARTCHAR 015F
ENCODING 351
SWIDTH 600 0
DWIDTH 30 0
BBX 22 32 4 -9
BITMAP
07FFB8
0FFFF8
3FFFF8
3FFFF8
7FFFF8
7E00F8
7C0078
7F0070
7FF800
3FFF80
3FFFE0
0FFFF0
01FFF8
0007FC
F000FC
F8007C
F8007C
FE01FC
FFFFF8
FFFFF8
FFFFF0
7FFFC0
01FE00
007E00
007F00
007F00
000F00
000780
03FF00
03FF00
01FE00
007C00
ENDCHAR
STARTCHAR 0160
ENCODING 352
SWIDTH 600 0
DWIDTH 30 0
BBX 24 40 3 1
BITMAP
0E0078
1F81F8
0FE3F0
07FFE0
01FF80
007F00
003C00
000800
000000
000000
000000
01FF9E
07FFFE
1FFFFE
1FFFFE
3FFFFE
7F00FE
7E007E
7C003E
7C003E
7E001E
7F0000
3FE000
3FFF00
1FFFE0
0FFFF8
03FFFC
003FFE
0001FE
00003F
F0001F
F8001F
F8001F
FC003F
FE007F
FFFFFE
FFFFFC
FFFFFC
77FFF0
01FFC0
ENDCHAR
STARTCHAR 0161
ENCODING 353
SWIDTH 600 0
DWIDTH 30 0
BBX 22 35 4 -1
BITMAP
180070
1E01F0
1F83F0
0FEFE0
07FF80
01FF00
007C00
003000
000000
000000
000000
000000
07FFB8
0FFFF8
3FFFF8
3FFFF8
7FFFF8
7E00F8
7C0078
7F0030
7FF800
3FFF80
3FFFE0
0FFFF0
01FFF8
0007FC
F000FC
F8007C
FC007C
FF01FC
FFFFF8
FFFFF8
FFFFF0
7FFFC0
01FF00
ENDCHAR
STARTCHAR 0162
ENCODING 354
SWIDTH 600 0
DWIDTH 30 0
BBX 26 39 2 -10
BITMAP
FFFFFFC0
FFFFFFC0
FFFFFFC0
FFFFFFC0
FFFFFFC0
F83E07C0
F83E07C0
F83E07C0
F83E07C0
F83E07C0
F83E07C0
F83E07C0
703E0380
003E0000
003E0000
003E0000
003E0000
003E0000
003E0000
003E0000
003E0000
003E0000
003E0000
003E0000
07FFF000
0FFFF800
0FFFFC00
0FFFF800
07FFF000
001E0000
001F8000
001FC000
001FC000
0001C000
0001C000
00FFC000
00FFC000
007F8000
001F0000
ENDCHAR
STARTCHAR 0163
ENCODING 355
SWIDTH 600 0
DWIDTH 30 0
BBX 25 40 1 -10
BITMAP
01000000
07C00000
07C00000
07C00000
07C00000
07C00000
07C00000
07C00000
7FFFF800
FFFFFC00
FFFFFC00
FFFFFC00
7FFFF800
07C00000
07C00000
07C00000
07C00000
07C00000
07C00000
07C00000
07C00000
07C00000
07C00000
07C00300
07C00F80
07FFFF80
07FFFF80
03FFFF80
01FFFE00
00FFF800
001E0000
001F8000
001FC000
0017C000
0001C000
0001C000
00FFC000
00FFC000
007F8000
001F0000
ENDCHAR
STARTCHAR 0164
ENCODING 356
SWIDTH 600 0
DWIDTH 30 0
BBX 26 40 2 1
BITMAP
07003C00
0FC0FC00
07F1F800
03FFF000
00FFC000
003F8000
001E0000
00040000
00000000
00000000
00000000
FFFFFFC0
FFFFFFC0
FFFFFFC0
FFFFFFC0
FFFFFFC0
F83E07C0
F83E07C0
F83E07C0
F83E07C0
F83E07C0
F83E07C0
F83E07C0
703E0380
003E0000
003E0000
003E0000
003E0000
003E0000
003E0000
003E0000
003E0000
003E0000
003E0000
003E0000
07FFF000
0FFFF800
0FFFF800
0FFFF800
07FFF000
ENDCHAR
STARTCHAR 0165
ENCODING 357
SWIDTH 600 0
DWIDTH 30 0
BBX 28 33 1 -1
BITMAP
00000060
000001F0
010003F0
07C007E0
07C00F80
07C01F00
07C01E00
07C00C00
07C00000
07C00000
7FFFF800
FFFFFC00
FFFFFC00
FFFFFC00
7FFFF800
07C00000
07C00000
07C00000
07C00000
07C00000
07C00000
07C00000
07C00000
07C00000
07C00000
07C00000
07C00F00
07E03F80
07FFFF80
03FFFF80
01FFFF00
00FFFC00
003FC000
ENDCHAR
STARTCHAR 0166
ENCODING 358
SWIDTH 600 0
DWIDTH 30 0
BBX 26 29 2 0
BITMAP
FFFFFFC0
FFFFFFC0
FFFFFFC0
FFFFFFC0
FFFFFFC0
F83E07C0
F83E07C0
F83E07C0
F83E07C0
F83E07C0
F83E07C0
F83E07C0
703E0380
003E0000
003E0000
07FFF000
0FFFF800
0FFFF800
0FFFF800
07FFF000
003E0000
003E0000
003E0000
003E0000
07FFF000
0FFFF800
0FFFF800
0FFFF800
07FFF000
ENDCHAR
STARTCHAR 0167
ENCODING 359
SWIDTH 600 0
DWIDTH 30 0
BBX 25 31 1 -1
BITMAP
01000000
07C00000
07C00000
07C00000
07C00000
07C00000
07C00000
07C00000
7FFFF800
FFFFFC00
FFFFFC00
FFFFFC00
7FFFF800
07C00000
07C00000
07C00000
7FFC0000
FFFE0000
FFFE0000
FFFE0000
7FFC0000
07C00000
07C00000
07C00000
07C00F00
07E03F80
07FFFF80
03FFFF80
01FFFF00
00FFFC00
003FC000
ENDCHAR
STARTCHAR 0168
ENCODING 360
SWIDTH 600 0
DWIDTH 30 0
BBX 28 36 1 0
BITMAP
01F80E00
03FF1E00
07FFFE00
078FFC00
0703F800
00000000
00000000
7FF0FFE0
FFF9FFF0
FFF9FFF0
FFF9FFF0
7FF0FFE0
1F000F80
1F000F80
1F000F80
1F000F80
1F000F80
1F000F80
1F000F80
1F000F80
1F000F80
1F000F80
1F000F80
1F000F80
1F000F80
1F000F80
1F000F80
1F000F80
1F801F80
0F801F00
0FE07F00
07FFFE00
07FFFE00
03FFFC00
00FFF000
007FE000
ENDCHAR
STARTCHAR 0169
ENCODING 361
SWIDTH 600 0
DWIDTH 30 0
BBX 27 32 1 0
BITMAP
00F00C00
03FC1E00
07FFFE00
07FFFC00
0F07F800
0601F000
00000000
00000000
00000000
00000000
7F81FF00
FF83FF00
FF83FF00
FF83FF00
7F81FF00
0F801F00
0F801F00
0F801F00
0F801F00
0F801F00
0F801F00
0F801F00
0F801F00
0F801F00
0F801F00
0F803F00
0FC0FF00
07FFFFC0
07FFFFE0
03FFFFE0
01FFDFE0
00FF9FC0
ENDCHAR
STARTCHAR 016A
ENCODING 362
SWIDTH 600 0
DWIDTH 30 0
BBX 28 37 1 0
BITMAP
01FFF800
07FFFE00
07FFFE00
03FFFC00
00000000
00000000
00000000
00000000
7FF0FFE0
FFF9FFF0
FFF9FFF0
FFF9FFF0
7FF0FFE0
1F000F80
1F000F80
1F000F80
1F000F80
1F000F80
1F000F80
1F000F80
1F000F80
1F000F80
1F000F80
1F000F80
1F000F80
1F000F80
1F000F80
1F000F80
1F000F80
1F801F80
0F801F00
0FE07F00
07FFFE00
07FFFE00
03FFFC00
00FFF000
007FE000
ENDCHAR
STARTCHAR 016B
ENCODING 363
SWIDTH 600 0
DWIDTH 30 0
BBX 27 30 1 0
BITMAP
03FFFC00
07FFFE00
07FFFE00
03FFFC00
00000000
00000000
00000000
00000000
7F81FF00
FF83FF00
FF83FF00
FF83FF00
7F81FF00
0F801F00
0F801F00
0F801F00
0F801F00
0F801F00
0F801F00
0F801F00
0F801F00
0F801F00
0F801F00
0F803F00
0FC0FF00
07FFFFC0
07FFFFE0
03FFFFE0
01FFDFE0
00FF9FC0
ENDCHAR
STARTCHAR 016C
ENCODING 364
SWIDTH 600 0
DWIDTH 30 0
BBX 28 40 1 0
BITMAP
01000400
03800E00
03801E00
03E03E00
03FFFC00
00FFF800
007FF000
000F0000
00000000
00000000
00000000
7FF0FFE0
FFF9FFF0
FFF9FFF0
FFF9FFF0
7FF0FFE0
1F000F80
1F000F80
1F000F80
1F000F80
1F000F80
1F000F80
1F000F80
1F000F80
1F000F80
1F000F80
1F000F80
1F000F80
1F000F80
1F000F80
1F000F80
1F000F80
1F801F80
0F801F00
0FE07F00
07FFFE00
07FFFE00
03FFFC00
00FFF000
007FE000
ENDCHAR
STARTCHAR 016D
ENCODING 365
SWIDTH 600 0
DWIDTH 30 0
BBX 27 33 1 0
BITMAP
03000C00
07001C00
07801C00
07C07C00
03FFF800
01FFF000
007FE000
00060000
00000000
00000000
00000000
7F81FF00
FF83FF00
FF83FF00
FF83FF00
7F81FF00
0F801F00
0F801F00
0F801F00
0F801F00
0F801F00
0F801F00
0F801F00
0F801F00
0F801F00
0F801F00
0F803F00
0FC0FF00
07FFFFC0
07FFFFE0
03FFFFE0
01FFDFE0
00FF9FC0
ENDCHAR
STARTCHAR 016E
ENCODING 366
SWIDTH 600 0
DWIDTH 30 0
BBX 28 40 1 0
BITMAP
001F8000
003FC000
007FE000
0078E000
0070E000
0079E000
003FE000
003FC000
000F0000
00000000
00000000
7FF0FFE0
FFF9FFF0
FFF9FFF0
FFF9FFF0
7FF0FFE0
1F000F80
1F000F80
1F000F80
1F000F80
1F000F80
1F000F80
1F000F80
1F000F80
1F000F80
1F000F80
1F000F80
1F000F80
1F000F80
1F000F80
1F000F80
1F000F80
1F801F80
0F801F00
0FE07F00
07FFFE00
07FFFE00
03FFFC00
00FFF000
007FE000
ENDCHAR
STARTCHAR 016F
ENCODING 367
SWIDTH 600 0
DWIDTH 30 0
BBX 27 34 1 0
BITMAP
000F0000
003FC000
007FE000
0079E000
0070E000
0079E000
007FE000
003FC000
001F8000
00000000
00000000
00000000
7F81FF00
FF83FF00
FF83FF00
FF83FF00
7F81FF00
0F801F00
0F801F00
0F801F00
0F801F00
0F801F00
0F801F00
0F801F00
0F801F00
0F801F00
0F801F00
0F803F00
0FC0FF00
07FFFFC0
07FFFFE0
03FFFFE0
01FFDFE0
00FF9FC0
ENDCHAR
STARTCHAR 0170
ENCODING 368
SWIDTH 600 0
DWIDTH 30 0
BBX 28 40 1 0
BITMAP
00030100
00078380
000F8F80
001F1F80
003E3F00
007C7E00
00F87C00
00F07000
00002000
00000000
00000000
7FF0FFE0
FFF9FFF0
FFF9FFF0
FFF9FFF0
7FF0FFE0
1F000F80
1F000F80
1F000F80
1F000F80
1F000F80
1F000F80
1F000F80
1F000F80
1F000F80
1F000F80
1F000F80
1F000F80
1F000F80
1F000F80
1F000F80
1F000F80
1F801F80
0F801F00
0FE07F00
07FFFE00
07FFFE00
03FFFC00
00FFF000
007FE000
ENDCHAR
STARTCHAR 0171
ENCODING 369
SWIDTH 600 0
DWIDTH 30 0
BBX 27 33 1 0
BITMAP
00070380
000F8780
001F1F80
003E3F00
007C7E00
00F87C00
00F07800
00606000
00000000
00000000
00000000
7F81FF00
FF83FF00
FF83FF00
FF83FF00
7F81FF00
0F801F00
0F801F00
0F801F00
0F801F00
0F801F00
0F801F00
0F801F00
0F801F00
0F801F00
0F801F00
0F803F00
0FC0FF00
07FFFFC0
07FFFFE0
03FFFFE0
01FFDFE0
00FF9FC0
ENDCHAR
STARTCHAR 0172
ENCODING 370
SWIDTH 600 0
DWIDTH 30 0
BBX 28 39 1 -10
BITMAP
7FF0FFE0
FFF9FFF0
FFF9FFF0
FFF9FFF0
7FF0FFE0
1F000F80
1F000F80
1F000F80
1F000F80
1F000F80
1F000F80
1F000F80
1F000F80
1F000F80
1F000F80
1F000F80
1F000F80
1F000F80
1F000F80
1F000F80
1F000F80
1F000F80
1F801F00
0FC03F00
0FF07F00
07FFFE00
03FFFC00
01FFF800
007FF000
001FE000
0001C000
0003C000
00078000
00078000
00078C00
0007FE00
0007FE00
0003FC00
0001F000
ENDCHAR
STARTCHAR 0173
ENCODING 371
SWIDTH 600 0
DWIDTH 30 0
BBX 27 32 1 -10
BITMAP
7F81FF00
FF83FF00
FF83FF00
FF83FF00
7F81FF00
0F801F00
0F801F00
0F801F00
0F801F00
0F801F00
0F801F00
0F801F00
0F801F00
0F801F00
0F801F00
0F803F00
0FC0FF00
07FFFFC0
07FFFFE0
03FFFFE0
01FFDFE0
00FF1FC0
00001F00
00003E00
00007800
0000F800
0000F000
0000F180
0000FFC0
0000FFC0
00007F80
00003E00
ENDCHAR
STARTCHAR 0174
ENCODING 372
SWIDTH 600 0
DWIDTH 30 0
BBX 31 40 -1 0
BITMAP
00008000
0003C000
000FF000
001FF800
007FFE00
00FE3F00
01F81F80
01E00780
00000000
00000000
00000000
7FF01FFC
FFF83FFE
FFF83FFE
FFF83FFE
7FF01FFC
1F0000F8
1F0000F8
1F07E0F8
1F07E0F8
1F8FE0F8
0F8FF0F8
0F8FF1F0
0F9FF1F0
0F9FF9F0
0F9FF9F0
0F9EF9F0
0FBEFDF0
0FFEFDF0
07FC7FF0
07FC7FE0
07FC7FE0
07F83FE0
07F83FE0
07F83FE0
07F01FE0
03F01FE0
03F01FC0
03E00FC0
03E00FC0
ENDCHAR
STARTCHAR 0175
ENCODING 373
SWIDTH 600 0
DWIDTH 30 0
BBX 30 32 0 0
BITMAP
00030000
000FC000
001FE000
007FF800
01FEFE00
03F87F00
03E01F00
01800600
00000000
00000000
7FC00FF8
FFE01FFC
FFE01FFC
FFE01FFC
7FC00FF8
1F07C3E0
1F0FC3E0
1F8FE3E0
0F8FE3E0
0F9FE7C0
0F9FF7C0
0FFFF7C0
07FFF7C0
07FFFF80
07FEFF80
07FCFF80
03FC7F80
03F87F00
03F87F00
03F83F00
01F03F00
01F01E00
ENDCHAR
STARTCHAR 0176
ENCODING 374
SWIDTH 600 0
DWIDTH 30 0
BBX 28 39 1 1
BITMAP
000F0000
001F8000
007FE000
00FFF000
03F9FC00
07E07E00
07801E00
02000400
00000000
00000000
7FC03FE0
FFE07FF0
FFE07FF0
FFE07FF0
7FC03FE0
0FC01F80
0FC03F00
07E07E00
03E0FC00
03F1FC00
01FBF800
01FBF000
00FFE000
007FE000
007FC000
003F8000
001F0000
001F0000
001F0000
001F0000
001F0000
001F0000
001F0000
001F0000
03FFF800
07FFFC00
07FFFC00
07FFFC00
03FFF800
ENDCHAR
STARTCHAR 0177
ENCODING 375
SWIDTH 600 0
DWIDTH 30 0
BBX 28 42 1 -10
BITMAP
00060000
001F8000
007FE000
00FFF000
03F9FC00
07E07E00
07C03E00
03000C00
00000000
00000000
7FC03FE0
FFE07FF0
FFE07FF0
FFE07FF0
7FC03FE0
1F000F80
1F801F80
0F801F00
0FC03F00
07E03E00
07E07E00
03F07C00
03F0FC00
01F9F800
01F9F800
00FFF000
00FFF000
007FE000
007FC000
003FC000
003F8000
001F8000
001F0000
003F0000
003E0000
007E0000
007C0000
7FFF0000
FFFF8000
FFFF8000
FFFF8000
7FFF0000
ENDCHAR
STARTCHAR 0178
ENCODING 376
SWIDTH 600 0
DWIDTH 30 0
BBX 28 38 1 0
BITMAP
00802000
01E07800
03F0FC00
03F0FC00
03F0FC00
01E07800
00000000
00000000
00000000
7FC03FE0
FFE07FF0
FFE07FF0
FFE07FF0
7FC03FE0
0FC01F80
0FC03F00
07E07E00
03E0FC00
03F1FC00
01FBF800
01FBF000
00FFE000
007FE000
007FC000
003F8000
001F0000
001F0000
001F0000
001F0000
001F0000
001F0000
001F0000
001F0000
03FFF800
07FFFC00
07FFFC00
07FFFC00
03FFF800
ENDCHAR
STARTCHAR 0179
ENCODING 377
SWIDTH 600 0
DWIDTH 30 0
BBX 22 40 4 0
BITMAP
000700
000F80
001F00
003E00
007C00
00F800
00F000
006000
000000
000000
000000
7FFFF8
7FFFF8
7FFFF8
7FFFF8
7FFFF8
7C03F8
7C07F0
7C07E0
7C0FC0
7C1F80
7C3F80
383F00
007E00
00FC00
01FC00
03F800
03F000
07E038
0FC07C
1FC07C
1F807C
3F007C
7E007C
FE007C
FFFFFC
FFFFFC
FFFFFC
FFFFFC
FFFFFC
ENDCHAR
STARTCHAR 017A
ENCODING 378
SWIDTH 600 0
DWIDTH 30 0
BBX 22 33 4 0
BITMAP
000780
000F80
001F00
003E00
007C00
00F800
00F000
006000
000000
000000
000000
7FFFF8
7FFFF8
7FFFF8
7FFFF8
7FFFF8
7C07F0
7C0FE0
7C1FC0
383F80
007F00
00FC00
01F800
03F000
07E000
0FC030
1F807C
3F007C
7FFFFC
FFFFFC
FFFFFC
FFFFFC
FFFFFC
ENDCHAR
STARTCHAR 017B
ENCODING 379
SWIDTH 600 0
DWIDTH 30 0
BBX 22 39 4 0
BITMAP
002000
007800
00FC00
00FC00
00FC00
007800
000000
000000
000000
000000
7FFFF8
7FFFF8
7FFFF8
7FFFF8
7FFFF8
7C03F8
7C07F0
7C07E0
7C0FC0
7C1F80
7C3F80
383F00
007E00
00FC00
01FC00
03F800
03F000
07E038
0FC07C
1FC07C
1F807C
3F007C
7E007C
FE007C
FFFFFC
FFFFFC
FFFFFC
FFFFFC
FFFFFC
ENDCHAR
STARTCHAR 017C
ENCODING 380
SWIDTH 600 0
DWIDTH 30 0
BBX 22 32 4 0
BITMAP
001000
007C00
007C00
007E00
007C00
007C00
000000
000000
000000
000000
7FFFF8
7FFFF8
7FFFF8
7FFFF8
7FFFF8
7C07F0
7C0FE0
7C1FC0
383F80
007F00
00FC00
01F800
03F000
07E000
0FC030
1F807C
3F007C
7FFFFC
FFFFFC
FFFFFC
FFFFFC
FFFFFC
ENDCHAR
STARTCHAR 017D
ENCODING 381
SWIDTH 600 0
DWIDTH 30 0
BBX 22 40 4 1
BITMAP
1C00F0
3F03F0
1FC7E0
0FFFC0
03FF00
00FE00
007800
001000
000000
000000
000000
7FFFF8
7FFFF8
7FFFF8
7FFFF8
7FFFF8
7C03F8
7C07F0
7C07E0
7C0FC0
7C1F80
7C3F80
383F00
007E00
00FC00
01FC00
03F800
03F000
07E038
0FC07C
1FC07C
1F807C
3F007C
7E007C
FE007C
FFFFFC
FFFFFC
FFFFFC
FFFFFC
FFFFFC
ENDCHAR
STARTCHAR 017E
ENCODING 382
SWIDTH 600 0
DWIDTH 30 0
BBX 22 34 4 0
BITMAP
180060
3E01F0
3F87E0
1FDFC0
07FF80
03FE00
00FC00
003000
000000
000000
000000
000000
7FFFF8
7FFFF8
7FFFF8
7FFFF8
7FFFF8
7C07F0
7C0FE0
7C1FC0
383F80
007F00
00FC00
01F800
03F000
07E000
0FC030
1F807C
3F007C
7FFFFC
FFFFFC
FFFFFC
FFFFFC
FFFFFC
ENDCHAR
STARTCHAR 017F
ENCODING 383
SWIDTH 600 0
DWIDTH 30 0
BBX 24 31 4 0
BITMAP
001FF8
007FFE
00FFFF
01FFFF
03FFFE
03F000
03E000
03E000
03E000
3FE000
7FE000
7FE000
7FE000
3FE000
03E000
03E000
03E000
03E000
03E000
03E000
03E000
03E000
03E000
03E000
03E000
03E000
7FFFF0
FFFFF8
FFFFF8
FFFFF8
7FFFF0
ENDCHAR
STARTCHAR 0180
ENCODING 384
SWIDTH 600 0
DWIDTH 30 0
BBX 29 31 0 0
BITMAP
7FFF0000
FFFF8000
FFFF8000
FFFF8000
7FFF0000
0F800000
0F800000
0F800000
0F800000
0F9FFC00
0FBFFF00
0FFFFF80
0FFFFFC0
0FFFFFE0
0FF007F0
0FE003F0
0FC001F0
0FC001F8
0F8000F8
0F8000F8
0F8000F8
0F8000F8
0F8000F8
0FC001F8
0FE003F0
0FF007F0
7FFFFFE0
FFFFFFC0
FFFFFF80
FFFFFF00
7F8FFC00
ENDCHAR
STARTCHAR 0181
ENCODING 385
SWIDTH 600 0
DWIDTH 30 0
BBX 31 29 -2 0
BITMAP
0FFFFE00
3FFFFF80
7FFFFFC0
FFFFFFE0
FFFFFFF0
F8F803F8
FCF801F8
7CF800F8
7CF800F8
38F800F8
00F801F8
00F807F0
00FFFFE0
00FFFFC0
00FFFFE0
00FFFFF0
00FFFFF8
00F801FC
00F8007C
00F8007E
00F8003E
00F8003E
00F8003E
00F800FE
07FFFFFC
0FFFFFFC
0FFFFFF8
0FFFFFE0
07FFFF80
ENDCHAR
STARTCHAR 0182
ENCODING 386
SWIDTH 600 0
DWIDTH 30 0
BBX 28 29 1 0
BITMAP
7FFFFFE0
FFFFFFE0
FFFFFFE0
FFFFFFE0
7FFFFFE0
0F8003E0
0F8003E0
0F8003E0
0F8003E0
0F8003E0
0F8001C0
0F800000
0FFFFC00
0FFFFF00
0FFFFFC0
0FFFFFE0
0FFFFFE0
0F8007F0
0F8003F0
0F8001F0
0F8001F0
0F8001F0
0F8003F0
0F8007F0
7FFFFFE0
FFFFFFE0
FFFFFFC0
FFFFFF80
7FFFFC00
ENDCHAR
STARTCHAR 0183
ENCODING 387
SWIDTH 600 0
DWIDTH 30 0
BBX 29 31 0 0
BITMAP
7FFFFFC0
FFFFFFE0
FFFFFFE0
FFFFFFE0
7FFFFFC0
0F800000
0F800000
0F800000
0F800000
0F9FFC00
0FBFFF00
0FFFFF80
0FFFFFC0
0FFFFFE0
0FF007F0
0FE003F0
0FC001F0
0FC001F8
0F8000F8
0F8000F8
0F8000F8
0F8000F8
0F8000F8
0FC001F8
0FE003F0
0FF007F0
7FFFFFE0
FFFFFFC0
FFFFFF80
FFFFFF00
7F8FFC00
ENDCHAR
STARTCHAR 0184
ENCODING 388
SWIDTH 600 0
DWIDTH 30 0
BBX 28 31 1 0
BITMAP
07180000
0FFC0000
0FFC0000
0FFC0000
0FF80000
1FE00000
3FC00000
7F800000
FF800000
FF800000
FF800000
0F800000
0FFF8000
0FFFFC00
0FFFFF00
0FFFFF80
0FFFFFC0
0F801FE0
0F8007E0
0F8003F0
0F8001F0
0F8001F0
0F8001F0
0F8001F0
0F8003F0
0F8007E0
7FFFFFE0
FFFFFFC0
FFFFFF80
FFFFFF00
7FFFF800
ENDCHAR
STARTCHAR 0185
ENCODING 389
SWIDTH 600 0
DWIDTH 30 0
BBX 29 32 0 -1
BITMAP
02000000
0FBC0000
0FFC0000
0FFC0000
0FF80000
0FF00000
1FE00000
7FC00000
FF81E000
FF8FFC00
FFBFFF00
7FFFFF80
0FFFFFC0
0FFC1FE0
0FF007F0
0FE003F0
0FC001F8
0F8000F8
0F8000F8
0F8000F8
0F8000F8
0F8000F8
0F8000F8
0FC001F0
0FC003F0
0FE003F0
3FF80FE0
FFFFFFC0
FFFFFF80
FFBFFF00
7F9FFE00
0007F000
ENDCHAR
STARTCHAR 0186
ENCODING 390
SWIDTH 600 0
DWIDTH 30 0
BBX 27 30 1 0
BITMAP
001C0000
07FFE000
1FFFF800
3FFFFC00
7FFFFE00
FFE3FF00
FC003F80
78001F80
00000FC0
000007C0
000007E0
000003E0
000003E0
000003E0
000003E0
000003E0
000003E0
000003E0
000003E0
380007E0
7C0007C0
7C000FC0
7C000FC0
7E001F80
7F807F00
7FFFFF00
7FFFFE00
7FFFFC00
7FFFF000
38FFC000
ENDCHAR
STARTCHAR 0187
ENCODING 391
SWIDTH 600 0
DWIDTH 30 0
BBX 32 33 2 1
BITMAP
000001FC
000003FE
000003FF
000007FF
00FFE7DE
03FFFFCC
07FFFFC0
0FFFFFC0
1FFFFFC0
3FC03FC0
3F000FC0
7E0007C0
7C0007C0
FC0007C0
F8000000
F8000000
F8000000
F8000000
F8000000
F8000000
F8000000
F8000000
F8000000
FC000000
7C000000
7E000000
7F0003C0
3FC00FE0
1FFFFFE0
0FFFFFC0
07FFFF80
03FFFF00
007FF800
ENDCHAR
STARTCHAR 0188
ENCODING 392
SWIDTH 600 0
DWIDTH 30 0
BBX 30 27 3 0
BITMAP
000007F0
00000FF8
00000FFC
00001FFC
01FFFF38
07FFFF00
0FFFFF00
1FFFFF00
3FFFFF00
7F003F00
7E001F00
7C001F00
FC001F00
F8000000
F8000000
F8000000
F8000000
F8000000
FC000000
7C000300
7E000F80
7F803F80
3FFFFF80
1FFFFF00
0FFFFE00
03FFFC00
007FC000
ENDCHAR
STARTCHAR 0189
ENCODING 393
SWIDTH 600 0
DWIDTH 30 0
BBX 26 29 1 0
BITMAP
7FFF8000
FFFFE000
FFFFF800
FFFFFC00
7FFFFE00
1F00FF00
1F003F00
1F001F80
1F000F80
1F000F80
1F000FC0
1F0007C0
7FFC07C0
FFFE07C0
FFFE07C0
FFFE07C0
7FFC07C0
1F0007C0
1F0007C0
1F000FC0
1F000F80
1F001F80
1F003F80
1F007F00
7FFFFE00
FFFFFC00
FFFFF800
FFFFF000
7FFF8000
ENDCHAR
STARTCHAR 018A
ENCODING 394
SWIDTH 600 0
DWIDTH 30 0
BBX 31 29 -4 0
BITMAP
0FFFFC00
3FFFFF00
7FFFFFC0
FFFFFFE0
FFFFFFF0
F8F807F8
FCF801F8
FCF800FC
7CF8007C
38F8007C
00F8007E
00F8003E
00F8003E
00F8003E
00F8003E
00F8003E
00F8003E
00F8003E
00F8003E
00F8007E
00F8007C
00F800FC
00F801FC
00F803F8
03FFFFF0
07FFFFE0
07FFFFC0
07FFFF80
03FFFC00
ENDCHAR
STARTCHAR 018B
ENCODING 395
SWIDTH 600 0
DWIDTH 30 0
BBX 28 29 1 0
BITMAP
7FFFFFE0
7FFFFFF0
7FFFFFF0
7FFFFFF0
7FFFFFE0
7C001F00
7C001F00
7C001F00
7C001F00
7C001F00
38001F00
00001F00
03FFFF00
0FFFFF00
3FFFFF00
7FFFFF00
7FFFFF00
FE001F00
FC001F00
F8001F00
F8001F00
F8001F00
FC001F00
FE001F00
7FFFFFE0
7FFFFFF0
3FFFFFF0
1FFFFFF0
03FFFFE0
ENDCHAR
STARTCHAR 018C
ENCODING 396
SWIDTH 600 0
DWIDTH 30 0
BBX 29 31 2 0
BITMAP
1FFFFF80
3FFFFF80
3FFFFF80
3FFFFF80
1FFFFF80
00000F80
00000F80
00000F80
00000F80
01FF8F80
07FFEF80
0FFFFF80
1FFFFF80
3FFFFF80
7F007F80
7E003F80
FC001F80
FC001F80
F8000F80
F8000F80
F8000F80
F8000F80
F8000F80
FC001F80
7E003F80
7F007F80
3FFFFFF0
1FFFFFF8
0FFFFFF8
07FFEFF8
01FF8FF0
ENDCHAR
STARTCHAR 018D
ENCODING 397
SWIDTH 600 0
DWIDTH 30 0
BBX 26 33 2 -10
BITMAP
007F0000
01FFE000
07FFF800
0FFFFC00
1FFFFE00
3FC0FF00
7F003F80
7E001F80
FC000F80
F80007C0
F80007C0
F80007C0
F80007C0
F80007C0
FC000FC0
7C000F80
7E001F80
7F007F80
3FF7FF00
1FFFFE00
0FFFFC00
07FFFE00
01FFFF00
000FFF80
20001F80
78000F80
FE000F80
FFE01F80
FFFFFF00
FFFFFF00
FFFFFE00
73FFFC00
301FF000
ENDCHAR
STARTCHAR 018E
ENCODING 398
SWIDTH 600 0
DWIDTH 30 0
BBX 26 29 2 0
BITMAP
FFFFFF80
FFFFFFC0
FFFFFFC0
FFFFFFC0
FFFFFF80
F8007C00
F8007C00
F8007C00
F8207C00
F8787C00
70F87C00
00F87C00
00FFFC00
00FFFC00
00FFFC00
00FFFC00
00FFFC00
00F87C00
38F87C00
7C787C00
7C207C00
7C007C00
7C007C00
7C007C00
7FFFFF80
7FFFFFC0
7FFFFFC0
7FFFFFC0
7FFFFF80
ENDCHAR
STARTCHAR 018F
ENCODING 399
SWIDTH 600 0
DWIDTH 30 0
BBX 27 32 1 -1
BITMAP
001C0000
01FFC000
07FFF000
0FFFFC00
1FFFFE00
3F80FF00
7E003F80
7C001F80
78000FC0
700007C0
000007E0
000003E0
000003E0
FFFFFFE0
FFFFFFE0
FFFFFFE0
FFFFFFE0
FFFFFFE0
F00003E0
F80003E0
F80003E0
780007C0
7C0007C0
7C000FC0
3E001F80
3F003F80
1FC07F00
0FFFFE00
07FFFE00
03FFF800
01FFF000
003F8000
ENDCHAR
STARTCHAR 0190
ENCODING 400
SWIDTH 600 0
DWIDTH 30 0
BBX 24 29 3 1
BITMAP
01FF9E
07FFFE
1FFFFE
1FFFFE
3FFFFE
7F00FE
7E007E
7C003E
7C003E
7C003C
7E0000
3F8000
3FFF80
1FFFC0
1FFFC0
3FFFC0
7FFF80
7F0000
FC0000
F8000E
F8001F
F8001F
FC003F
FE00FF
7FFFFF
3FFFFF
3FFFFF
0FFFEE
03FF80
ENDCHAR
STARTCHAR 0191
ENCODING 401
SWIDTH 600 0
DWIDTH 30 0
BBX 31 35 -4 -6
BITMAP
03FFFFFE
07FFFFFE
07FFFFFE
07FFFFFE
03FFFFFE
007C003E
007C003E
007C003E
007C003E
007C3C3E
007C3E1C
007C3E00
007FFE00
007FFE00
007FFE00
007FFE00
007FFE00
007C3E00
007C3E00
007C3E00
007C1C00
007C0000
007C0000
007C0000
007C0000
007C0000
007C0000
007C0000
00FC0000
01F80000
7FF80000
FFF00000
FFE00000
FFC00000
3F000000
ENDCHAR
STARTCHAR 0192
ENCODING 402
SWIDTH 600 0
DWIDTH 30 0
BBX 23 38 4 -6
BITMAP
0001F8
0007FE
000FFE
001FFE
003FFC
003F00
007E00
007C00
007C00
007C00
007C00
007C00
0FFFE0
1FFFF0
1FFFF0
1FFFF0
0FFFE0
007C00
007C00
007C00
007C00
007C00
007C00
007C00
007C00
007C00
007C00
007C00
007C00
007C00
007C00
00FC00
01F800
7FF800
FFF000
FFE000
FFC000
3F0000
ENDCHAR
STARTCHAR 0193
ENCODING 403
SWIDTH 600 0
DWIDTH 30 0
BBX 31 32 2 1
BITMAP
000003F8
000007FC
000007FE
00FFEFFE
03FFFF9C
07FFFF80
0FFFFF80
1FFFFF80
3F801F80
3F000F80
7E000F80
7C000780
FC000200
F8000000
F8000000
F8000000
F8000000
F8000000
F807FFC0
F80FFFE0
F80FFFE0
F80FFFE0
F807FFC0
FC000F80
7C000F80
7E000F80
3F800F80
3FFFFF80
1FFFFF80
0FFFFF80
03FFFE00
00FFF000
ENDCHAR
STARTCHAR 0194
ENCODING 404
SWIDTH 600 0
DWIDTH 30 0
BBX 27 31 2 -1
BITMAP
3F001F00
FFC07FE0
FFC0FFE0
FFC0FFE0
7FC07FC0
1F003F00
0F803E00
07C07C00
07E0F800
03F1F800
01F1F000
00FBE000
00FFC000
007FC000
003F8000
001F0000
003F8000
007F8000
007FC000
00FFE000
01FBE000
01F3F000
01F1F000
01F1F000
01F1F000
01F1F000
01FFF000
00FFE000
007FE000
007FC000
001F0000
ENDCHAR
STARTCHAR 0195
ENCODING 405
SWIDTH 600 0
DWIDTH 30 0
BBX 32 31 -1 0
BITMAP
7F800000
FF800000
FF800000
FF800000
7F800000
0F800000
0F800000
0F800000
0F800000
0FFF80FF
0FFFC1FF
0FFFE1FF
0FFFE1FF
0FFFF0FF
0FC3F01F
0F81F01F
0F81F01F
0F81F01F
0F81F01F
0F81F01F
0F81F01F
0F81F01F
0F81F01F
0F81F01F
0F81F01F
0F81F83F
3FF1FFFF
7FF8FFFE
FFF8FFFE
7FF87FFC
3FF01FF0
ENDCHAR
STARTCHAR 0196
ENCODING 406
SWIDTH 600 0
DWIDTH 30 0
BBX 21 30 6 -1
BITMAP
7FF000
FFF000
FFF000
FFF000
7FF000
01F000
01F000
01F000
01F000
01F000
01F000
01F000
01F000
01F000
01F000
01F000
01F000
01F000
01F000
01F000
01F000
01F000
01F000
01F800
00FC00
00FFF0
007FF8
003FF8
001FF8
000FE0
ENDCHAR
STARTCHAR 0197
ENCODING 407
SWIDTH 600 0
DWIDTH 30 0
BBX 21 29 5 0
BITMAP
7FFFF0
FFFFF8
FFFFF8
FFFFF8
7FFFF0
00F800
00F800
00F800
00F800
00F800
00F800
00F800
7FFFF0
FFFFF8
FFFFF8
FFFFF8
7FFFF0
00F800
00F800
00F800
00F800
00F800
00F800
00F800
7FFFF0
FFFFF8
FFFFF8
FFFFF8
7FFFF0
ENDCHAR
STARTCHAR 0198
ENCODING 408
SWIDTH 600 0
DWIDTH 30 0
BBX 32 29 0 0
BITMAP
7FF83FF0
FFFC7FFC
FFFC7FFE
FFFC7FFF
3FF81FFF
0F803F1F
0F80FE1F
0F81FC7F
0F83F8FE
0F87E0FE
0F8FC0FC
0FBF8060
0FFF0000
0FFF8000
0FFFE000
0FFFF000
0FE3F800
0FC1F800
0F80FC00
0F807E00
0F803E00
0F803F00
0F801F00
0F801F80
7FF80FF0
FFFC0FF8
FFFC07F8
FFFC07F8
7FF807F8
ENDCHAR
STARTCHAR 0199
ENCODING 409
SWIDTH 600 0
DWIDTH 30 0
BBX 27 32 2 0
BITMAP
003F0000
00FFC000
01FFC000
03FFC000
07FF8000
07E00000
0FC00000
0F800000
0F800000
0F800000
0F87FE00
0F8FFF00
0F8FFF00
0F8FFF00
0F87FE00
0F9FE000
0FBFC000
0FFF0000
0FFE0000
0FFC0000
0FFC0000
0FFE0000
0FFF8000
0FBFC000
0F9FE000
0F8FF000
0F83F800
7F81FF80
FF83FFC0
FF83FFE0
FF83FFC0
7F81FF80
ENDCHAR
STARTCHAR 019A
ENCODING 410
SWIDTH 600 0
DWIDTH 30 0
BBX 23 31 4 0
BITMAP
1FFC00
3FFC00
3FFC00
3FFC00
1FFC00
007C00
007C00
007C00
007C00
007C00
007C00
007C00
007C00
007C00
3FFFF8
7FFFFC
7FFFFC
7FFFFC
3FFFF8
007C00
007C00
007C00
007C00
007C00
007C00
007C00
7FFFFC
FFFFFE
FFFFFE
FFFFFE
7FFFFC
ENDCHAR
STARTCHAR 019B
ENCODING 411
SWIDTH 600 0
DWIDTH 30 0
BBX 28 31 1 0
BITMAP
7FE02000
7FF0F800
FFFBF800
7FFFF800
3FFFF800
00FFE000
03FF8000
0FFF0000
1FFF0000
1FFF8000
1F9F8000
0E3FC000
007FC000
007FE000
00FFF000
00FFF000
01F9F800
01F9F800
03F0FC00
03F07C00
07E07E00
07E03E00
0FC03F00
0F801F00
1F801F80
1F000F80
7FC03FE0
FFE07FF0
FFE07FF0
FFE07FF0
7FC03FE0
ENDCHAR
STARTCHAR 019C
ENCODING 412
SWIDTH 600 0
DWIDTH 30 0
BBX 32 29 -1 0
BITMAP
7F0FE3FE
FF1FE7FF
FF1FE7FF
FF1FE7FF
7F0FE3FE
1F03E0F8
1F03E0F8
1F03E0F8
1F03E0F8
1F03E0F8
1F03E0F8
1F03E0F8
1F03E0F8
1F03E0F8
1F03E0F8
1F03E0F8
1F03E0F8
1F03E0F8
1F03E0F8
1F03E0F8
1F03E0F8
1F03E0F8
1F03E0F8
1F07E1F8
1FFFFFFE
1FFFFFFF
0FFFFFFF
07FEFFFF
03F87EFE
ENDCHAR
STARTCHAR 019D
ENCODING 413
SWIDTH 600 0
DWIDTH 30 0
BBX 35 35 -5 -6
BITMAP
03FC01FFC0
07FE03FFE0
07FF03FFE0
07FF03FFE0
03FF81FFC0
007FC01F00
007FC01F00
007FE01F00
007FF01F00
007FF01F00
007DF81F00
007DFC1F00
007CFC1F00
007C7E1F00
007C7F1F00
007C3F1F00
007C1F9F00
007C1FDF00
007C0FDF00
007C07FF00
007C07FF00
007C03FF00
007C01FF00
007C01FF00
007C00FF00
007C007F00
007C007F00
007C003F00
00FC001F00
01F8000000
FFF8000000
FFF0000000
FFE0000000
7FC0000000
3F80000000
ENDCHAR
STARTCHAR 019E
ENCODING 414
SWIDTH 600 0
DWIDTH 30 0
BBX 26 32 2 -9
BITMAP
7F3FE000
FF7FF000
FFFFF800
FFFFFC00
7FFFFC00
1FE07E00
1F803E00
1F003E00
1F003E00
1F003E00
1F003E00
1F003E00
1F003E00
1F003E00
1F003E00
1F003E00
1F003E00
7FE03E00
FFF03E00
FFF03E00
FFF03E00
7FE03E00
00003E00
00003E00
00003E00
00003E00
00003E00
0000FF80
0001FFC0
0001FFC0
0001FFC0
0000FF80
ENDCHAR
STARTCHAR 019F
ENCODING 415
SWIDTH 600 0
DWIDTH 30 0
BBX 28 29 1 1
BITMAP
007FE000
01FFF800
03FFFC00
07FFFE00
0FFFFF00
1FC03F80
3F801FC0
3F000FC0
7E0007E0
7C0003E0
7C0003E0
FC0003F0
F80001F0
FFFFFFF0
FFFFFFF0
FFFFFFF0
FFFFFFF0
FFFFFFF0
FC0003F0
7C0003E0
7E0007E0
7E0007E0
3F001FC0
1FC03F80
1FFFFF80
0FFFFF00
07FFFC00
01FFF800
007FE000
ENDCHAR
STARTCHAR 01A0
ENCODING 416
SWIDTH 600 0
DWIDTH 30 0
BBX 29 33 1 0
BITMAP
000000E0
000001F0
000001F0
000001F8
007FE0F8
01FFF9F8
03FFFFF8
0FFFFFF8
0FFFFFF0
1FC03FE0
3F801FC0
3F000FC0
7E0007E0
7C0003E0
FC0003E0
F80001F0
F80001F0
F80001F0
F80001F0
F80001F0
F80001F0
F80001F0
FC0003F0
7C0003E0
7E0007E0
3F000FC0
3F801FC0
1FC03F80
0FFFFF00
0FFFFF00
03FFFC00
01FFF800
007FE000
ENDCHAR
STARTCHAR 01A1
ENCODING 417
SWIDTH 600 0
DWIDTH 30 0
BBX 28 27 2 -1
BITMAP
000001C0
000003E0
000003F0
000003F0
00FFC1F0
03FFF3F0
0FFFFFF0
1FFFFFF0
3FFFFFE0
3F807FC0
7E001F80
7C000F80
FC000FC0
F80007C0
F80007C0
F80007C0
F80007C0
F80007C0
FC000FC0
7E001F80
7F003F80
3FC0FF00
1FFFFE00
0FFFFC00
07FFF800
03FFF000
007F8000
ENDCHAR
STARTCHAR 01A2
ENCODING 418
SWIDTH 600 0
DWIDTH 30 0
BBX 32 32 0 0
BITMAP
00001FC0
00007FE0
03FFFFF0
07FFFFF0
0FFFFFF8
1FFFF0F8
3FFFE0F8
3F03F0F8
7E01F8F8
7C00F8F8
7C00F8F8
F8007CF8
F8007CF8
F8007CF8
F8007CF8
F8007CF8
F8007CF8
F8007CF8
F8007CF8
F8007CF8
F8007CF8
F8007CF8
FC00FCF8
7C00F8F8
7E01F8F8
7E01F8F8
3F87F7FE
3FFFFFFF
1FFFEFFF
0FFFCFFF
07FF07FE
00FC0000
ENDCHAR
STARTCHAR 01A3
ENCODING 419
SWIDTH 600 0
DWIDTH 30 0
BBX 35 25 -2 0
BITMAP
00000FF000
00003FF800
01FFFFFC00
07FFFFFE00
0FFFFF7E00
1FFFFC3E00
3FFFFC3E00
7F00FE3E00
7E007E3E00
7C003E3E00
FC003F3E00
F8001F3E00
F8001F3E00
F8001F3E00
F8001F3E00
F8001F3E00
FC003F3E00
7C003E3E00
7E007E3E00
3F81FCFFC0
3FFFFDFFE0
1FFFFBFFE0
0FFFF1FFE0
03FFC0FFC0
00FF000000
ENDCHAR
STARTCHAR 01A4
ENCODING 420
SWIDTH 600 0
DWIDTH 30 0
BBX 30 29 -4 0
BITMAP
0FFFFE00
3FFFFF80
7FFFFFE0
FFFFFFF0
FFFFFFF8
F87C03F8
FC7C00FC
7E7C007C
7C7C007C
1C7C007C
007C007C
007C007C
007C00FC
007C03F8
007FFFF8
007FFFF0
007FFFE0
007FFFC0
007FFE00
007C0000
007C0000
007C0000
007C0000
007C0000
03FFF800
07FFFC00
07FFFC00
07FFFC00
03FFF800
ENDCHAR
STARTCHAR 01A5
ENCODING 421
SWIDTH 600 0
DWIDTH 30 0
BBX 29 42 0 -10
BITMAP
003F0000
00FFC000
01FFC000
03FFC000
07FF8000
07E00000
0FC00000
0F800000
0F800000
0F800000
0F8FFC00
0FBFFF00
0FFFFF80
0FFFFFC0
0FFFFFE0
0FF007F0
0FE003F0
0FC001F8
0F8000F8
0F8000F8
0F8000F8
0F8000F8
0FC001F8
0FC001F8
0FE003F0
0FF80FF0
0FFFFFE0
0FFFFFC0
0FFFFF80
0F9FFE00
0F87F800
0F800000
0F800000
0F800000
0F800000
0F800000
0F800000
7FFC0000
FFFE0000
FFFE0000
FFFE0000
7FFC0000
ENDCHAR
STARTCHAR 01A6
ENCODING 422
SWIDTH 600 0
DWIDTH 30 0
BBX 28 39 1 -10
BITMAP
7FE00000
FFF00000
FFF00000
FFF00000
7FE00000
0F800000
0F800000
0FFFC000
0FFFF000
0FFFF800
0FFFFC00
0FFFFE00
0F807E00
0F803E00
0F803E00
0F807E00
0FFFFE00
0FFFFC00
0FFFF800
0FFFF000
0FFFF800
0F81F800
0F80F800
0F80F800
7FE07C00
FFF07C00
FFF07C00
FFF03C00
7FE03C00
00003C00
00003E00
00003E00
00001E00
00001E00
00001FC0
00001FE0
00000FF0
00000FE0
00000FE0
ENDCHAR
STARTCHAR 01A7
ENCODING 423
SWIDTH 600 0
DWIDTH 30 0
BBX 24 29 3 1
BITMAP
79FF80
7FFFE0
7FFFF0
7FFFF8
7FFFFC
7F00FE
7E007E
7C003E
7C003E
78003E
0000FE
0003FC
007FFC
07FFF8
1FFFF0
3FFFC0
7FFE00
7FC000
FE0000
F8000E
F8001F
F8001F
FC003F
FE007F
7FFFFF
3FFFFF
3FFFFF
0FFFEE
03FF80
ENDCHAR
STARTCHAR 01A8
ENCODING 424
SWIDTH 600 0
DWIDTH 30 0
BBX 22 23 4 0
BITMAP
77FF80
7FFFC0
7FFFF0
7FFFF0
7FFFF8
7E01F8
7C00F8
3803F8
007FF8
07FFF0
1FFFE0
3FFFC0
7FFE00
FF8000
FC0038
F8007C
F800FC
FE03FC
7FFFFC
7FFFFC
3FFFFC
0FFFF8
03FE00
ENDCHAR
STARTCHAR 01A9
ENCODING 425
SWIDTH 600 0
DWIDTH 30 0
BBX 22 29 4 0
BITMAP
FFFFFC
FFFFFC
FFFFFC
FFFFFC
FFFFFC
7C007C
7E007C
3F007C
1F807C
0F807C
0FC07C
07E038
03F000
01F800
00F800
01F000
03F000
07E038
0FC07C
0F807C
1F007C
3F007C
7E007C
FC007C
FFFFFC
FFFFFC
FFFFFC
FFFFFC
FFFFFC
ENDCHAR
STARTCHAR 01AA
ENCODING 426
SWIDTH 600 0
DWIDTH 30 0
BBX 24 36 3 -6
BITMAP
1F8000
3FE000
7FF000
FFF800
F9FC00
F0FC00
F9FE00
FFFE00
7FFE00
3FFE00
1F3E00
003E00
003E00
003E00
003E00
003E00
003E00
003E00
003E00
003E00
003E00
003E00
003E00
003E00
003E00
003E00
003E00
003E00
003E00
003F00
001F80
001FFF
000FFF
0007FF
0003FE
000070
ENDCHAR
STARTCHAR 01AB
ENCODING 427
SWIDTH 600 0
DWIDTH 30 0
BBX 25 40 1 -10
BITMAP
01000000
07C00000
07C00000
07C00000
07C00000
07C00000
07C00000
07C00000
7FFFF800
FFFFFC00
FFFFFC00
FFFFFC00
7FFFF800
07C00000
07C00000
07C00000
07C00000
07C00000
07C00000
07C00000
07C00000
07C00000
07C00000
07C00000
07C00700
07E03F80
07FFFF80
03FFFF80
01FFFF80
00FFFF80
003FCF80
00000F80
00000F80
00001F80
00003F00
000FFF00
001FFE00
001FFE00
001FF800
0007F000
ENDCHAR
STARTCHAR 01AC
ENCODING 428
SWIDTH 600 0
DWIDTH 30 0
BBX 29 29 -1 0
BITMAP
0FFFFFF8
3FFFFFF8
7FFFFFF8
7FFFFFF8
FFFFFFF8
F807C0F8
7C07C0F8
7E07C0F8
3E07C0F8
1C07C0F8
0007C0F8
0007C0F8
0007C070
0007C000
0007C000
0007C000
0007C000
0007C000
0007C000
0007C000
0007C000
0007C000
0007C000
0007C000
00FFFE00
01FFFF00
01FFFF00
01FFFF00
00FFFE00
ENDCHAR
STARTCHAR 01AD
ENCODING 429
SWIDTH 600 0
DWIDTH 30 0
BBX 25 33 1 -1
BITMAP
001F8000
007FE000
00FFE000
01FFE000
03FFC000
03F00000
07E00000
07C00000
07C00000
07C00000
7FFFF800
FFFFFC00
FFFFFC00
FFFFFC00
7FFFF800
07C00000
07C00000
07C00000
07C00000
07C00000
07C00000
07C00000
07C00000
07C00000
07C00000
07C00000
07C00F00
07E03F80
07FFFF80
03FFFF80
01FFFF00
00FFFC00
003FC000
ENDCHAR
STARTCHAR 01AE
ENCODING 430
SWIDTH 600 0
DWIDTH 30 0
BBX 26 35 2 -6
BITMAP
FFFFFFC0
FFFFFFC0
FFFFFFC0
FFFFFFC0
FFFFFFC0
F83E07C0
F83E07C0
F83E07C0
F83E07C0
F83E07C0
F83E07C0
F83E07C0
703E0380
003E0000
003E0000
003E0000
003E0000
003E0000
003E0000
003E0000
003E0000
003E0000
003E0000
003E0000
003E0000
003E0000
003E0000
003E0000
003F0000
001F8000
001FFE00
000FFF00
0007FF00
0003FF00
0001FC00
ENDCHAR
STARTCHAR 01AF
ENCODING 431
SWIDTH 600 0
DWIDTH 30 0
BBX 30 34 0 0
BITMAP
00000070
000000F8
000000FC
000000FC
0000007C
7FF07FFC
FFF8FFFC
FFF8FFFC
FFF8FFF8
7FF07FF0
1F0007C0
1F0007C0
1F0007C0
1F0007C0
1F0007C0
1F0007C0
1F0007C0
1F0007C0
1F0007C0
1F0007C0
1F0007C0
1F0007C0
1F0007C0
1F0007C0
1F0007C0
1F0007C0
1F800FC0
0F800F80
0FE03F80
07FFFF00
07FFFF00
03FFFE00
00FFF800
003FE000
ENDCHAR
STARTCHAR 01B0
ENCODING 432
SWIDTH 600 0
DWIDTH 30 0
BBX 30 28 0 0
BITMAP
00000060
000000F0
000000F8
000000FC
0000007C
0000007C
7F80FFFC
FF81FFFC
FF81FFF8
FF81FFF8
7F80FFF0
0F800F80
0F800F80
0F800F80
0F800F80
0F800F80
0F800F80
0F800F80
0F800F80
0F800F80
0F800F80
0F801F80
0FC07F80
07FFFFE0
07FFFFF0
03FFFFF0
01FFEFF0
00FF8FE0
ENDCHAR
STARTCHAR 01B1
ENCODING 433
SWIDTH 600 0
DWIDTH 30 0
BBX 26 31 3 -1
BITMAP
FFF3FFC0
FFF3FFC0
FFF3FFC0
FFF3FFC0
FFF3FFC0
F8F387C0
F8F387C0
F8F387C0
F1F3E7C0
77F3F380
1FF3FC00
3FF3FE00
3F80FE00
7E003F00
7C001F00
F8001F80
F8000F80
F8000F80
F0000F80
F0000F80
F8000F80
F8000F80
F8001F80
7C001F00
7C003F00
7E007E00
3FFFFE00
1FFFFC00
0FFFF800
07FFE000
00FF8000
ENDCHAR
STARTCHAR 01B2
ENCODING 434
SWIDTH 600 0
DWIDTH 30 0
BBX 28 31 1 -1
BITMAP
1F801F80
FFF01FE0
FFF01FF0
FFF01FF0
7FE01FE0
0F801F00
0F801F00
0F801F00
0F801F00
0F801F00
0F801F00
0F801F00
0F801F00
0F801F00
0F801F00
0F801F00
0F801F00
0F801F00
0F801F00
0F801F00
0F801F00
0F801F00
0F801F00
0F801F00
0FC03F00
07E07E00
07FFFE00
03FFFE00
03FFFC00
00FFF000
003FC000
ENDCHAR
STARTCHAR 01B3
ENCODING 435
SWIDTH 600 0
DWIDTH 30 0
BBX 31 29 -2 0
BITMAP
0FFC07FC
7FFC0FFE
FFFE0FFE
FFFC0FFE
FFFC07FC
F9F803F0
F8FC07E0
FCFE0FC0
FC7E0FC0
7C3F1F80
101FBF00
001FBF00
000FFE00
0007FC00
0007FC00
0003F800
0001F000
0001F000
0001F000
0001F000
0001F000
0001F000
0001F000
0001F000
003FFF80
007FFFC0
007FFFC0
007FFFC0
003FFF80
ENDCHAR
STARTCHAR 01B4
ENCODING 436
SWIDTH 600 0
DWIDTH 30 0
BBX 33 37 1 -10
BITMAP
0000000E00
0000001F00
0000001F00
0000001F80
0000000F80
7FC01FFF80
FFE03FFF80
FFE03FFF00
FFE03FFE00
7FC01FF800
1F000F8000
1F801F8000
0F801F0000
0FC03F0000
07C03E0000
07E07E0000
03E0FC0000
03F0FC0000
01F9F80000
01F9F80000
00FFF00000
00FFF00000
007FE00000
007FC00000
003FC00000
003F800000
001F800000
001F000000
003F000000
003E000000
007E000000
007C000000
7FFF000000
FFFF800000
FFFF800000
FFFF800000
7FFF000000
ENDCHAR
STARTCHAR 01B5
ENCODING 437
SWIDTH 600 0
DWIDTH 30 0
BBX 22 29 4 0
BITMAP
7FFFF8
7FFFF8
7FFFF8
7FFFF8
7FFFF8
7C03F0
7C07F0
7C07E0
380FC0
001F80
003F00
007E00
7FFFE0
FFFFF0
FFFFF0
FFFFF0
7FFFE0
07E000
0FC000
1F8010
1F807C
3F007C
7E007C
FE007C
FFFFFC
FFFFFC
FFFFFC
FFFFFC
FFFFFC
ENDCHAR
STARTCHAR 01B6
ENCODING 438
SWIDTH 600 0
DWIDTH 30 0
BBX 22 22 4 0
BITMAP
7FFFF8
7FFFF8
7FFFF8
7FFFF8
7FFFF8
7C07F0
7C0FC0
7C1F80
383F00
0FFF80
3FFFC0
3FFFC0
3FFFC0
1FFFC0
0FC030
1F807C
3F007C
7FFFFC
FFFFFC
FFFFFC
FFFFFC
FFFFFC
ENDCHAR
STARTCHAR 01B7
ENCODING 439
SWIDTH 600 0
DWIDTH 30 0
BBX 25 32 3 -3
BITMAP
3FFFFC00
3FFFFC00
3FFFFC00
3FFFFC00
3FFFFC00
3E01F800
3E01F800
3E03F000
1C07E000
000FC000
001F8000
001F8000
007FE000
00FFF800
00FFFC00
00FFFE00
007FFF00
00003F00
00001F80
00000F80
00000F80
00000F80
00000F80
70000F80
F8001F80
FE003F00
FF80FF00
7FFFFE00
3FFFFC00
0FFFF800
03FFF000
007F8000
ENDCHAR
STARTCHAR 01B8
ENCODING 440
SWIDTH 600 0
DWIDTH 30 0
BBX 25 32 2 -3
BITMAP
0FFFFF00
0FFFFF00
0FFFFF00
0FFFFF00
0FFFFF00
0FC01F00
07E01F00
03E01F00
01F00E00
01F80000
00FC0000
007C0000
03FF0000
0FFF8000
1FFF8000
3FFF8000
7FFF0000
7E000000
FC000000
F8000000
F8000000
F8000000
F8000000
F8000700
FC000F80
7E003F80
7F80FF80
3FFFFF00
1FFFFE00
0FFFF800
07FFE000
00FF0000
ENDCHAR
STARTCHAR 01B9
ENCODING 441
SWIDTH 600 0
DWIDTH 30 0
BBX 20 32 3 -9
BITMAP
1FFF80
FFFFE0
FFFFE0
FFFFE0
7FFFC0
0FC000
07E000
03F000
01F800
01FC00
07FE00
0FFF00
1FFF80
1FFF80
3E0780
3E0000
7C0000
7C0000
7C0000
7C0000
7C0000
7C0000
7C0000
7C0000
3E0060
3E01F0
3F03F0
1FFFF0
0FFFE0
07FF80
03FF00
00F800
ENDCHAR
STARTCHAR 01BA
ENCODING 442
SWIDTH 600 0
DWIDTH 30 0
BBX 20 33 3 -10
BITMAP
0FFFC0
3FFFF0
7FFFF0
7FFFF0
3FFFF0
003F80
007F00
00FE00
01FC00
03FE00
07FF80
0FFFC0
1FFFE0
1FC7E0
1F01E0
0001E0
0001E0
0001E0
0003E0
00FFE0
0FFFC0
3FFF80
7FFF00
7FFC00
FC0000
F80040
F801E0
F803F0
FFFFE0
7FFFE0
7FFFC0
1FFF00
07FC00
ENDCHAR
STARTCHAR 01BB
ENCODING 443
SWIDTH 600 0
DWIDTH 30 0
BBX 23 30 3 0
BITMAP
00FE00
03FF80
0FFFE0
1FFFF0
3FFFF0
3F03F8
7E00F8
7C00FC
7C007C
38007C
00007C
0000FC
0000FC
0FFFFC
1FFFFE
1FFFFE
1FFFFE
0FFFFC
00FF00
01FE00
03FC00
0FF800
1FE01C
3FC03E
FF803E
FFFFFE
FFFFFE
FFFFFE
FFFFFE
FFFFFE
ENDCHAR
STARTCHAR 01BC
ENCODING 444
SWIDTH 600 0
DWIDTH 30 0
BBX 24 31 3 -1
BITMAP
3FFFC0
FFFFF8
FFFFF8
FFFFFC
7FFFF8
1F0000
1F0000
1F0000
1F0000
1F0E00
1FFFE0
1FFFF0
1FFFF8
1FFFFC
1F80FE
0E007E
00003F
00001F
00001F
00001F
00001F
00001F
00003F
78003E
7C007E
7F00FE
7FFFFC
3FFFF8
0FFFF0
07FFE0
00FF00
ENDCHAR
STARTCHAR 01BD
ENCODING 445
SWIDTH 600 0
DWIDTH 30 0
BBX 19 24 4 -1
BITMAP
1FFF00
FFFFC0
FFFFE0
FFFFE0
FFFFC0
7C0000
7C0000
7C0000
7FF800
7FFE00
7FFF80
7FFF80
3FFFC0
0007C0
0003C0
0003C0
0003C0
3003C0
7C07C0
7FFFC0
7FFF80
3FFF00
1FFE00
03F800
ENDCHAR
STARTCHAR 01BE
ENCODING 446
SWIDTH 600 0
DWIDTH 30 0
BBX 21 31 5 -1
BITMAP
01FC00
07FF00
07FF00
07FF00
03FE00
00F800
00F800
00F800
1FFF80
3FFFE0
3FFFE0
3FFFE0
1FFFC0
00F800
00FE00
00FF00
00FFC0
003FE0
000FF0
0003F0
0001F8
0000F8
7000F8
F800F8
F800F8
F801F8
FF07F0
FFFFE0
FFFFE0
3FFF80
03FE00
ENDCHAR
STARTCHAR 01BF
ENCODING 447
SWIDTH 600 0
DWIDTH 30 0
BBX 28 34 0 -10
BITMAP
00007C00
3F87FFC0
FF9FFFE0
FFBFFFF0
FFFFFFF0
7FFF01F0
0FF800F0
0FF000F0
0FC000F0
0F8001F0
0F8001F0
0F8003E0
0F8007E0
0F801FC0
0F803F80
0F807F00
0F80FE00
0F83FC00
0F87F800
0F8FE000
0F9FC000
0FFF8000
0FFF0000
0FFC0000
0FF80000
0FF00000
0FE00000
0F800000
0F800000
3FF80000
FFFE0000
FFFE0000
FFFE0000
7FFC0000
ENDCHAR
STARTCHAR 01C0
ENCODING 448
SWIDTH 600 0
DWIDTH 30 0
BBX 5 39 13 -8
BITMAP
70
F8
F8
F8
F8
F8
F8
F8
F8
F8
F8
F8
F8
F8
F8
F8
F8
F8
F8
F8
F8
F8
F8
F8
F8
F8
F8
F8
F8
F8
F8
F8
F8
F8
F8
F8
F8
F8
20
ENDCHAR
STARTCHAR 01C1
ENCODING 449
SWIDTH 600 0
DWIDTH 30 0
BBX 14 39 8 -8
BITMAP
7038
F87C
F87C
F87C
F87C
F87C
F87C
F87C
F87C
F87C
F87C
F87C
F87C
F87C
F87C
F87C
F87C
F87C
F87C
F87C
F87C
F87C
F87C
F87C
F87C
F87C
F87C
F87C
F87C
F87C
F87C
F87C
F87C
F87C
F87C
F87C
F87C
F87C
2010
ENDCHAR
STARTCHAR 01C2
ENCODING 450
SWIDTH 600 0
DWIDTH 30 0
BBX 26 39 2 -8
BITMAP
000E0000
001E0000
001F0000
001F0000
001F0000
001F0000
001F0000
001F0000
001F0000
001F0000
001F0000
7FFFFF80
FFFFFFC0
FFFFFFC0
FFFFFFC0
7FFFFFC0
001F0000
001F0000
7FFFFF80
FFFFFFC0
FFFFFFC0
FFFFFFC0
7FFFFFC0
001F0000
001F0000
001F0000
001F0000
001F0000
001F0000
001F0000
001F0000
001F0000
001F0000
001F0000
001F0000
001F0000
001E0000
001E0000
000C0000
ENDCHAR
STARTCHAR 01C3
ENCODING 451
SWIDTH 600 0
DWIDTH 30 0
BBX 8 33 11 -1
BITMAP
3C
7E
FF
FF
FF
FF
FF
FF
FF
FF
7E
7E
7E
7E
7E
7E
7E
7E
7E
7E
3E
3C
3C
00
00
00
18
7E
FF
FF
FF
7E
3C
ENDCHAR
STARTCHAR 01C4
ENCODING 452
SWIDTH 600 0
DWIDTH 30 0
BBX 30 40 0 1
BITMAP
0007003C
000FC0FC
0007F1F8
0003FFF0
0000FFC0
00003F80
00001E00
00000400
00000000
00000000
00000000
7FC0FFF8
FFF0FFF8
FFF8FFF8
FFFCFFF8
7FFEFFF8
3E3EF8F8
3E1FF9F0
3E1FF9F0
3E1FF9E0
3E0FFBE0
3E0FFBC0
3E0FB7C0
3E0F87C0
3E0F8780
3E0F8F80
3E0F8F00
3E0F9F10
3E0F9E7C
3E0FBE7C
3E0FBE7C
3E0FBC7C
3E1F7C7C
3E1F787C
3E3FF87C
7FFEFFFC
FFFEFFFC
FFFCFFFC
FFF8FFFC
7FE0FFFC
ENDCHAR
STARTCHAR 01C5
ENCODING 453
SWIDTH 600 0
DWIDTH 30 0
BBX 30 34 0 1
BITMAP
000F003C
000FC0FC
0007F3F8
0003FFF0
3E00FFC0
FFF07F80
FFF81E00
FFFC0000
FFFE0000
3E7E0000
3E1F0000
3E1FFFF8
3E1FFFF8
3E0FFFF8
3E0FFFF8
3E0FFFF8
3E0FF1F0
3E0FF3F0
3E0FF7E0
3E0FF7E0
3E0F8FC0
3E0F8FC0
3E0F9F80
3E0F9F00
3E0FBF00
3E0FBE38
3E1FFE7C
3E1F7C7C
3E3FFC7C
7FFFFFFC
FFFFFFFC
FFFDFFFC
FFF9FFFC
7FE1FFFC
ENDCHAR
STARTCHAR 01C6
ENCODING 454
SWIDTH 600 0
DWIDTH 30 0
BBX 30 37 0 -1
BITMAP
0007003C
000FC0FC
0007F1F8
0003FFF0
00FEFFC0
03FE3F80
03FE1E00
03FE0400
01FE0000
003E0000
003E0000
003E0000
003E0000
1FFFFFF8
3FFFFFF8
3FFFFFF8
7FFFFFF8
7CFFFFF8
7C7FF3F0
F87FF7E0
F83FF7E0
F83EEFC0
F83E0FC0
F83E1F80
F83E1F80
F83E3F00
F83E3F00
F83E7E70
F83E7CF8
F87EFCF8
7C7EF8F8
7C7FFFF8
7FFFFFF8
3FFFFFF8
3FFFFFF8
1FFFFFF8
0FC00000
ENDCHAR
STARTCHAR 01C7
ENCODING 455
SWIDTH 600 0
DWIDTH 30 0
BBX 30 29 0 0
BITMAP
7FC01FF8
FFE03FFC
FFF03FFC
FFE03FFC
7FC01FF8
1F0003E0
1F0003E0
1F0003E0
1F0003E0
1F0003E0
1F0003E0
1F0003E0
1F0003E0
1F0003E0
1F0003E0
1F0203E0
1F0783E0
1F0F83E0
1F0F83E0
1F0F83E0
1F0F83E0
1F0F83E0
1F0F83E0
1F0F87E0
7FFFFFC0
FFFFFFC0
FFFFFF80
FFFFFF00
7FFFFE00
ENDCHAR
STARTCHAR 01C8
ENCODING 456
SWIDTH 600 0
DWIDTH 30 0
BBX 27 41 1 -10
BITMAP
00003F00
00003F00
7FF83F00
FFFC3F00
FFFC3F00
FFFC0000
7FF80000
0F800000
0F800000
0F81FFE0
0F83FFE0
0F83FFE0
0F83FFE0
0F81FFE0
0F8003E0
0F8003E0
0F8003E0
0F8003E0
0F80E3E0
0F81F3E0
0F81F3E0
0F81F3E0
0F81F3E0
0F81F3E0
0F81F3E0
0F81F3E0
7FFFF3E0
FFFFF3E0
FFFFF3E0
FFFFF3E0
7FFFF3E0
000003E0
000003E0
000003E0
000007E0
00000FC0
003FFFC0
007FFF80
007FFF00
007FFE00
003FF800
ENDCHAR
STARTCHAR 01C9
ENCODING 457
SWIDTH 600 0
DWIDTH 30 0
BBX 27 41 1 -10
BITMAP
3FF03F00
7FF03F00
7FF03F00
7FF03F00
3FF03F00
01F00000
01F00000
01F00000
01F00000
01F1FFE0
01F3FFE0
01F3FFE0
01F3FFE0
01F1FFE0
01F003E0
01F003E0
01F003E0
01F003E0
01F003E0
01F003E0
01F003E0
01F003E0
01F003E0
01F003E0
01F003E0
01F003E0
7FFF83E0
FFFFC3E0
FFFFC3E0
FFFFC3E0
7FFF83E0
000003E0
000003E0
000003E0
000007E0
00000FC0
003FFFC0
007FFF80
007FFF00
007FFE00
003FF800
ENDCHAR
STARTCHAR 01CA
ENCODING 458
SWIDTH 600 0
DWIDTH 30 0
BBX 32 31 -1 -1
BITMAP
3F07E000
FF9FFBFF
FFBFFFFF
FF9FFFFF
FFCFFBFF
1FC3E0F8
1FC3E0F8
1FE3E0F8
1FE3E0F8
1FE3E0F8
1FF3E0F8
1FF3E0F8
1FF3E0F8
1FFBE0F8
1FFBE0F8
1F7FECF8
1F7FFEF8
1F7FFEF8
1F3FFEF8
1F3FFEF8
1F3FFEF8
1F1FFEF8
1F1FFEF8
1F1FFEF8
1F0FFEF8
1F8FFEF8
7FE7FFF8
7FE7FFF8
7FE7EFF0
7FC3EFF0
000003C0
ENDCHAR
STARTCHAR 01CB
ENCODING 459
SWIDTH 600 0
DWIDTH 30 0
BBX 29 41 0 -10
BITMAP
000000F8
000000F8
7F0FF0F8
FF9FF8F8
FF9FF8F8
FF9FF800
7FCFF800
1FC3E000
1FE3E000
1FE3E3F8
1FE3E7F8
1FF3E7F8
1FF3E7F8
1FFBE3F8
1FFBE0F8
1FFBE0F8
1F7FE0F8
1F7FE0F8
1F7FE0F8
1F3FE0F8
1F3FE0F8
1F3FE0F8
1F1FE0F8
1F1FE0F8
1F0FE0F8
1F0FE0F8
7FCFE0F8
FFE7E0F8
FFE7E0F8
FFE7E0F8
7FC3E0F8
000000F8
000000F8
000000F8
000001F8
000003F0
000FFFF0
001FFFE0
001FFFC0
001FFF80
000FFE00
ENDCHAR
STARTCHAR 01CC
ENCODING 460
SWIDTH 600 0
DWIDTH 30 0
BBX 28 41 0 -10
BITMAP
000003F0
000003F0
000003F0
000003F0
000003F0
00000000
00000000
00000000
00000000
7F7E0FF0
FFFF1FF0
FFFF9FF0
FFFF9FF0
7FFFCFF0
1F87C1F0
1F07C1F0
1F07C1F0
1F07C1F0
1F07C1F0
1F07C1F0
1F07C1F0
1F07C1F0
1F07C1F0
1F07C1F0
1F07C1F0
1F07C1F0
7FC7F1F0
FFE7F9F0
FFE7F9F0
FFE7F9F0
FFC7F1F0
000001F0
000001F0
000001F0
000003F0
000007E0
001FFFE0
003FFFC0
003FFF80
003FFF00
001FFC00
ENDCHAR
STARTCHAR 01CD
ENCODING 461
SWIDTH 600 0
DWIDTH 30 0
BBX 32 40 -1 1
BITMAP
03801E00
03E03E00
03F8FE00
00FFF800
007FE000
001FC000
000F0000
00020000
00000000
00000000
00000000
07FFC000
07FFE000
07FFE000
07FFF000
03FFF000
001FF000
003FF800
003EF800
003EFC00
007E7C00
007C7E00
00FC3E00
00F83E00
00F83F00
01F81F00
01F01F80
03FFFF80
03FFFF80
03FFFFC0
07FFFFC0
07FFFFE0
0FC007E0
0F8003F0
0F8003F0
7FF01FFC
FFF83FFE
FFF83FFF
FFF83FFE
7FF01FFC
ENDCHAR
STARTCHAR 01CE
ENCODING 462
SWIDTH 600 0
DWIDTH 30 0
BBX 26 34 2 -1
BITMAP
04001800
0F007800
0FC1F800
07F7F000
03FFE000
00FF8000
003F0000
001C0000
00000000
00000000
00000000
03FFC000
0FFFF000
1FFFF800
1FFFF800
1FFFFC00
0000FC00
00007C00
007C7C00
03FFFC00
0FFFFC00
1FFFFC00
3FFFFC00
7F00FC00
FC007C00
F8007C00
F8007C00
F801FC00
FC0FFF80
7FFFFFC0
7FFFFFC0
3FFFFFC0
1FFF7F80
07F80000
ENDCHAR
STARTCHAR 01CF
ENCODING 463
SWIDTH 600 0
DWIDTH 30 0
BBX 21 40 5 1
BITMAP
3801E0
3E03E0
3F8FE0
0FFF80
07FE00
01FC00
00F000
002000
000000
000000
000000
7FFFF0
FFFFF8
FFFFF8
FFFFF8
7FFFF0
00F800
00F800
00F800
00F800
00F800
00F800
00F800
00F800
00F800
00F800
00F800
00F800
00F800
00F800
00F800
00F800
00F800
00F800
00F800
7FFFF0
FFFFF8
FFFFF8
FFFFF8
7FFFF0
ENDCHAR
STARTCHAR 01D0
ENCODING 464
SWIDTH 600 0
DWIDTH 30 0
BBX 23 34 4 0
BITMAP
180060
3E01F0
3F87E0
1FDFC0
07FF80
03FE00
00FC00
003000
000000
000000
000000
000000
1FFC00
3FFC00
3FFC00
3FFC00
1FFC00
007C00
007C00
007C00
007C00
007C00
007C00
007C00
007C00
007C00
007C00
007C00
007C00
7FFFFC
FFFFFE
FFFFFE
FFFFFE
7FFFFC
ENDCHAR
STARTCHAR 01D1
ENCODING 465
SWIDTH 600 0
DWIDTH 30 0
BBX 28 40 1 1
BITMAP
03801E00
07E07E00
03F8FC00
01FFF800
007FE000
001FC000
000F0000
00020000
00000000
00000000
00000000
007FE000
01FFF800
03FFFC00
0FFFFF00
0FFFFF80
1FC03F80
3F801FC0
3F000FC0
7E0007E0
7C0003E0
FC0003F0
F80001F0
F80001F0
F80001F0
F80001F0
F80001F0
F80001F0
F80001F0
FC0003F0
7C0003E0
7E0007E0
3F000FC0
3F801FC0
1FC03F80
0FFFFF00
0FFFFF00
03FFFC00
01FFF800
007FE000
ENDCHAR
STARTCHAR 01D2
ENCODING 466
SWIDTH 600 0
DWIDTH 30 0
BBX 26 35 2 -1
BITMAP
06001800
0F807C00
0FE1F800
07F7F000
01FFE000
00FF8000
003F0000
000C0000
00000000
00000000
00000000
00000000
00FFC000
03FFF000
0FFFFC00
1FFFFE00
3FFFFF00
3F807F00
7E001F80
7C000F80
FC000FC0
F80007C0
F80007C0
F80007C0
F80007C0
F80007C0
FC000FC0
7E001F80
7F003F80
3FC0FF00
1FFFFE00
0FFFFC00
07FFF800
03FFF000
007F8000
ENDCHAR
STARTCHAR 01D3
ENCODING 467
SWIDTH 600 0
DWIDTH 30 0
BBX 28 40 1 1
BITMAP
03801E00
07E07E00
03F8FC00
01FFF800
007FE000
001FC000
000F0000
00020000
00000000
00000000
00000000
7FF0FFE0
FFF9FFF0
FFF9FFF0
FFF9FFF0
7FF0FFE0
1F000F80
1F000F80
1F000F80
1F000F80
1F000F80
1F000F80
1F000F80
1F000F80
1F000F80
1F000F80
1F000F80
1F000F80
1F000F80
1F000F80
1F000F80
1F000F80
1F801F80
0F801F00
0FE07F00
07FFFE00
07FFFE00
03FFFC00
00FFF000
007FE000
ENDCHAR
STARTCHAR 01D4
ENCODING 468
SWIDTH 600 0
DWIDTH 30 0
BBX 27 34 1 0
BITMAP
03000C00
07C03E00
07F0FC00
03FBF800
00FFF000
007FC000
001F8000
00060000
00000000
00000000
00000000
00000000
7F81FF00
FF83FF00
FF83FF00
FF83FF00
7F81FF00
0F801F00
0F801F00
0F801F00
0F801F00
0F801F00
0F801F00
0F801F00
0F801F00
0F801F00
0F801F00
0F803F00
0FC0FF00
07FFFFC0
07FFFFE0
03FFFFE0
01FFDFE0
00FF9FC0
ENDCHAR
STARTCHAR 01D5
ENCODING 469
SWIDTH 600 0
DWIDTH 30 0
BBX 28 40 1 0
BITMAP
03FFFC00
07FFFE00
07FFFE00
03FFFC00
00000000
00000000
00000000
01E07000
03F0FC00
03F0FC00
03F0FC00
03F0FC00
01E07800
00000000
00000000
7FF0FFE0
FFF9FFF0
FFF9FFF0
FFF9FFF0
7FF0FFE0
1F000F80
1F000F80
1F000F80
1F000F80
1F000F80
1F000F80
1F000F80
1F000F80
1F000F80
1F000F80
1F000F80
1F000F80
1F801F80
0F801F00
0FC07F00
07FFFE00
07FFFE00
03FFFC00
00FFF000
007FE000
ENDCHAR
STARTCHAR 01D6
ENCODING 470
SWIDTH 600 0
DWIDTH 30 0
BBX 27 38 1 0
BITMAP
03FFF800
07FFFC00
07FFFC00
07FFFC00
00000000
00000000
00C03000
03E0F800
03F0FC00
03F0FC00
03F0FC00
01E07800
00000000
00000000
00000000
00000000
7F81FF00
FF83FF00
FF83FF00
FF83FF00
7F81FF00
0F801F00
0F801F00
0F801F00
0F801F00
0F801F00
0F801F00
0F801F00
0F801F00
0F801F00
0F801F00
0F803F00
0FC0FF00
07FFFFC0
07FFFFE0
03FFFFE0
01FFDFE0
00FF9FC0
ENDCHAR
STARTCHAR 01D7
ENCODING 471
SWIDTH 600 0
DWIDTH 30 0
BBX 28 40 1 0
BITMAP
00006000
0001F000
0003F000
0007E000
000FC000
000F0000
00060000
01E07000
03F0FC00
03F0FC00
03F0FC00
03F0FC00
01E07800
00000000
00000000
7FF0FFE0
FFF9FFF0
FFF9FFF0
FFF9FFF0
7FF0FFE0
1F000F80
1F000F80
1F000F80
1F000F80
1F000F80
1F000F80
1F000F80
1F000F80
1F000F80
1F000F80
1F000F80
1F000F80
1F801F80
0F801F00
0FC07F00
07FFFE00
07FFFE00
03FFFC00
00FFF800
007FE000
ENDCHAR
STARTCHAR 01D8
ENCODING 472
SWIDTH 600 0
DWIDTH 30 0
BBX 27 40 1 0
BITMAP
00007000
0000F000
0001F000
0003E000
000FC000
000F8000
001F0000
000E0000
00C03000
03E0F800
03F0FC00
03F0FC00
03F0FC00
01E07800
00000000
00000000
00000000
00000000
7F81FF00
FF83FF00
FF83FF00
FF83FF00
7F81FF00
0F801F00
0F801F00
0F801F00
0F801F00
0F801F00
0F801F00
0F801F00
0F801F00
0F801F00
0F801F00
0F803F00
0FC0FF00
07FFFFC0
07FFFFE0
03FFFFE0
01FFDFE0
00FF9FC0
ENDCHAR
STARTCHAR 01D9
ENCODING 473
SWIDTH 600 0
DWIDTH 30 0
BBX 28 40 1 0
BITMAP
03000C00
03C03C00
03F0FC00
01FDF800
00FFF000
003FC000
001F8000
03C63C00
07E07E00
07E07E00
07E07E00
07E07E00
03C03C00
00000000
00000000
7FF0FFE0
FFF9FFF0
FFF9FFF0
FFF9FFF0
7FF0FFE0
1F000F80
1F000F80
1F000F80
1F000F80
1F000F80
1F000F80
1F000F80
1F000F80
1F000F80
1F000F80
1F000F80
1F000F80
1F801F80
0F801F00
0FE07F00
07FFFE00
07FFFE00
03FFFC00
00FFF000
007FE000
ENDCHAR
STARTCHAR 01DA
ENCODING 474
SWIDTH 600 0
DWIDTH 30 0
BBX 27 40 1 1
BITMAP
07801C00
07E07E00
03F9FC00
01FFF800
007FE000
003F8000
000F0000
00000000
00C03000
03E0F800
03F0FC00
03F0FC00
03F0FC00
01E07800
00000000
00000000
00000000
00000000
7F81FF00
FF83FF00
FF83FF00
FF83FF00
7F81FF00
0F801F00
0F801F00
0F801F00
0F801F00
0F801F00
0F801F00
0F801F00
0F801F00
0F801F00
0F801F00
0F803F00
0FC0FF00
07FFFFC0
07FFFFE0
03FFFFE0
01FFDFE0
00FF9FC0
ENDCHAR
STARTCHAR 01DB
ENCODING 475
SWIDTH 600 0
DWIDTH 30 0
BBX 28 40 1 0
BITMAP
00E00000
00F00000
00F80000
007C0000
003E0000
001F0000
000F0000
03871E00
07E03F00
07E03F00
07E03F00
07E03F00
03801E00
00000000
00000000
7FF0FFE0
FFF9FFF0
FFF9FFF0
FFF9FFF0
7FF0FFE0
1F000F80
1F000F80
1F000F80
1F000F80
1F000F80
1F000F80
1F000F80
1F000F80
1F000F80
1F000F80
1F000F80
1F000F80
1F801F80
0F801F00
0FE07F00
07FFFE00
03FFFE00
01FFFC00
00FFF000
003FE000
ENDCHAR
STARTCHAR 01DC
ENCODING 476
SWIDTH 600 0
DWIDTH 30 0
BBX 27 40 1 0
BITMAP
03800000
03E00000
03F00000
01F80000
007C0000
003E0000
001E0000
000E0000
00C03000
03E0F800
03F0FC00
03F0FC00
03F0FC00
01E07800
00000000
00000000
00000000
00000000
7F81FF00
FF83FF00
FF83FF00
FF83FF00
7F81FF00
0F801F00
0F801F00
0F801F00
0F801F00
0F801F00
0F801F00
0F801F00
0F801F00
0F801F00
0F801F00
0F803F00
0FC0FF00
07FFFFC0
07FFFFE0
03FFFFE0
01FFDFE0
00FF9FC0
ENDCHAR
STARTCHAR 01DD
ENCODING 477
SWIDTH 600 0
DWIDTH 30 0
BBX 25 24 2 -1
BITMAP
007E0000
0FFFC000
7FFFF000
FFFFFC00
FFFFFE00
FF83FF00
70007F00
00001F80
00001F80
00000F80
FFFFFF80
FFFFFF80
FFFFFF80
FFFFFF80
F8000F80
FC001F80
7C001F80
7F007F00
3FC1FE00
3FFFFE00
1FFFFC00
07FFF000
03FFE000
003F0000
ENDCHAR
STARTCHAR 01DE
ENCODING 478
SWIDTH 600 0
DWIDTH 30 0
BBX 32 40 -1 0
BITMAP
01FFFE00
03FFFF00
03FFFF00
01FFFE00
00000000
00000000
00000000
00F03C00
01F87E00
01F87E00
01F87E00
01F87E00
00F03C00
00000000
03FFC000
07FFE000
07FFE000
07FFF000
07FFF000
001FF800
003EF800
003EFC00
007E7C00
007C7E00
00FC3E00
00F83F00
01F83F00
01F01F80
01FFFF80
03FFFF80
03FFFFC0
07FFFFC0
07FFFFE0
0FC003E0
0F8003F0
3FE00FFC
FFF83FFE
FFF83FFF
FFF83FFF
7FF01FFE
ENDCHAR
STARTCHAR 01DF
ENCODING 479
SWIDTH 600 0
DWIDTH 30 0
BBX 26 39 2 -1
BITMAP
07FFE000
0FFFF800
0FFFF800
0FFFF800
00000000
00000000
01004000
07C1F000
07C1F000
07E1F800
07C1F000
07C1F000
00000000
00000000
00000000
00000000
03FFC000
0FFFF000
1FFFF800
1FFFF800
1FFFFC00
0000FC00
00007C00
007C7C00
03FFFC00
0FFFFC00
1FFFFC00
3FFFFC00
7F00FC00
FC007C00
F8007C00
F8007C00
F801FC00
FC0FFF80
7FFFFFC0
7FFFFFC0
3FFFFFC0
1FFF7F80
07F80000
ENDCHAR
STARTCHAR 01E0
ENCODING 480
SWIDTH 600 0
DWIDTH 30 0
BBX 32 40 -1 0
BITMAP
00FFFF00
01FFFF00
01FFFF00
00FFFF00
00000000
00000000
0003C000
0007E000
0007E000
0007E000
0007E000
0003C000
00000000
00000000
01FFE000
07FFF000
07FFF000
07FFF800
03FFF800
001FF800
001FFC00
003F7C00
003E7E00
007E3E00
007C3F00
00FC1F00
00F81F80
01F80F80
01FFFFC0
03FFFFC0
03FFFFE0
07FFFFE0
07FFFFF0
0FC003F0
0F8001F8
1FF007FC
FFF81FFF
FFF81FFF
FFF81FFF
7FF00FFE
ENDCHAR
STARTCHAR 01E1
ENCODING 481
SWIDTH 600 0
DWIDTH 30 0
BBX 26 38 2 -1
BITMAP
07FFF000
0FFFF800
0FFFF800
0FFFF800
00000000
00080000
003E0000
003E0000
003F0000
003E0000
003E0000
00000000
00000000
00000000
00000000
03FFC000
0FFFF000
1FFFF800
1FFFF800
1FFFFC00
0000FC00
00007C00
007C7C00
03FFFC00
0FFFFC00
1FFFFC00
3FFFFC00
7F00FC00
FC007C00
F8007C00
F8007C00
F801FC00
FC0FFF80
7FFFFFC0
7FFFFFC0
3FFFFFC0
1FFF7F80
07F80000
ENDCHAR
STARTCHAR 01E2
ENCODING 482
SWIDTH 600 0
DWIDTH 30 0
BBX 32 37 -1 0
BITMAP
0007FFC0
001FFFF0
001FFFF8
001FFFF0
00000000
00000000
00000000
00000000
01FFFFFE
03FFFFFE
03FFFFFE
03FFFFFE
01FFFFFE
007FE03E
007FE03E
00FBE03E
00FBE03E
00FBE73E
01FBEFBE
01F3EF88
01F3FF80
01F3FF80
03E3FF80
03E3FF80
03FFEF80
07FFEF80
07FFE780
07FFE200
07C3E00F
0F83E01F
0F83E01F
0F83E01F
7FC7FFFF
FFEFFFFF
FFEFFFFF
FFEFFFFF
7FC7FFFF
ENDCHAR
STARTCHAR 01E3
ENCODING 483
SWIDTH 600 0
DWIDTH 30 0
BBX 31 31 -1 -1
BITMAP
003FFF00
00FFFFC0
00FFFFC0
007FFF80
00000000
00000000
00000000
00000000
07FE1FC0
0FFF3FF0
1FFFFFF0
1FFFFFF8
1FFFFFFC
0407F07C
0007F03E
007FE03E
07FFFFFE
1FFFFFFE
3FFFFFFE
7FFFFFFE
FE07FFFE
F807E000
F807E000
F807E000
F80FF01C
FC3FF87E
7FFFFFFE
7FFFFFFE
3FFFFFFE
1FFFBFF8
07F00FC0
ENDCHAR
STARTCHAR 01E4
ENCODING 484
SWIDTH 600 0
DWIDTH 30 0
BBX 29 29 1 1
BITMAP
00FFE780
03FFFF80
07FFFF80
0FFFFF80
1FFFFF80
3FC03F80
3F000F80
7E000F80
7C000F80
FC000700
F8000000
F8000000
F8000000
F8000000
F80FFF00
F81FFF00
F81FFF00
F81FFF00
F80FFFF0
F8001FF8
FC001FF8
7C001FF8
7E001FF0
3F803F00
3FFFFF00
1FFFFF00
0FFFFF00
03FFFC00
00FFF000
ENDCHAR
STARTCHAR 01E5
ENCODING 485
SWIDTH 600 0
DWIDTH 30 0
BBX 27 32 2 -9
BITMAP
01FF3FC0
07FFBFE0
0FFFFFE0
1FFFFFE0
3FFFFFC0
7F01FE00
7E00FE00
FC007E00
F8003E00
F8003E00
F8003E00
F8003E00
F8003E00
F8007E00
FC007E00
7E00FE00
7F01FE00
3FFFFE00
1FFFFE00
0FFFFE00
07FFFE00
01FF3E00
00003FC0
00003FE0
00003FE0
00007FE0
0000FFC0
03FFFC00
07FFF800
07FFF000
03FFE000
03FF8000
ENDCHAR
STARTCHAR 01E6
ENCODING 486
SWIDTH 600 0
DWIDTH 30 0
BBX 27 40 2 1
BITMAP
07003C00
0FC0FC00
07F1F800
03FFF000
00FFC000
003F8000
001E0000
00040000
00000000
00000000
00000000
00FFE780
03FFFF80
07FFFF80
0FFFFF80
1FFFFF80
3F803F80
3F000F80
7E000F80
7C000F80
FC000700
F8000000
F8000000
F8000000
F8000000
F8000000
F807FFC0
F80FFFE0
F80FFFE0
F80FFFE0
F807FFC0
FC000F80
7C000F80
7E000F80
3F800F80
3FFFFF80
1FFFFF80
0FFFFF80
03FFFE00
00FFF000
ENDCHAR
STARTCHAR 01E7
ENCODING 487
SWIDTH 600 0
DWIDTH 30 0
BBX 27 44 2 -10
BITMAP
06001800
0F807C00
0FE1F800
07F7F000
01FFE000
00FF8000
003F0000
000C0000
00000000
00000000
00000000
00000000
01FF3FC0
07FFBFE0
0FFFFFE0
1FFFFFE0
3FFFFFC0
7F01FE00
7E00FE00
FC007E00
F8003E00
F8003E00
F8003E00
F8003E00
F8003E00
F8007E00
FC007E00
7E00FE00
7F01FE00
3FFFFE00
1FFFFE00
0FFFFE00
07FFBE00
01FF3E00
00003E00
00003E00
00003E00
00007E00
0000FC00
03FFFC00
07FFF800
07FFF000
07FFE000
03FF8000
ENDCHAR
STARTCHAR 01E8
ENCODING 488
SWIDTH 600 0
DWIDTH 30 0
BBX 29 40 1 1
BITMAP
03801E00
07E07E00
03F8FC00
01FFF800
007FE000
001FC000
000F0000
00020000
00000000
00000000
00000000
7FF87FC0
FFFCFFE0
FFFCFFF0
FFFCFFE0
7FF87FE0
0F807F00
0F80FE00
0F83FC00
0F87F000
0F8FE000
0F9FC000
0FBF8000
0FFF0000
0FFF8000
0FFFC000
0FFFE000
0FE7F000
0FC3F800
0F81F800
0F80FC00
0F80FE00
0F807E00
0F803E00
0F803F00
7FF81FF0
FFFC1FF0
FFFC1FF8
FFFC0FF0
7FF80FF0
ENDCHAR
STARTCHAR 01E9
ENCODING 489
SWIDTH 600 0
DWIDTH 30 0
BBX 27 40 2 0
BITMAP
03000C00
07C03E00
07F0FC00
03FFF800
00FFF000
003FC000
001F8000
00060000
00000000
7F800000
FF800000
FF800000
FF800000
7F800000
0F800000
0F800000
0F800000
0F800000
0F87FE00
0F8FFF00
0F8FFF00
0F8FFF00
0F87FE00
0F9FE000
0FBFC000
0FFF0000
0FFE0000
0FFC0000
0FFC0000
0FFE0000
0FFF8000
0FBFC000
0F9FE000
0F8FF000
0F83F800
7F81FF80
FF83FFC0
FF83FFE0
FF83FFC0
7F81FF80
ENDCHAR
STARTCHAR 01EA
ENCODING 490
SWIDTH 600 0
DWIDTH 30 0
BBX 28 39 1 -9
BITMAP
007FE000
01FFF800
03FFFC00
07FFFF00
0FFFFF80
1FC03F80
3F801FC0
3F000FC0
7E0007E0
7C0003E0
FC0003F0
F80001F0
F80001F0
F80001F0
F80001F0
F80001F0
F80001F0
F80001F0
FC0003F0
7C0003E0
7E0007E0
3E0007E0
3F000FC0
1FC01F80
1FF07F80
0FFFFF00
07FFFE00
01FFFC00
007FF000
000F8000
003E0000
007C0000
00F80000
00F00000
00F18000
00FFC000
00FFC000
007F8000
003E0000
ENDCHAR
STARTCHAR 01EB
ENCODING 491
SWIDTH 600 0
DWIDTH 30 0
BBX 26 32 2 -9
BITMAP
00FFE000
03FFF800
0FFFFC00
1FFFFE00
3FFFFF00
3F807F00
7E001F80
7C000F80
FC000FC0
F80007C0
F80007C0
F80007C0
F80007C0
F80007C0
7C000FC0
7E001F80
7F003F80
3FE1FF00
1FFFFE00
0FFFFC00
07FFF800
01FFE000
001F0000
007C0000
00F80000
01F00000
01E00000
01E30000
01FF8000
01FF8000
00FF0000
007C0000
ENDCHAR
STARTCHAR 01EC
ENCODING 492
SWIDTH 600 0
DWIDTH 30 0
BBX 28 47 1 -10
BITMAP
00FFF800
03FFFE00
03FFFE00
03FFFE00
00000000
00000000
00000000
00000000
007FE000
01FFF800
03FFFC00
07FFFF00
0FFFFF80
1FC03F80
3F801FC0
3F000FC0
7E0007E0
7C0003E0
FC0003F0
F80001F0
F80001F0
F80001F0
F80001F0
F80001F0
F80001F0
F80001F0
FC0003F0
7C0003E0
7E0007E0
3E0007E0
3F000FC0
1FC01F80
1FF07F80
0FFFFF00
07FFFE00
01FFFC00
007FF000
000F8000
003E0000
007C0000
00F80000
00F00000
00F18000
00FFC000
00FFC000
007F8000
003E0000
ENDCHAR
STARTCHAR 01ED
ENCODING 493
SWIDTH 600 0
DWIDTH 30 0
BBX 26 40 2 -10
BITMAP
03FFF000
0FFFFC00
0FFFFC00
07FFF800
00000000
00000000
00000000
00000000
00FFE000
03FFF800
0FFFFC00
1FFFFE00
3FFFFF00
3F807F00
7E001F80
7C000F80
FC000FC0
F80007C0
F80007C0
F80007C0
F80007C0
F80007C0
7C000FC0
7E001F80
7F003F80
3FE1FF00
1FFFFE00
0FFFFC00
07FFF800
01FFE000
001F0000
007C0000
00F80000
01F00000
01E00000
01E30000
01FF8000
01FF8000
00FF0000
007C0000
ENDCHAR
STARTCHAR 01EE
ENCODING 494
SWIDTH 600 0
DWIDTH 30 0
BBX 25 43 3 -2
BITMAP
0E007800
1F81F800
0FE3F000
07FFE000
01FF8000
007F0000
003C0000
00080000
00000000
00000000
00000000
3FFFFC00
3FFFFC00
3FFFFC00
3FFFFC00
3FFFFC00
3E01F800
3E01F800
3E03F000
1C07E000
000FC000
001F8000
001F8000
007FE000
00FFF800
00FFFC00
00FFFE00
007FFF00
00003F00
00001F80
00000F80
00000F80
00000F80
00000F80
70000F80
F8001F80
FE003F00
FF80FF00
7FFFFE00
3FFFFC00
0FFFF800
03FFF000
007F8000
ENDCHAR
STARTCHAR 01EF
ENCODING 495
SWIDTH 600 0
DWIDTH 30 0
BBX 19 43 5 -9
BITMAP
3000C0
7C03E0
7F0FC0
3FBF80
0FFF00
07FC00
01F800
006000
000000
000000
000000
1FFF80
7FFFE0
FFFFE0
FFFFE0
7FFFE0
007F00
00FE00
01FC00
03F800
07F800
0FFC00
1FFE00
3FFF00
3FBF80
1E0F80
0007C0
0007C0
0003C0
0003C0
0003C0
0003C0
0003C0
0003C0
0007C0
F007C0
F80F80
FC1F80
FFFF00
7FFF00
3FFE00
0FFC00
03F000
ENDCHAR
STARTCHAR 01F0
ENCODING 496
SWIDTH 600 0
DWIDTH 30 0
BBX 19 44 5 -10
BITMAP
3000C0
7C03E0
7F0FC0
3FBF80
0FFF00
07FC00
01F800
006000
000000
000000
000000
000000
7FFFC0
FFFFC0
FFFFC0
FFFFC0
7FFFC0
0007C0
0007C0
0007C0
0007C0
0007C0
0007C0
0007C0
0007C0
0007C0
0007C0
0007C0
0007C0
0007C0
0007C0
0007C0
0007C0
0007C0
0007C0
0007C0
0007C0
000FC0
001F80
7FFF80
FFFF00
FFFE00
FFFC00
7FF000
ENDCHAR
STARTCHAR 01F1
ENCODING 497
SWIDTH 600 0
DWIDTH 30 0
BBX 30 29 0 0
BITMAP
7FC0FFF8
FFF0FFF8
FFF8FFF8
FFFCFFF8
7FFEFFF8
3E3EF8F8
3E1FF9F0
3E1FF9F0
3E1FF9E0
3E0FFBE0
3E0FFBC0
3E0FB7C0
3E0F87C0
3E0F8780
3E0F8F80
3E0F8F00
3E0F9F10
3E0F9E7C
3E0FBE7C
3E0FBE7C
3E0FBC7C
3E1F7C7C
3E1F787C
3E3FF87C
7FFEFFFC
FFFEFFFC
FFFCFFFC
FFF8FFFC
7FE0FFFC
ENDCHAR
STARTCHAR 01F2
ENCODING 498
SWIDTH 600 0
DWIDTH 30 0
BBX 30 30 0 0
BITMAP
3E000000
FFF00000
FFF80000
FFFC0000
FFFE0000
3E7E0000
3E1F0000
3E1FFFF8
3E1FFFF8
3E0FFFF8
3E0FFFF8
3E0FFFF8
3E0FF1F0
3E0FF3F0
3E0FF7E0
3E0FF7E0
3E0F8FC0
3E0F8FC0
3E0F9F80
3E0F9F00
3E0FBF00
3E0FBE38
3E1FFE7C
3E1F7C7C
3E3FFC7C
7FFFFFFC
FFFFFFFC
FFFDFFFC
FFF9FFFC
7FE1FFFC
ENDCHAR
STARTCHAR 01F3
ENCODING 499
SWIDTH 600 0
DWIDTH 30 0
BBX 29 33 0 -1
BITMAP
00FE0000
03FE0000
03FE0000
03FE0000
01FE0000
003E0000
003E0000
003E0000
003E0000
1FFFFFF8
3FFFFFF8
3FFFFFF8
7FFFFFF8
7CFFFFF8
7C7FF3F0
F87FF7E0
F83FF7E0
F83EEFC0
F83E0FC0
F83E1F80
F83E1F80
F83E3F00
F83E3F00
F83E7E70
F83E7CF8
F87EFCF8
7C7EF8F8
7C7FFFF8
7FFFFFF8
3FFFFFF8
3FFFFFF8
1FFFFFF8
0FC00000
ENDCHAR
STARTCHAR 01F4
ENCODING 500
SWIDTH 600 0
DWIDTH 30 0
BBX 27 40 2 0
BITMAP
00007000
0000F000
0001F000
0007E000
000FC000
000F8000
001F0000
000C0000
00000000
00000000
00000000
00FFE780
03FFFF80
07FFFF80
0FFFFF80
1FFFFF80
3F803F80
3F000F80
7E000F80
7C000F80
FC000700
F8000000
F8000000
F8000000
F8000000
F8000000
F807FFC0
F80FFFE0
F80FFFE0
F80FFFE0
F807FFC0
FC000F80
7C000F80
7E000F80
3F800F80
3FFFFF80
1FFFFF80
0FFFFF80
03FFFE00
00FFF000
ENDCHAR
STARTCHAR 01F5
ENCODING 501
SWIDTH 600 0
DWIDTH 30 0
BBX 27 43 2 -10
BITMAP
00018000
0003C000
0007C000
001F8000
003F0000
007E0000
007C0000
00780000
00000000
00000000
00000000
01FF3FC0
07FFBFE0
0FFFFFE0
1FFFFFE0
3FFFFFC0
7F01FE00
7E00FE00
FC007E00
F8003E00
F8003E00
F8003E00
F8003E00
F8003E00
F8007E00
FC007E00
7E00FE00
7F01FE00
3FFFFE00
1FFFFE00
0FFFFE00
07FFBE00
01FF3E00
00003E00
00003E00
00003E00
00007E00
0000FC00
03FFFC00
07FFF800
07FFF000
07FFE000
03FF8000
ENDCHAR
STARTCHAR 01F6
ENCODING 502
SWIDTH 600 0
DWIDTH 30 0
BBX 27 29 1 0
BITMAP
3F8FC000
7F8FE000
7F8FF000
7F8FE000
3F8FE000
0F8F8000
0F8F87E0
0F8FBFE0
0F8FBFE0
0F8FBFE0
0F8FBFE0
0F8F87E0
0FFF83E0
0FFF83E0
0FFF83E0
0FFF83E0
0FFF83E0
0F8F83E0
0F8F83E0
0F8F83E0
0F8F83E0
0F8F83E0
0F8F87E0
0F8F8FE0
7F8FFFC0
FF8FFFC0
FF8FFF80
FF8FFF00
7F8FF800
ENDCHAR
STARTCHAR 01F7
ENCODING 503
SWIDTH 600 0
DWIDTH 30 0
BBX 28 40 0 -10
BITMAP
1F800000
FF83FF80
FF9FFFE0
FFBFFFF0
7FFFFFF0
0FFF83F0
0FFC00F0
0FF000F0
0FC000F0
0F8001F0
0F8001F0
0F8003E0
0F8007E0
0F800FC0
0F801FC0
0F803F80
0F807F00
0F80FE00
0F81FC00
0F83F800
0F87F000
0F8FE000
0F9FC000
0FBF8000
0FFF0000
0FFE0000
0FFC0000
0FF80000
0FF00000
0FE00000
0F800000
0F800000
0F800000
0F800000
0F800000
3FFC0000
FFFE0000
FFFE0000
FFFE0000
7FFC0000
ENDCHAR
STARTCHAR 01F8
ENCODING 504
SWIDTH 600 0
DWIDTH 30 0
BBX 30 40 0 0
BITMAP
00E00000
00F00000
00FC0000
007E0000
003F0000
001F8000
00078000
00038000
00000000
00000000
00000000
7F803FF8
FFC07FFC
FFE07FFC
FFE07FFC
7FF03FF8
0FF803E0
0FF803E0
0FFC03E0
0FFE03E0
0FFE03E0
0FBF03E0
0FBF83E0
0F9F83E0
0F8FC3E0
0F8FE3E0
0F87E3E0
0F83F3E0
0F83FBE0
0F81FBE0
0F80FFE0
0F80FFE0
0F807FE0
0F803FE0
0F803FE0
3FF81FE0
7FFC0FE0
7FFC0FE0
7FFC07E0
3FF803E0
ENDCHAR
STARTCHAR 01F9
ENCODING 505
SWIDTH 600 0
DWIDTH 30 0
BBX 26 33 2 0
BITMAP
03800000
07C00000
07E00000
03F00000
00F80000
007C0000
003E0000
001C0000
00000000
00000000
00000000
7F3FE000
FF7FF000
FFFFF800
FFFFFC00
7FFFFC00
1FE07E00
1F803E00
1F003E00
1F003E00
1F003E00
1F003E00
1F003E00
1F003E00
1F003E00
1F003E00
1F003E00
1F003E00
7FE0FF80
FFF1FFC0
FFF1FFC0
FFF1FFC0
7FE0FF80
ENDCHAR
STARTCHAR 01FA
ENCODING 506
SWIDTH 600 0
DWIDTH 30 0
BBX 32 40 -1 0
BITMAP
0000C000
0001E000
0007E000
000FC000
001F8000
003F0000
003E0000
00180000
0007C000
000FE000
001FF000
001E7000
001C7000
001E7000
001FF000
000FE000
0003C000
01FFC000
0FFFE000
0FFFE000
0FFFF000
003FF000
003FF800
007EF800
007EFC00
00FC7E00
00F87E00
01F83F00
01F01F00
03F01F80
03FFFF80
07FFFFC0
07FFFFC0
0FFFFFE0
0F8003E0
1F8003F0
7FE00FFC
FFF83FFE
FFF83FFF
FFF01FFE
ENDCHAR
STARTCHAR 01FB
ENCODING 507
SWIDTH 600 0
DWIDTH 30 0
BBX 26 40 2 0
BITMAP
0000C000
0001E000
0003E000
0007C000
000F8000
001F0000
001E0000
001C0000
00000000
003E0000
007F0000
00FF8000
00F38000
00E38000
00F38000
00FF8000
007F0000
001E0000
00000000
001C0000
07FFC000
1FFFF000
1FFFF800
1FFFF800
0F00FC00
00007C00
00007C00
00FFFC00
07FFFC00
1FFFFC00
3FFFFC00
7F80FC00
FC007C00
F8007C00
F800FC00
FE0FFF00
FFFFFFC0
7FFFFFC0
3FFFFFC0
0FFE7F80
ENDCHAR
STARTCHAR 01FC
ENCODING 508
SWIDTH 600 0
DWIDTH 30 0
BBX 32 40 -1 0
BITMAP
000001C0
000003C0
000007C0
00001F80
00003F00
00007E00
00007C00
00003000
00000000
00000000
00000000
01FFFFFE
03FFFFFE
03FFFFFE
03FFFFFE
01FFFFFE
007FE03E
007FE03E
00FBE03E
00FBE03E
00FBE73E
01FBEFBE
01F3EF88
01F3FF80
01F3FF80
03E3FF80
03E3FF80
03FFEF80
07FFEF80
07FFE780
07FFE200
07C3E00F
0F83E01F
0F83E01F
0F83E01F
7FC7FFFF
FFEFFFFF
FFEFFFFF
FFEFFFFF
7FC7FFFF
ENDCHAR
STARTCHAR 01FD
ENCODING 509
SWIDTH 600 0
DWIDTH 30 0
BBX 31 34 -1 -1
BITMAP
00000600
00001E00
00003E00
00007E00
0000F800
0001F000
0001E000
0001C000
00000000
00000000
00000000
07FE1FC0
0FFF3FF0
1FFFFFF0
1FFFFFF8
1FFFFFFC
0407F07C
0007F03E
007FE03E
07FFFFFE
1FFFFFFE
3FFFFFFE
7FFFFFFE
FE07FFFE
F807E000
F807E000
F807E000
F80FF01C
FC3FF87E
7FFFFFFE
7FFFFFFE
3FFFFFFE
1FFFBFF8
07F00FC0
ENDCHAR
STARTCHAR 01FE
ENCODING 510
SWIDTH 600 0
DWIDTH 30 0
BBX 30 44 0 -4
BITMAP
00003800
00007800
0000F800
0001F000
0007E000
0007C000
000F8000
00070000
00000030
00000078
000000FC
003FF1F8
00FFFDF8
01FFFFF0
07FFFFE0
07FFFFC0
0FE01FC0
1FC01FE0
1F803FE0
3F007FF0
3E00FDF0
7E00FDF8
7C01F8F8
7C03F0F8
7C07E0F8
7C0FC0F8
7C1FC0F8
7C1F80F8
7C3F00F8
7E7E01F8
3EFC01F0
3FF803F0
1FF807E0
1FF00FE0
0FE01FC0
0FFFFF80
1FFFFF80
1FFFFE00
3FFFFC00
7E3FF000
7C000000
FC000000
78000000
30000000
ENDCHAR
STARTCHAR 01FF
ENCODING 511
SWIDTH 600 0
DWIDTH 30 0
BBX 28 37 1 -3
BITMAP
00002000
0000F000
0001F000
0003F000
0007C000
000F8000
001F0000
001E0000
00040000
00000040
000001F0
000003F0
007FE7F0
01FFFFE0
07FFFFC0
0FFFFF80
1FFFFF80
1FC0FF80
3F01FFC0
3E03FFC0
7E07F7E0
7C0FE3E0
7C1FC3E0
7C1F83E0
7C3F03E0
7C7E03E0
7EFC07E0
3FF80FC0
3FF01FC0
1FE07F80
0FFFFF00
1FFFFE00
3FFFFC00
7FFFF800
FC3FC000
F8000000
70000000
ENDCHAR
STARTCHAR 0200
ENCODING 512
SWIDTH 600 0
DWIDTH 30 0
BBX 32 40 -1 0
BITMAP
38380000
3C3C0000
3E3E0000
1F1F0000
0F8F8000
07C7C000
03E3E000
01E1E000
00000000
00000000
00000000
07FFC000
07FFE000
07FFE000
07FFF000
03FFF000
001FF000
003FF800
003EF800
003EFC00
007E7C00
007C7E00
00FC3E00
00F83E00
00F83F00
01F81F00
01F01F80
03FFFF80
03FFFF80
03FFFFC0
07FFFFC0
07FFFFE0
0FC007E0
0F8003F0
0F8003F0
7FF01FFC
FFF83FFE
FFF83FFF
FFF83FFE
7FF01FFC
ENDCHAR
STARTCHAR 0201
ENCODING 513
SWIDTH 600 0
DWIDTH 30 0
BBX 26 35 2 -1
BITMAP
06070000
0F8F8000
0FC7C000
07E3E000
01F1F000
00F8F800
007C7C00
00383800
00000000
00000000
00000000
00000000
03FFC000
0FFFF000
1FFFF800
1FFFF800
1FFFFC00
0000FC00
00007C00
007C7C00
03FFFC00
0FFFFC00
1FFFFC00
3FFFFC00
7F00FC00
FC007C00
F8007C00
F8007C00
F801FC00
FC0FFF80
7FFFFFC0
7FFFFFC0
3FFFFFC0
1FFF7F80
07F80000
ENDCHAR
STARTCHAR 0202
ENCODING 514
SWIDTH 600 0
DWIDTH 30 0
BBX 32 40 -1 0
BITMAP
00010000
001FF800
007FFC00
00FFFE00
01F81F00
01E00700
01C00780
00C00300
00000000
00000000
00000000
07FFC000
07FFE000
07FFE000
07FFF000
03FFF000
001FF000
003FF800
003EF800
003EFC00
007E7C00
007C7E00
00FC3E00
00F83E00
00F83F00
01F81F00
01F01F80
03FFFF80
03FFFF80
03FFFFC0
07FFFFC0
07FFFFE0
0FC007E0
0F8003F0
0F8003F0
7FF01FFC
FFF83FFE
FFF83FFF
FFF83FFE
7FF01FFC
ENDCHAR
STARTCHAR 0203
ENCODING 515
SWIDTH 600 0
DWIDTH 30 0
BBX 26 34 2 -1
BITMAP
003F0000
01FFC000
03FFF000
07F7F800
0F807800
0F003C00
0E003C00
00000000
00000000
00000000
00000000
03FFC000
0FFFF000
1FFFF800
1FFFF800
1FFFFC00
0000FC00
00007C00
007C7C00
03FFFC00
0FFFFC00
1FFFFC00
3FFFFC00
7F00FC00
FC007C00
F8007C00
F8007C00
F801FC00
FC0FFF80
7FFFFFC0
7FFFFFC0
3FFFFFC0
1FFF7F80
07F80000
ENDCHAR
STARTCHAR 0204
ENCODING 516
SWIDTH 600 0
DWIDTH 30 0
BBX 26 40 1 0
BITMAP
1C1C0000
3E1E0000
1F1F0000
0F8F8000
07C7C000
03E3E000
01F1F000
00F0F000
00000000
00000000
00000000
7FFFFF80
FFFFFF80
FFFFFF80
FFFFFF80
7FFFFF80
0F800F80
0F800F80
0F800F80
0F838F80
0F87CF80
0F87C700
0F87C000
0FFFC000
0FFFC000
0FFFC000
0FFFC000
0FFFC000
0F87C000
0F87C380
0F87C7C0
0F8007C0
0F8007C0
0F8007C0
0F8007C0
7FFFFFC0
FFFFFFC0
FFFFFFC0
FFFFFFC0
7FFFFFC0
ENDCHAR
STARTCHAR 0205
ENCODING 517
SWIDTH 600 0
DWIDTH 30 0
BBX 26 35 2 -1
BITMAP
70700000
7C7C0000
7E7E0000
3F3F0000
1F8F8000
07C7C000
03C3C000
01C1C000
00000000
00000000
00000000
00000000
01FFC000
07FFF000
0FFFF800
1FFFFC00
3FFFFE00
7F007F00
7E003F00
FC001F80
F8000F80
FFFFFF80
FFFFFF80
FFFFFF80
FFFFFFC0
FFFFFFC0
F8000000
FC000000
7E000300
7F803F80
3FFFFF80
1FFFFF80
0FFFFF80
03FFFE00
007FE000
ENDCHAR
STARTCHAR 0206
ENCODING 518
SWIDTH 600 0
DWIDTH 30 0
BBX 26 39 1 1
BITMAP
007FE000
00FFF000
01FFFC00
03E07C00
07801E00
07801E00
03000C00
00000000
00000000
00000000
7FFFFF80
FFFFFF80
FFFFFF80
FFFFFF80
7FFFFF80
0F800F80
0F800F80
0F800F80
0F838F80
0F87CF80
0F87C700
0F87C000
0FFFC000
0FFFC000
0FFFC000
0FFFC000
0FFFC000
0F87C000
0F87C380
0F87C7C0
0F8007C0
0F8007C0
0F8007C0
0F8007C0
7FFFFFC0
FFFFFFC0
FFFFFFC0
FFFFFFC0
7FFFFFC0
ENDCHAR
STARTCHAR 0207
ENCODING 519
SWIDTH 600 0
DWIDTH 30 0
BBX 26 34 2 -1
BITMAP
007F0000
01FFC000
07FFE000
0FE3F000
0F007800
0E003800
0E003800
00000000
00000000
00000000
00000000
01FFC000
07FFF000
0FFFF800
1FFFFC00
3FFFFE00
7F007F00
7E003F00
FC001F80
F8000F80
FFFFFF80
FFFFFF80
FFFFFF80
FFFFFFC0
FFFFFFC0
F8000000
FC000000
7E000300
7F803F80
3FFFFF80
1FFFFF80
0FFFFF80
03FFFE00
007FE000
ENDCHAR
STARTCHAR 0208
ENCODING 520
SWIDTH 600 0
DWIDTH 30 0
BBX 23 40 3 0
BITMAP
707000
F8F800
7C7C00
3E3E00
1F1F00
0F8F80
07C7C0
038380
000000
000000
000000
1FFFFC
3FFFFE
3FFFFE
3FFFFE
1FFFFC
003E00
003E00
003E00
003E00
003E00
003E00
003E00
003E00
003E00
003E00
003E00
003E00
003E00
003E00
003E00
003E00
003E00
003E00
003E00
1FFFFC
3FFFFE
3FFFFE
3FFFFE
1FFFFC
ENDCHAR
STARTCHAR 0209
ENCODING 521
SWIDTH 600 0
DWIDTH 30 0
BBX 24 34 3 0
BITMAP
F07000
F8F800
7C7C00
3E3E00
1F9F80
0F8F80
07C7C0
038380
000000
000000
000000
000000
0FFE00
1FFE00
1FFE00
1FFE00
0FFE00
003E00
003E00
003E00
003E00
003E00
003E00
003E00
003E00
003E00
003E00
003E00
003E00
3FFFFE
7FFFFF
7FFFFF
7FFFFF
3FFFFE
ENDCHAR
STARTCHAR 020A
ENCODING 522
SWIDTH 600 0
DWIDTH 30 0
BBX 21 39 5 1
BITMAP
07FE00
0FFF00
3FFF80
3E07C0
7801E0
7801E0
3000C0
000000
000000
000000
7FFFF0
FFFFF8
FFFFF8
FFFFF8
7FFFF0
00F800
00F800
00F800
00F800
00F800
00F800
00F800
00F800
00F800
00F800
00F800
00F800
00F800
00F800
00F800
00F800
00F800
00F800
00F800
7FFFF0
FFFFF8
FFFFF8
FFFFF8
7FFFF0
ENDCHAR
STARTCHAR 020B
ENCODING 523
SWIDTH 600 0
DWIDTH 30 0
BBX 23 33 4 0
BITMAP
01FE00
07FF80
0FFFC0
1F07E0
3C01E0
3C00F0
380060
000000
000000
000000
000000
1FFC00
3FFC00
3FFC00
3FFC00
1FFC00
007C00
007C00
007C00
007C00
007C00
007C00
007C00
007C00
007C00
007C00
007C00
007C00
7FFFFC
FFFFFE
FFFFFE
FFFFFE
7FFFFC
ENDCHAR
STARTCHAR 020C
ENCODING 524
SWIDTH 600 0
DWIDTH 30 0
BBX 28 40 1 0
BITMAP
18180000
3C3E0000
3F3F0000
1F9F8000
0FCFC000
03E3E000
01F1F000
00E0F000
00000000
00000000
00000000
007FE000
01FFF800
03FFFC00
0FFFFF00
0FFFFF80
1FC03F80
3F801FC0
3F000FC0
7E0007E0
7C0003E0
FC0003F0
F80001F0
F80001F0
F80001F0
F80001F0
F80001F0
F80001F0
F80001F0
FC0003F0
7C0003E0
7E0007E0
3F000FC0
3F801FC0
1FC03F80
0FFFFF00
0FFFFF00
03FFFC00
01FFF800
007FE000
ENDCHAR
STARTCHAR 020D
ENCODING 525
SWIDTH 600 0
DWIDTH 30 0
BBX 26 35 2 -1
BITMAP
38380000
7C3C0000
3E3E0000
1F1F8000
0FCFC000
07C7E000
03E3E000
00C0C000
00000000
00000000
00000000
00000000
00FFC000
03FFF000
0FFFFC00
1FFFFE00
3FFFFF00
3F807F00
7E001F80
7C000F80
FC000FC0
F80007C0
F80007C0
F80007C0
F80007C0
F80007C0
FC000FC0
7E001F80
7F003F80
3FC0FF00
1FFFFE00
0FFFFC00
07FFF800
03FFF000
007F8000
ENDCHAR
STARTCHAR 020E
ENCODING 526
SWIDTH 600 0
DWIDTH 30 0
BBX 28 39 1 0
BITMAP
003FC000
00FFF000
01FFF800
03E0FC00
07803C00
07801E00
07000C00
00000000
00000000
00000000
007FE000
01FFF800
03FFFC00
0FFFFF00
0FFFFF80
1FC03F80
3F801FC0
3F000FC0
7E0007E0
7C0003E0
FC0003F0
F80001F0
F80001F0
F80001F0
F80001F0
F80001F0
F80001F0
F80001F0
FC0003F0
7C0003E0
7E0007E0
3F000FC0
3F801FC0
1FC03F80
0FFFFF00
0FFFFF00
03FFFC00
01FFF800
007FE000
ENDCHAR
STARTCHAR 020F
ENCODING 527
SWIDTH 600 0
DWIDTH 30 0
BBX 26 34 2 -1
BITMAP
001E0000
00FFC000
03FFF000
07FFF800
07807800
0F003C00
0F001C00
00000000
00000000
00000000
00000000
00FFC000
03FFF000
0FFFFC00
1FFFFE00
3FFFFF00
3F807F00
7E001F80
7C000F80
FC000FC0
F80007C0
F80007C0
F80007C0
F80007C0
F80007C0
FC000FC0
7E001F80
7F003F80
3FC0FF00
1FFFFE00
0FFFFC00
07FFF800
03FFF000
007F8000
ENDCHAR
STARTCHAR 0210
ENCODING 528
SWIDTH 600 0
DWIDTH 30 0
BBX 29 40 0 0
BITMAP
1C1C0000
3E3E0000
1F1F0000
0F8F8000
07C7C000
03E3E000
01F1F000
00E0E000
00000000
00000000
00000000
7FFFC000
FFFFF000
FFFFFC00
FFFFFE00
7FFFFF00
0F807F00
0F801F80
0F800F80
0F800F80
0F800F80
0F801F80
0F803F80
0F80FF00
0FFFFE00
0FFFFC00
0FFFF800
0FFFF000
0FFFF800
0F81FC00
0F80FE00
0F807E00
0F803F00
0F801F80
0F801F80
7FF80FF0
FFFC07F8
FFFC07F8
FFFC03F8
7FF803F0
ENDCHAR
STARTCHAR 0211
ENCODING 529
SWIDTH 600 0
DWIDTH 30 0
BBX 26 34 3 0
BITMAP
70780000
7C7C0000
7E7E0000
3F3F0000
0F8F8000
07C7C000
03C3C000
01C1C000
00000000
00000000
00000000
00000000
3FE1FE00
7FE3FF80
7FEFFF80
7FFFFFC0
3FFFFF80
03FF0000
03FE0000
03FC0000
03F00000
03E00000
03E00000
03E00000
03E00000
03E00000
03E00000
03E00000
03E00000
7FFFF000
FFFFF800
FFFFF800
FFFFF800
7FFFF000
ENDCHAR
STARTCHAR 0212
ENCODING 530
SWIDTH 600 0
DWIDTH 30 0
BBX 29 39 0 0
BITMAP
007FE000
00FFF000
01FFF800
03E07C00
07801E00
07801E00
03000C00
00000000
00000000
00000000
7FFFC000
FFFFF000
FFFFFC00
FFFFFE00
7FFFFF00
0F807F00
0F801F80
0F800F80
0F800F80
0F800F80
0F801F80
0F803F80
0F80FF00
0FFFFE00
0FFFFC00
0FFFF800
0FFFF000
0FFFF800
0F81FC00
0F80FE00
0F807E00
0F803F00
0F801F80
0F801F80
7FF80FF0
FFFC07F8
FFFC07F8
FFFC03F8
7FF803F0
ENDCHAR
STARTCHAR 0213
ENCODING 531
SWIDTH 600 0
DWIDTH 30 0
BBX 26 33 3 0
BITMAP
007F0000
01FFC000
07FFF000
0FE3F000
0F007800
0E003800
0E003800
00000000
00000000
00000000
00000000
3FE1FE00
7FE3FF80
7FEFFF80
7FFFFFC0
3FFFFF80
03FF0000
03FE0000
03FC0000
03F00000
03E00000
03E00000
03E00000
03E00000
03E00000
03E00000
03E00000
03E00000
7FFFF000
FFFFF800
FFFFF800
FFFFF800
7FFFF000
ENDCHAR
STARTCHAR 0214
ENCODING 532
SWIDTH 600 0
DWIDTH 30 0
BBX 28 40 1 0
BITMAP
1C1C0000
3E3E0000
1F1F0000
0F8F8000
07C7C000
03E3E000
01F1F000
00E0E000
00000000
00000000
00000000
7FF0FFE0
FFF9FFF0
FFF9FFF0
FFF9FFF0
7FF0FFE0
1F000F80
1F000F80
1F000F80
1F000F80
1F000F80
1F000F80
1F000F80
1F000F80
1F000F80
1F000F80
1F000F80
1F000F80
1F000F80
1F000F80
1F000F80
1F000F80
1F801F80
0F801F00
0FE07F00
07FFFE00
07FFFE00
03FFFC00
00FFF000
007FE000
ENDCHAR
STARTCHAR 0215
ENCODING 533
SWIDTH 600 0
DWIDTH 30 0
BBX 27 34 1 0
BITMAP
3C3C0000
3E3E0000
3F3F0000
1F8F8000
07C7C000
03E3E000
01E1E000
00E0E000
00000000
00000000
00000000
00000000
7F81FF00
FF83FF00
FF83FF00
FF83FF00
7F81FF00
0F801F00
0F801F00
0F801F00
0F801F00
0F801F00
0F801F00
0F801F00
0F801F00
0F801F00
0F801F00
0F803F00
0FC0FF00
07FFFFC0
07FFFFE0
03FFFFE0
01FFDFE0
00FF9FC0
ENDCHAR
STARTCHAR 0216
ENCODING 534
SWIDTH 600 0
DWIDTH 30 0
BBX 28 39 1 0
BITMAP
003FC000
00FFF000
01FFF800
03F0FC00
07C03C00
07801E00
07000C00
00000000
00000000
00000000
7FF0FFE0
FFF9FFF0
FFF9FFF0
FFF9FFF0
7FF0FFE0
1F000F80
1F000F80
1F000F80
1F000F80
1F000F80
1F000F80
1F000F80
1F000F80
1F000F80
1F000F80
1F000F80
1F000F80
1F000F80
1F000F80
1F000F80
1F000F80
1F801F80
0F801F00
0FE07F00
07FFFE00
07FFFE00
03FFFC00
00FFF000
007FE000
ENDCHAR
STARTCHAR 0217
ENCODING 535
SWIDTH 600 0
DWIDTH 30 0
BBX 27 33 1 0
BITMAP
003FC000
00FFF000
01FFF800
03F0FC00
07C03C00
07801E00
07000C00
00000000
00000000
00000000
00000000
7F81FF00
FF83FF00
FF83FF00
FF83FF00
7F81FF00
0F801F00
0F801F00
0F801F00
0F801F00
0F801F00
0F801F00
0F801F00
0F801F00
0F801F00
0F801F00
0F803F00
0FC0FF00
07FFFFC0
07FFFFE0
03FFFFE0
01FFDFE0
00FF9FC0
ENDCHAR
STARTCHAR 0218
ENCODING 536
SWIDTH 600 0
DWIDTH 30 0
BBX 24 39 3 -9
BITMAP
01FF9E
07FFFE
1FFFFE
1FFFFE
3FFFFE
7F00FE
7E007E
7C003E
7C003E
7E001E
7F0000
3FE000
3FFF00
1FFFE0
0FFFF8
03FFFC
003FFE
0001FE
00003F
F0001F
F8001F
F8001F
FC003F
FE007F
FFFFFE
FFFFFC
FFFFFC
77FFF0
01FFC0
000000
003F00
003F00
003E00
003E00
003C00
007800
007800
007000
007000
ENDCHAR
STARTCHAR 0219
ENCODING 537
SWIDTH 600 0
DWIDTH 30 0
BBX 22 32 4 -9
BITMAP
07FFB8
0FFFF8
3FFFF8
3FFFF8
7FFFF8
7E00F8
7C0078
7F0030
7FF800
3FFF80
3FFFE0
0FFFF0
01FFF8
0007FC
F000FC
F8007C
FC007C
FF01FC
FFFFF8
FFFFF8
FFFFF0
7FFFC0
01FF00
00FC00
00FC00
00F800
00F800
00F000
01E000
01E000
01C000
01C000
ENDCHAR
STARTCHAR 021A
ENCODING 538
SWIDTH 600 0
DWIDTH 30 0
BBX 26 39 2 -10
BITMAP
FFFFFFC0
FFFFFFC0
FFFFFFC0
FFFFFFC0
FFFFFFC0
F83E07C0
F83E07C0
F83E07C0
F83E07C0
F83E07C0
F83E07C0
F83E07C0
703E0380
003E0000
003E0000
003E0000
003E0000
003E0000
003E0000
003E0000
003E0000
003E0000
003E0000
003E0000
07FFF000
0FFFF800
0FFFF800
0FFFF800
07FFF000
00000000
003F0000
003F0000
003E0000
003E0000
003C0000
00780000
00780000
00700000
00700000
ENDCHAR
STARTCHAR 021B
ENCODING 539
SWIDTH 600 0
DWIDTH 30 0
BBX 25 40 1 -10
BITMAP
01000000
07C00000
07C00000
07C00000
07C00000
07C00000
07C00000
07C00000
7FFFF800
FFFFFC00
FFFFFC00
FFFFFC00
7FFFF800
07C00000
07C00000
07C00000
07C00000
07C00000
07C00000
07C00000
07C00000
07C00000
07C00000
07C00000
07C00F00
07E03F80
07FFFF80
03FFFF80
01FFFF00
00FFFC00
003FC000
007E0000
007E0000
007C0000
007C0000
00780000
00F00000
00F00000
00E00000
00E00000
ENDCHAR
STARTCHAR 021C
ENCODING 540
SWIDTH 600 0
DWIDTH 30 0
BBX 22 32 5 -1
BITMAP
03FE00
FFFF80
FFFFC0
FFFFE0
FF07F0
FE03F0
FC01F8
F800F8
F800F8
F800F8
7000F8
0001F8
0007F0
000FF0
001FE0
007FF0
00FFF8
01FFFC
01F8FC
01E07C
00003C
00003C
00003C
00007C
0000FC
0001F8
001FF8
1FFFF0
FFFFC0
FFFF80
FFFC00
FF0000
ENDCHAR
STARTCHAR 021D
ENCODING 541
SWIDTH 600 0
DWIDTH 30 0
BBX 21 30 5 -6
BITMAP
03FE00
FFFF80
FFFFC0
FFFFE0
FF07F0
FC01F0
F801F0
F801F0
7007F0
001FE0
003FC0
00FFE0
03FFF0
07FFF0
0FF1F0
0FC0F0
0F00F8
0000F0
0001F0
0003F0
000FE0
001FC0
007F80
01FF00
03FE00
0FF800
1FE000
1FC000
0F0000
040000
ENDCHAR
STARTCHAR 021E
ENCODING 542
SWIDTH 600 0
DWIDTH 30 0
BBX 27 40 2 1
BITMAP
07003C00
0FC0FC00
07F1F800
03FFF000
00FFC000
003F8000
001E0000
00040000
00000000
00000000
00000000
7FE1FF80
7FF3FF80
FFF3FFC0
7FF3FF80
7FE1FF80
1F003E00
1F003E00
1F003E00
1F003E00
1F003E00
1F003E00
1F003E00
1FFFFE00
1FFFFE00
1FFFFE00
1FFFFE00
1FFFFE00
1F003E00
1F003E00
1F003E00
1F003E00
1F003E00
1F003E00
1F003E00
7FE1FFC0
FFF3FFC0
FFF3FFE0
FFF3FFC0
7FE1FFC0
ENDCHAR
STARTCHAR 021F
ENCODING 543
SWIDTH 600 0
DWIDTH 30 0
BBX 27 38 1 0
BITMAP
03801E00
07E07E00
03F8FC00
01FFF800
007FE000
001FC000
000F0000
7F820000
FF800000
FF800000
FF800000
7F800000
0F800000
0F800000
0F800000
0F800000
0F9FF000
0FBFF800
0FFFFC00
0FFFFE00
0FFFFE00
0FE03F00
0FC01F00
0F801F00
0F801F00
0F801F00
0F801F00
0F801F00
0F801F00
0F801F00
0F801F00
0F801F00
0F801F00
3FF0FFC0
7FF9FFE0
FFF9FFE0
7FF9FFE0
3FF0FFC0
ENDCHAR
STARTCHAR 0220
ENCODING 544
SWIDTH 600 0
DWIDTH 30 0
BBX 29 42 1 -10
BITMAP
000FE000
7F3FF800
FF7FFC00
FFFFFE00
FFFFFE00
7FF07F00
1FC03F00
1F801F00
1F001F00
1F000F80
1F000F80
1F000F80
1F000F80
1F000F80
1F000F80
1F000F80
1F000F80
1F000F80
1F000F80
1F000F80
1F000F80
1F000F80
1F000F80
1F000F80
1F000F80
1F000F80
1F000F80
FFE00F80
FFF00F80
FFF00F80
FFF00F80
7FE00F80
00000F80
00000F80
00000F80
00000F80
00000F80
00007FF0
00007FF8
0000FFF8
00007FF8
00003FF0
ENDCHAR
STARTCHAR 0224
ENCODING 548
SWIDTH 600 0
DWIDTH 30 0
BBX 22 39 4 -10
BITMAP
7FFFF8
7FFFF8
7FFFF8
7FFFF8
7FFFF8
7C03F8
7C07F0
7C07E0
7C0FC0
7C1F80
7C3F80
383F00
007E00
00FC00
01FC00
03F800
03F000
07E000
0FC038
1FC07C
1F807C
3F007C
7E007C
FE007C
FFFFFC
FFFFFC
FFFFFC
FFFFFC
FFFFFC
00007C
00007C
00007C
0000FC
0001F8
007FF8
00FFF0
00FFF0
00FFC0
003F80
ENDCHAR
STARTCHAR 0225
ENCODING 549
SWIDTH 600 0
DWIDTH 30 0
BBX 21 32 5 -10
BITMAP
FFFFF0
FFFFF0
FFFFF0
FFFFF0
FFFFF0
F80FE0
F81FC0
F83F80
707F00
00FE00
01FC00
03F800
07F000
0FE000
1FC000
3F8070
7F00F8
FFFFF8
FFFFF8
FFFFF8
FFFFF8
FFFFF8
0000F8
0000F8
0000F8
0001F8
0003F0
00FFF0
01FFE0
01FFE0
01FF80
007F00
ENDCHAR
STARTCHAR 0226
ENCODING 550
SWIDTH 600 0
DWIDTH 30 0
BBX 32 38 -1 0
BITMAP
00038000
0007C000
0007E000
0007E000
0007C000
00038000
00000000
00000000
00000000
07FFC000
07FFE000
07FFE000
07FFF000
03FFF000
001FF000
003FF800
003EF800
003EFC00
007E7C00
007C7E00
00FC3E00
00F83E00
00F83F00
01F81F00
01F01F80
03FFFF80
03FFFF80
03FFFFC0
07FFFFC0
07FFFFE0
0FC007E0
0F8003F0
0F8003F0
7FF01FFC
FFF83FFE
FFF83FFF
FFF83FFE
7FF01FFC
ENDCHAR
STARTCHAR 0227
ENCODING 551
SWIDTH 600 0
DWIDTH 30 0
BBX 26 33 2 -1
BITMAP
00080000
003E0000
003E0000
003F0000
003E0000
003E0000
00000000
00000000
00000000
00000000
03FFC000
0FFFF000
1FFFF800
1FFFF800
1FFFFC00
0000FC00
00007C00
007C7C00
03FFFC00
0FFFFC00
1FFFFC00
3FFFFC00
7F00FC00
FC007C00
F8007C00
F8007C00
F801FC00
FC0FFF80
7FFFFFC0
7FFFFFC0
3FFFFFC0
1FFF7F80
07F80000
ENDCHAR
STARTCHAR 0228
ENCODING 552
SWIDTH 600 0
DWIDTH 30 0
BBX 26 39 1 -10
BITMAP
7FFFFF80
FFFFFF80
FFFFFF80
FFFFFF80
7FFFFF80
0F800F80
0F800F80
0F800F80
0F838F80
0F87CF80
0F87C700
0F87C000
0FFFC000
0FFFC000
0FFFC000
0FFFC000
0FFFC000
0F87C000
0F87C380
0F83C7C0
0F8007C0
0F8007C0
0F8007C0
0F8007C0
7FFFFFC0
FFFFFFC0
FFFFFFC0
FFFFFFC0
7FFFFFC0
00078000
0007E000
0007F000
0007F000
00007000
00007000
003FF000
003FF000
001FE000
0007C000
ENDCHAR
STARTCHAR 0229
ENCODING 553
SWIDTH 600 0
DWIDTH 30 0
BBX 26 32 2 -9
BITMAP
01FFC000
07FFF000
0FFFFC00
1FFFFE00
3FFFFE00
7F007F00
7E001F80
FC000F80
FFFFFF80
FFFFFF80
FFFFFF80
FFFFFFC0
FFFFFFC0
F8000000
FC000000
7C000000
7E000300
3F803F80
3FFFFF80
1FFFFF80
0FFFFF80
03FFFE00
00FFF000
001F0000
001FC000
001FC000
0003C000
0001E000
00FFC000
00FFC000
007F8000
001F0000
ENDCHAR
STARTCHAR 022A
ENCODING 554
SWIDTH 600 0
DWIDTH 30 0
BBX 28 40 1 0
BITMAP
03FFFC00
07FFFE00
07FFFE00
03FFFC00
00000000
00000000
00000000
01E07800
03F0FC00
03F0FC00
03F0FC00
03F0FC00
01E07800
00000000
000F0000
00FFE000
03FFFC00
07FFFE00
0FFFFF00
1FE07F80
3F801FC0
7F000FE0
7E0007E0
7C0003E0
FC0003F0
F80001F0
F80001F0
F80001F0
F80001F0
F80001F0
FC0003F0
7C0003E0
7E0007E0
3F000FC0
3F801FC0
1FE0FF80
0FFFFF00
07FFFE00
03FFF800
00FFE000
ENDCHAR
STARTCHAR 022B
ENCODING 555
SWIDTH 600 0
DWIDTH 30 0
BBX 26 39 2 -1
BITMAP
03FFF000
0FFFFC00
0FFFFC00
07FFF800
00000000
00000000
00000000
03C0F000
07E1F800
07E1F800
07E1F800
03C0F000
00000000
00000000
00000000
00000000
00FFC000
03FFF000
0FFFFC00
1FFFFE00
3FFFFF00
3F807F00
7E001F80
7C000F80
FC000FC0
F80007C0
F80007C0
F80007C0
F80007C0
F80007C0
FC000FC0
7E001F80
7F003F80
3FC0FF00
1FFFFE00
0FFFFC00
07FFF800
03FFF000
007F8000
ENDCHAR
STARTCHAR 022C
ENCODING 556
SWIDTH 600 0
DWIDTH 30 0
BBX 28 40 1 0
BITMAP
03FFFC00
07FFFC00
07FFFC00
03FFFC00
00000000
00000000
01F80E00
03FE0E00
03FF1E00
078FFC00
0707FC00
0701F000
00000000
00000000
000F0000
00FFE000
03FFFC00
07FFFE00
0FFFFF00
1FE07F80
3F801FC0
7F000FE0
7E0007E0
7C0003E0
FC0003F0
F80001F0
F80001F0
F80001F0
F80001F0
F80001F0
FC0003F0
7C0003E0
7E0007E0
3F000FC0
3F801FC0
1FE0FF80
0FFFFF00
07FFFE00
03FFF800
00FFE000
ENDCHAR
STARTCHAR 022D
ENCODING 557
SWIDTH 600 0
DWIDTH 30 0
BBX 26 39 2 -1
BITMAP
0FFFF800
0FFFFC00
0FFFF800
07FFF000
00000000
00000000
01E01800
07F83C00
0FFFFC00
0FFFF800
1E0FF000
0C03E000
00000000
00000000
00000000
00000000
00FFC000
03FFF000
0FFFFC00
1FFFFE00
3FFFFF00
3F807F00
7E001F80
7C000F80
FC000FC0
F80007C0
F80007C0
F80007C0
F80007C0
F80007C0
FC000FC0
7E001F80
7F003F80
3FC0FF00
1FFFFE00
0FFFFC00
07FFF800
03FFF000
007F8000
ENDCHAR
STARTCHAR 022E
ENCODING 558
SWIDTH 600 0
DWIDTH 30 0
BBX 28 38 1 0
BITMAP
000F0000
001F8000
001F8000
001F8000
001F8000
00060000
00000000
00000000
00000000
007FE000
01FFF800
03FFFC00
0FFFFF00
0FFFFF80
1FC03F80
3F801FC0
3F000FC0
7E0007E0
7C0003E0
FC0003F0
F80001F0
F80001F0
F80001F0
F80001F0
F80001F0
F80001F0
F80001F0
FC0003F0
7C0003E0
7E0007E0
3F000FC0
3F801FC0
1FC03F80
0FFFFF00
0FFFFF00
03FFFC00
01FFF800
007FE000
ENDCHAR
STARTCHAR 022F
ENCODING 559
SWIDTH 600 0
DWIDTH 30 0
BBX 26 33 2 -1
BITMAP
000C0000
001E0000
003F0000
003F0000
003F0000
001E0000
00000000
00000000
00000000
00000000
00FFC000
03FFF000
0FFFFC00
1FFFFE00
3FFFFF00
3F807F00
7E001F80
7C000F80
FC000FC0
F80007C0
F80007C0
F80007C0
F80007C0
F80007C0
FC000FC0
7E001F80
7F003F80
3FC0FF00
1FFFFE00
0FFFFC00
07FFF800
03FFF000
007F8000
ENDCHAR
STARTCHAR 0230
ENCODING 560
SWIDTH 600 0
DWIDTH 30 0
BBX 28 40 1 0
BITMAP
03FFFC00
07FFFE00
07FFFE00
03FFFC00
00000000
00000000
000F0000
001F8000
001F8000
001F8000
001F8000
000F0000
00000000
00000000
000F0000
00FFE000
03FFFC00
07FFFE00
0FFFFF00
1FE07F80
3F801FC0
7F000FE0
7E0007E0
7C0003E0
FC0003F0
F80001F0
F80001F0
F80001F0
F80001F0
F80001F0
FC0003F0
7C0003E0
7E0007E0
3F000FC0
3F801FC0
1FE0FF80
0FFFFF00
07FFFE00
03FFF800
00FFE000
ENDCHAR
STARTCHAR 0231
ENCODING 561
SWIDTH 600 0
DWIDTH 30 0
BBX 26 38 2 -1
BITMAP
07FFF800
0FFFFC00
07FFFC00
03FFF800
00000000
000C0000
001E0000
003F0000
003F0000
003F0000
001E0000
00000000
00000000
00000000
00000000
00FFC000
03FFF000
0FFFFC00
1FFFFE00
3FFFFF00
3F807F00
7E001F80
7C000F80
FC000FC0
F80007C0
F80007C0
F80007C0
F80007C0
F80007C0
FC000FC0
7E001F80
7F003F80
3FC0FF00
1FFFFE00
0FFFFC00
07FFF800
03FFF000
007F8000
ENDCHAR
STARTCHAR 0232
ENCODING 562
SWIDTH 600 0
DWIDTH 30 0
BBX 28 37 1 0
BITMAP
00FFF800
03FFFE00
07FFFE00
03FFFE00
00000000
00000000
00000000
00000000
7FC03FE0
FFE07FF0
FFE07FF0
FFE07FF0
7FC03FE0
0FC01F80
0FC03F00
07E07E00
03E0FC00
03F1FC00
01FBF800
01FBF000
00FFE000
007FE000
007FC000
003F8000
001F0000
001F0000
001F0000
001F0000
001F0000
001F0000
001F0000
001F0000
03FFF800
07FFFC00
07FFFC00
07FFFC00
03FFF800
ENDCHAR
STARTCHAR 0233
ENCODING 563
SWIDTH 600 0
DWIDTH 30 0
BBX 28 40 1 -10
BITMAP
01FFF800
07FFFE00
07FFFE00
03FFFC00
00000000
00000000
00000000
00000000
7FC03FE0
FFE07FF0
FFE07FF0
FFE07FF0
7FC03FE0
1F000F80
1F801F80
0F801F00
0FC03F00
07E03E00
07E07E00
03F07C00
03F0FC00
01F9F800
01F9F800
00FFF000
00FFF000
007FE000
007FC000
003FC000
003F8000
001F8000
001F0000
003F0000
003E0000
007E0000
007C0000
7FFF0000
FFFF8000
FFFF8000
FFFF8000
7FFF0000
ENDCHAR
STARTCHAR 0237
ENCODING 567
SWIDTH 600 0
DWIDTH 30 0
BBX 18 32 5 -10
BITMAP
7FFFC0
FFFFC0
FFFFC0
FFFFC0
7FFFC0
0007C0
0007C0
0007C0
0007C0
0007C0
0007C0
0007C0
0007C0
0007C0
0007C0
0007C0
0007C0
0007C0
0007C0
0007C0
0007C0
0007C0
0007C0
0007C0
0007C0
000FC0
001F80
7FFF80
FFFF00
FFFE00
FFFC00
7FF000
ENDCHAR
STARTCHAR 0250
ENCODING 592
SWIDTH 600 0
DWIDTH 30 0
BBX 26 24 3 -1
BITMAP
0003F000
7FBFFC00
FFFFFE00
FFFFFF00
FFFFFF80
FFFC1F80
0FE00FC0
0F8007C0
0F800FC0
0F801F80
0F803F80
0FFFFF00
0FFFFE00
0FFFFC00
0FFFF000
0FBF8000
0F800000
0F800000
0FE1FC00
0FFFFE00
07FFFE00
03FFFC00
01FFF000
000E0000
ENDCHAR
STARTCHAR 0251
ENCODING 593
SWIDTH 600 0
DWIDTH 30 0
BBX 29 24 2 0
BITMAP
00000200
00000780
01FF8F80
07FFEF80
0FFFFF80
1FFFFF80
3FFFFF80
7F007F80
7E003F80
FC001F80
FC001F80
F8000F80
F8000F80
F8000F80
F8000F80
FC000F80
FC001F80
7E003F80
7F007F80
3FFFFFF0
1FFFFFF8
0FFFFFF8
07FFEFF8
01FF8FF0
ENDCHAR
STARTCHAR 0252
ENCODING 594
SWIDTH 600 0
DWIDTH 30 0
BBX 29 24 1 -1
BITMAP
0003F800
7F9FFE00
FFFFFF80
FFFFFFC0
7FFFFFE0
1FFC0FF0
0FF003F0
0FE001F8
0FC001F8
0FC000F8
0F8000F8
0F8000F8
0F8000F8
0FC000F8
0FC000F8
0FE001F8
0FF003F0
0FF80FF0
0FFFFFE0
0FFFFFC0
0FFFFF80
0F9FFF00
0F87F800
07000000
ENDCHAR
STARTCHAR 0253
ENCODING 595
SWIDTH 600 0
DWIDTH 30 0
BBX 29 32 0 0
BITMAP
003F0000
00FFC000
01FFC000
03FFC000
07FF8000
07E00000
0FC00000
0F800000
0F800000
0F800000
0F9FFC00
0FBFFF00
0FFFFF80
0FFFFFC0
0FFFFFE0
0FF007F0
0FE003F0
0FC001F0
0FC001F8
0F8000F8
0F8000F8
0F8000F8
0F8000F8
0F8000F8
0FC001F8
0FE003F0
0FF007F0
7FFFFFE0
FFFFFFC0
FFFFFF80
FFFFFF00
7F8FFC00
ENDCHAR
STARTCHAR 0254
ENCODING 596
SWIDTH 600 0
DWIDTH 30 0
BBX 25 23 3 0
BITMAP
7BFFC000
7FFFF000
7FFFF800
7FFFFC00
7FFFFE00
7F007E00
7C003F00
7C001F00
7C001F80
38000F80
00000F80
00000F80
00000F80
00000F80
00001F80
60001F00
F8003F00
FE01FF00
FFFFFE00
7FFFFC00
3FFFF800
1FFFE000
01FF0000
ENDCHAR
STARTCHAR 0256
ENCODING 598
SWIDTH 600 0
DWIDTH 30 0
BBX 34 41 2 -10
BITMAP
00007F8000
0000FF8000
0000FF8000
0000FF8000
00007F8000
00000F8000
00000F8000
00000F8000
00000F8000
01FF8F8000
07FFEF8000
0FFFFF8000
1FFFFF8000
3FFFFF8000
7F007F8000
7E003F8000
FC001F8000
FC000F8000
F8000F8000
F8000F8000
F8000F8000
F8000F8000
FC000F8000
7C001F8000
7E003F8000
7F007F8000
3FFFFF8000
1FFFFF8000
0FFFFF8000
07FFEF8000
01FF8F8000
00000F8000
00000F8000
00000F8000
00000FC000
000007E000
000007FF80
000003FFC0
000001FFC0
000000FFC0
0000007F00
ENDCHAR
STARTCHAR 0257
ENCODING 599
SWIDTH 600 0
DWIDTH 30 0
BBX 34 32 2 0
BITMAP
0000003F00
000000FFC0
000001FFC0
000003FFC0
000007FF80
000007E000
00000FC000
00000F8000
00000F8000
00000F8000
01FF8F8000
07FFEF8000
0FFFFF8000
1FFFFF8000
3FFFFF8000
7F007F8000
7E003F8000
FC001F8000
FC001F8000
F8000F8000
F8000F8000
F8000F8000
F8000F8000
F8000F8000
FC001F8000
7E003F8000
7F007F8000
3FFFFFF000
1FFFFFF800
0FFFFFF800
07FFEFF800
01FF8FF000
ENDCHAR
STARTCHAR 0258
ENCODING 600
SWIDTH 600 0
DWIDTH 30 0
BBX 26 23 2 0
BITMAP
01FFC000
07FFF000
0FFFF800
1FFFFC00
3FFFFE00
7F007F00
7E003F00
FC001F80
F8000F80
FFFFFF80
FFFFFF80
FFFFFFC0
FFFFFF80
FFFFFF80
00000F80
00001F80
60003F00
FE00FF00
FFFFFE00
FFFFFC00
7FFFF800
1FFFE000
03FF0000
ENDCHAR
STARTCHAR 0259
ENCODING 601
SWIDTH 600 0
DWIDTH 30 0
BBX 25 24 2 -1
BITMAP
007E0000
0FFFC000
7FFFF000
FFFFFC00
FFFFFE00
FF83FF00
70007F00
00001F80
00001F80
00000F80
FFFFFF80
FFFFFF80
FFFFFF80
FFFFFF80
F8000F80
FC001F80
7C001F80
7F007F00
3FC1FE00
3FFFFE00
1FFFFC00
07FFF000
03FFE000
003F0000
ENDCHAR
STARTCHAR 025B
ENCODING 603
SWIDTH 600 0
DWIDTH 30 0
BBX 22 23 4 0
BITMAP
07FFF8
0FFFF8
3FFFF8
3FFFF8
7FFFF8
7E01F8
7C00F8
7F0070
7FFE00
3FFF00
1FFF00
3FFF00
7FFE00
FF0000
FC0038
F8007C
F800FC
FE03FC
7FFFFC
7FFFFC
3FFFFC
0FFFF8
03FE00
ENDCHAR
STARTCHAR 025C
ENCODING 604
SWIDTH 600 0
DWIDTH 30 0
BBX 22 23 4 0
BITMAP
7FFF80
7FFFC0
7FFFF0
7FFFF0
7FFFF8
7E01F8
7C00F8
3803F8
01FFF8
03FFF0
03FFE0
03FFF0
01FFF8
0003FC
F000FC
F8007C
FC007C
FF01FC
FFFFF8
FFFFF8
FFFFF0
7FFFC0
01FF00
ENDCHAR
STARTCHAR 025F
ENCODING 607
SWIDTH 600 0
DWIDTH 30 0
BBX 21 32 6 -10
BITMAP
7FFFC0
FFFFC0
FFFFC0
FFFFC0
7FFFC0
0007C0
0007C0
0007C0
0007C0
0007C0
0007C0
0007C0
0007C0
0007C0
0007C0
0007C0
0007C0
7FFFF0
FFFFF8
FFFFF8
FFFFF8
7FFFF0
0007C0
0007C0
0007C0
000FC0
001F80
7FFF80
FFFF00
FFFE00
FFFC00
7FF000
ENDCHAR
STARTCHAR 0260
ENCODING 608
SWIDTH 600 0
DWIDTH 30 0
BBX 32 42 2 -10
BITMAP
000000FC
000003FF
000007FF
00000FFF
00001FFE
00001F80
00003F00
00003E00
00003E00
00003E00
01FF3E00
07FFBE00
0FFFFE00
1FFFFE00
3FFFFE00
7F01FE00
7E00FE00
FC007E00
F8007E00
F8003E00
F8003E00
F8003E00
F8003E00
F8003E00
FC007E00
7E00FE00
7F01FE00
3FFFFE00
1FFFFE00
0FFFFE00
07FFBE00
03FF3E00
00003E00
00003E00
00003E00
00007E00
0000FC00
03FFFC00
07FFF800
07FFF000
07FFE000
03FF8000
ENDCHAR
STARTCHAR 0261
ENCODING 609
SWIDTH 600 0
DWIDTH 30 0
BBX 23 34 2 -10
BITMAP
000008
00001C
01FF3E
07FFBE
0FFFFE
1FFFFE
3FFFFE
7F01FE
7E00FE
FC007E
F8007E
F8003E
F8003E
F8003E
F8003E
F8003E
FC007E
7E00FE
7F01FE
3FFFFE
1FFFFE
0FFFFE
07FFBE
03FF3E
00003E
00003E
00003E
00007E
0000FC
03FFFC
07FFF8
07FFF0
07FFE0
03FF80
ENDCHAR
STARTCHAR 0265
ENCODING 613
SWIDTH 600 0
DWIDTH 30 0
BBX 28 31 1 -9
BITMAP
3FE07FC0
7FF1FFE0
FFF9FFE0
7FF9FFE0
7FF0FFE0
0F801F00
0F801F00
0F801F00
0F801F00
0F801F00
0F801F00
0F801F00
0F801F00
0F801F00
0F801F00
0F803F00
0F807F00
0FE1FF00
07FFFF00
07FFFF00
03FFDF00
00FF9F00
003E1F00
00001F00
00001F00
00001F00
00001FC0
00001FE0
00001FF0
00001FF0
00001FE0
ENDCHAR
STARTCHAR 0266
ENCODING 614
SWIDTH 600 0
DWIDTH 30 0
BBX 26 32 2 0
BITMAP
007E0000
01FF8000
03FF8000
07FF8000
0FFF0000
0FC00000
1F800000
1F000000
1F000000
1F000000
1F3FE000
1F7FF000
1FFFF800
1FFFFC00
1FFFFC00
1FC07E00
1F803E00
1F003E00
1F003E00
1F003E00
1F003E00
1F003E00
1F003E00
1F003E00
1F003E00
1F003E00
1F003E00
7FE1FF80
FFF3FFC0
FFF3FFC0
FFF3FFC0
7FE1FF80
ENDCHAR
STARTCHAR 0267
ENCODING 615
SWIDTH 600 0
DWIDTH 30 0
BBX 23 42 2 -10
BITMAP
007E00
01FF80
03FF80
07FF80
0FFF00
0FC000
1F8000
1F0000
1F0000
1F0000
1F1FE0
1F7FF0
1FFFF8
1FFFFC
1FFFFC
1FE07E
1F803E
1F003E
1F003E
1F003E
1F003E
1F003E
1F003E
1F003E
1F003E
1F003E
1F003E
7FE03E
FFF03E
FFF03E
FFF03E
7FE03E
00003E
00003E
00003E
00007E
0000FC
003FFC
007FF8
007FF0
007FE0
001FC0
ENDCHAR
STARTCHAR 0268
ENCODING 616
SWIDTH 600 0
DWIDTH 30 0
BBX 23 31 4 0
BITMAP
01F800
01F800
01F800
01F800
01F800
000000
000000
000000
000000
1FFC00
3FFC00
3FFC00
3FFC00
1FFC00
007C00
007C00
007C00
007C00
1FFFF0
3FFFF8
3FFFF8
3FFFF8
1FFFF0
007C00
007C00
007C00
7FFFFC
FFFFFE
FFFFFE
FFFFFE
7FFFFC
ENDCHAR
STARTCHAR 0269
ENCODING 617
SWIDTH 600 0
DWIDTH 30 0
BBX 21 23 6 -1
BITMAP
7FF000
FFF000
FFF000
FFF000
7FF000
01F000
01F000
01F000
01F000
01F000
01F000
01F000
01F000
01F000
01F000
01F000
01F800
00FC00
00FFF0
007FF8
003FF8
001FF8
000FE0
ENDCHAR
STARTCHAR 026A
ENCODING 618
SWIDTH 600 0
DWIDTH 30 0
BBX 19 22 6 0
BITMAP
7FFFC0
FFFFE0
FFFFE0
FFFFE0
7FFFC0
01F000
01F000
01F000
01F000
01F000
01F000
01F000
01F000
01F000
01F000
01F000
01F000
7FFFC0
FFFFE0
FFFFE0
FFFFE0
7FFFC0
ENDCHAR
STARTCHAR 026B
ENCODING 619
SWIDTH 600 0
DWIDTH 30 0
BBX 23 31 4 0
BITMAP
1FFC00
3FFC00
3FFC00
3FFC00
1FFC00
007C00
007C00
007C00
007C00
007C00
007C00
007C00
07FC00
1FFC1C
3FFC3E
7FFC3E
7FFE7E
FCFFFC
F87FF8
F87FF8
707FF0
007FC0
007C00
007C00
007C00
007C00
7FFFFC
FFFFFE
FFFFFE
FFFFFE
7FFFFC
ENDCHAR
STARTCHAR 026D
ENCODING 621
SWIDTH 600 0
DWIDTH 30 0
BBX 21 41 6 -10
BITMAP
7FF000
FFF000
FFF000
FFF000
7FF000
01F000
01F000
01F000
01F000
01F000
01F000
01F000
01F000
01F000
01F000
01F000
01F000
01F000
01F000
01F000
01F000
01F000
01F000
01F000
01F000
01F000
01F000
01F000
01F000
01F000
01F000
01F000
01F000
01F000
01F800
00FC00
00FFF0
007FF8
003FF8
001FF8
000FE0
ENDCHAR
STARTCHAR 026F
ENCODING 623
SWIDTH 600 0
DWIDTH 30 0
BBX 32 23 -1 -1
BITMAP
3F0FC1FE
FF3FC7FF
FF3FC7FF
FF3FC7FF
7F1FC3FE
1F07C0F8
1F07C0F8
1F07C0F8
1F07C0F8
1F07C0F8
1F07C0F8
1F07C0F8
1F07C0F8
1F07C0F8
1F07C0F8
1F07C0F8
1F0FC1F8
1FBFF7FE
0FFFFFFF
0FFFFFFF
07FDFFFF
03F8FEFE
00603800
ENDCHAR
STARTCHAR 0270
ENCODING 624
SWIDTH 600 0
DWIDTH 30 0
BBX 32 32 -1 -10
BITMAP
7F0FE3FE
FF1FE7FF
FF1FE7FF
FF1FE7FF
7F0FE3FE
1F03E0F8
1F03E0F8
1F03E0F8
1F03E0F8
1F03E0F8
1F03E0F8
1F03E0F8
1F03E0F8
1F03E0F8
1F03E0F8
1F03E0F8
1F07E1F8
1FFFFFF8
1FFFFFF8
0FFFFFF8
07FEFFF8
03F87EF8
000000F8
000000F8
000000F8
000000F8
000000F8
000000FE
000000FF
000000FF
000000FF
000000FE
ENDCHAR
STARTCHAR 0271
ENCODING 625
SWIDTH 600 0
DWIDTH 30 0
BBX 29 32 -1 -9
BITMAP
7F7F1FC0
FFFFBFE0
FFFFFFF0
FFFFFFF8
7FFFFFF8
1F83F0F8
1F03E0F8
1F03E0F8
1F03E0F8
1F03E0F8
1F03E0F8
1F03E0F8
1F03E0F8
1F03E0F8
1F03E0F8
1F03E0F8
1F03E0F8
7FC3F8F8
FFE3FCF8
FFE3FCF8
FFE3FCF8
7FC3F8F8
000000F8
000000F8
000000F8
000001F8
000003F0
0000FFF0
0001FFE0
0001FFC0
0001FF80
00007F00
ENDCHAR
STARTCHAR 0272
ENCODING 626
SWIDTH 600 0
DWIDTH 30 0
BBX 32 32 -4 -9
BITMAP
01FCFF80
03FDFFC0
03FFFFE0
03FFFFF0
01FFFFF0
007F01F8
007E00F8
007C00F8
007C00F8
007C00F8
007C00F8
007C00F8
007C00F8
007C00F8
007C00F8
007C00F8
007C00F8
007C03FE
007C07FF
007C07FF
007C07FF
007C03FE
007C0000
007C0000
007C0000
00FC0000
01F80000
7FF80000
FFF00000
FFE00000
FFC00000
3F800000
ENDCHAR
STARTCHAR 0273
ENCODING 627
SWIDTH 600 0
DWIDTH 30 0
BBX 32 32 2 -9
BITMAP
7F1FE000
FF7FF000
FFFFF800
FFFFFC00
7FFFFC00
1FE07E00
1F803E00
1F003E00
1F003E00
1F003E00
1F003E00
1F003E00
1F003E00
1F003E00
1F003E00
1F003E00
1F003E00
7FE03E00
FFF03E00
FFF03E00
FFF03E00
7FE03E00
00003E00
00003E00
00003E00
00003F00
00001F80
00001FFE
00000FFF
000007FF
000003FF
000001FC
ENDCHAR
STARTCHAR 0274
ENCODING 628
SWIDTH 600 0
DWIDTH 30 0
BBX 24 22 3 0
BITMAP
7F01FE
FF83FF
FFC3FF
FFC3FF
7FE1FF
1FF07C
1FF07C
1FF87C
1FFC7C
1FFE7C
1F7E7C
1F3F7C
1F1FFC
1F1FFC
1F0FFC
1F07FC
1F07FC
7FC3FC
FFE1FC
FFE1FC
FFE0FC
7FC07C
ENDCHAR
STARTCHAR 0275
ENCODING 629
SWIDTH 600 0
DWIDTH 30 0
BBX 26 23 2 0
BITMAP
00FFC000
03FFF000
0FFFFC00
1FFFFE00
3FFFFF00
3F807F00
7E001F80
7C000F80
FC000FC0
FFFFFFC0
FFFFFFC0
FFFFFFC0
FFFFFFC0
FC000FC0
7C000F80
7E001F80
7F003F80
3FC0FF00
1FFFFE00
0FFFFC00
07FFF800
01FFE000
007F8000
ENDCHAR
STARTCHAR 0279
ENCODING 633
SWIDTH 600 0
DWIDTH 30 0
BBX 25 23 3 -1
BITMAP
03FFFF00
0FFFFF80
0FFFFF80
0FFFFF80
07FFFF80
0003E000
0003E000
0003E000
0003E000
0003E000
0003E000
0003E000
0003E000
0007E000
000FE000
001FE000
007FE000
F9FFFE00
FFFFFF00
FFFBFF00
FFF3FF00
3FC3FE00
06000000
ENDCHAR
STARTCHAR 027A
ENCODING 634
SWIDTH 600 0
DWIDTH 30 0
BBX 25 33 3 -1
BITMAP
03FFFF00
0FFFFF80
0FFFFF80
0FFFFF80
07FFFF80
0003E000
0003E000
0003E000
0003E000
0003E000
0003E000
0003E000
0003E000
0003E000
0003E000
0003E000
0003E000
0003E000
0003E000
0003E000
0003E000
0003E000
0003E000
0007E000
000FE000
001FE000
007FE000
F9FFFE00
FFFFFF00
FFFBFF00
FFF3FF00
3FC3FE00
06000000
ENDCHAR
STARTCHAR 027B
ENCODING 635
SWIDTH 600 0
DWIDTH 30 0
BBX 29 32 2 -10
BITMAP
03FFFF80
07FFFFC0
07FFFFC0
07FFFFC0
03FFFF80
0001F000
0001F000
0001F000
0001F000
0001F000
0001F000
0001F000
0001F000
0003F000
000FF000
001FF000
003FF000
7FFFF000
FFFFF000
FFFDF000
7FF1F000
1FE1F000
0001F000
0001F000
0001F000
0001F800
0000FC00
0000FFF0
00007FF8
00003FF8
00001FF8
00000FE0
ENDCHAR
STARTCHAR 027C
ENCODING 636
SWIDTH 600 0
DWIDTH 30 0
BBX 26 32 3 -9
BITMAP
3FE1FE00
7FE3FF80
7FEFFF80
7FFFFFC0
3FFFFF80
03FF0000
03FE0000
03FC0000
03F00000
03E00000
03E00000
03E00000
03E00000
03E00000
03E00000
03E00000
03E00000
03E00000
03E00000
03E00000
03E00000
03E00000
03E00000
03E00000
03E00000
03E00000
03E00000
7FFFF000
FFFFF800
FFFFF800
FFFFF800
7FFFF000
ENDCHAR
STARTCHAR 027D
ENCODING 637
SWIDTH 600 0
DWIDTH 30 0
BBX 25 32 4 -9
BITMAP
7FC3FC00
FFC7FF00
FFDFFF00
FFFFFF80
7FFFFF00
07FE0000
07FC0000
07F80000
07E00000
07C00000
07C00000
07C00000
07C00000
07C00000
07C00000
07C00000
07C00000
07C00000
07C00000
07C00000
07C00000
07C00000
07C00000
07C00000
07C00000
07E00000
03F00000
03FFC000
01FFE000
00FFE000
007FE000
003F8000
ENDCHAR
STARTCHAR 027E
ENCODING 638
SWIDTH 600 0
DWIDTH 30 0
BBX 21 22 3 1
BITMAP
003FE0
007FF0
00FFF0
01FFF0
01FC00
03F000
03E000
03E000
03E000
03E000
03E000
03E000
03E000
03E000
03E000
03E000
03E000
7FFFF0
FFFFF8
FFFFF8
FFFFF8
7FFFF0
ENDCHAR
STARTCHAR 027F
ENCODING 639
SWIDTH 600 0
DWIDTH 30 0
BBX 21 32 3 -9
BITMAP
3FE000
7FF000
7FF800
7FFC00
1FFC00
007E00
003E00
003E00
003E00
003E00
003E00
003E00
003E00
003E00
003E00
003E00
003E00
003E00
003E00
003E00
003E00
003E00
003E00
003E00
003E00
003E00
003E00
7FFFF0
FFFFF8
FFFFF8
FFFFF8
7FFFF0
ENDCHAR
STARTCHAR 0280
ENCODING 640
SWIDTH 600 0
DWIDTH 30 0
BBX 22 22 4 0
BITMAP
7FFC00
FFFF00
FFFF80
FFFFC0
7FFFC0
1F07E0
1F03E0
1F03E0
1F07E0
1FFFE0
1FFFC0
1FFF80
1FFF00
1FFF80
1F1F80
1F0FC0
1F07C0
7FC3F8
FFC3FC
FFE3FC
FFC1FC
7F81F8
ENDCHAR
STARTCHAR 0281
ENCODING 641
SWIDTH 600 0
DWIDTH 30 0
BBX 22 22 4 0
BITMAP
7F81F8
FFC1FC
FFE3FC
FFC3FC
7FC3F8
1F07C0
1F0FC0
1F1F80
1FFF80
1FFF00
1FFF80
1FFFC0
1FFFE0
1F07E0
1F03E0
1F03E0
1F07E0
7FFFE0
FFFFC0
FFFF80
FFFF00
7FFC00
ENDCHAR
STARTCHAR 0282
ENCODING 642
SWIDTH 600 0
DWIDTH 30 0
BBX 22 32 4 -9
BITMAP
03FFB8
0FFFF8
1FFFF8
3FFFF8
7FFFF8
7E00F8
7C0078
7F0070
7FF800
3FFF80
1FFFE0
0FFFF0
01FFF8
0007FC
7000FC
F8007C
FC007C
FF01FC
FFFFF8
FFFFF8
FFFFF0
FFFFC0
F9FF00
F80000
F80000
FC0000
7E0000
7FF800
3FFC00
1FFC00
0FFC00
03F000
ENDCHAR
STARTCHAR 0283
ENCODING 643
SWIDTH 600 0
DWIDTH 30 0
BBX 23 38 4 -6
BITMAP
0001F8
0007FE
000FFE
001FFE
003FFC
003F00
007E00
007C00
007C00
007C00
007C00
007C00
007C00
007C00
007C00
007C00
007C00
007C00
007C00
007C00
007C00
007C00
007C00
007C00
007C00
007C00
007C00
007C00
007C00
007C00
007C00
00FC00
01F800
7FF800
FFF000
FFE000
FFC000
3F8000
ENDCHAR
STARTCHAR 0284
ENCODING 644
SWIDTH 600 0
DWIDTH 30 0
BBX 27 42 2 -10
BITMAP
00001F80
00007FE0
0000FFE0
0001FFE0
0003FFC0
0003F000
0007E000
0007C000
0007C000
0007C000
0007C000
0007C000
0007C000
0007C000
0007C000
0007C000
0007C000
0007C000
0007C000
0007C000
0007C000
0007C000
0007C000
0007C000
0007C000
7FFFF000
FFFFF800
FFFFF800
FFFFF800
7FFFF000
0007C000
0007C000
0007C000
0007C000
0007C000
000FC000
001F8000
7FFF8000
FFFF0000
FFFE0000
FFFC0000
7FF00000
ENDCHAR
STARTCHAR 0285
ENCODING 645
SWIDTH 600 0
DWIDTH 30 0
BBX 23 38 4 -6
BITMAP
3F0000
FFC000
FFE000
FFF000
7FF800
01F800
00FC00
007C00
007C00
007C00
007C00
007C00
007C00
007C00
007C00
007C00
007C00
007C00
007C00
007C00
007C00
007C00
007C00
007C00
007C00
007C00
007C00
007C00
007C00
007C00
007C00
007E00
003F00
003FFC
001FFE
000FFE
0007FE
0003F8
ENDCHAR
STARTCHAR 0287
ENCODING 647
SWIDTH 600 0
DWIDTH 30 0
BBX 25 31 1 -1
BITMAP
00F80000
0FFF8000
3FFFC000
7FFFE000
FFFFF000
FF87F000
7801F000
2001F000
0001F000
0001F000
0001F000
0001F000
0001F000
0001F000
0001F000
0001F000
0001F000
0001F000
07FFFE00
1FFFFF80
1FFFFF80
1FFFFF80
0FFFFF80
0001F000
0001F000
0001F000
0001F000
0001F000
0001F000
0001F000
0000E000
ENDCHAR
STARTCHAR 0288
ENCODING 648
SWIDTH 600 0
DWIDTH 30 0
BBX 25 40 1 -10
BITMAP
01000000
07C00000
07C00000
07C00000
07C00000
07C00000
07C00000
07C00000
7FFFF800
FFFFFC00
FFFFFC00
FFFFFC00
7FFFF800
07C00000
07C00000
07C00000
07C00000
07C00000
07C00000
07C00000
07C00000
07C00000
07C00000
07C00000
07C00000
07C00000
07C00000
07C00000
07C00000
07C00000
07C00000
07C00000
07C00000
07C00700
07E03F80
07FFFF80
03FFFF80
01FFFF00
00FFFC00
003FC000
ENDCHAR
STARTCHAR 0289
ENCODING 649
SWIDTH 600 0
DWIDTH 30 0
BBX 27 22 1 0
BITMAP
7F81FF00
FF83FF00
FF83FF00
FF83FF00
7F81FF00
0F801F00
0F801F00
0F801F00
0F801F00
7FFFFFC0
FFFFFFE0
FFFFFFE0
FFFFFFE0
7FFFFFC0
0F803F00
0F803F00
0FC0FF00
07FFFFC0
07FFFFE0
03FFFFE0
01FFDFE0
00FF9FC0
ENDCHAR
STARTCHAR 028C
ENCODING 652
SWIDTH 600 0
DWIDTH 30 0
BBX 30 22 0 0
BITMAP
000FC000
001FC000
001FE000
003FE000
003FF000
007FF000
007FF800
00FDF800
00FCFC00
01F8FC00
01F87E00
01F07E00
03F03F00
03E03F00
07E01F80
07C01F80
0FC00FC0
7FF03FF8
FFF87FFC
FFF87FFC
FFF87FFC
FFF07FF8
ENDCHAR
STARTCHAR 028D
ENCODING 653
SWIDTH 600 0
DWIDTH 30 0
BBX 30 22 0 0
BITMAP
01E03E00
03F03E00
03F07F00
03F87F00
03F87F00
07F8FF00
07FCFF80
07FDFF80
07FFFF80
0FFFFF80
0FBFFFC0
0FBFE7C0
0F9FE7C0
1F9FC7C0
1F1FC7E0
1F0FC3E0
1F0F83E0
7FC00FF8
FFE01FFC
FFE01FFC
FFE01FFC
7FC01FF8
ENDCHAR
STARTCHAR 028E
ENCODING 654
SWIDTH 600 0
DWIDTH 30 0
BBX 28 32 1 0
BITMAP
000FFFE0
001FFFF0
001FFFF0
001FFFF0
000FFFE0
0003F000
0007E000
0007C000
000FC000
000F8000
001F8000
001FC000
003FC000
003FE000
007FE000
007FF000
00FFF000
01F9F800
01F9F800
03F0FC00
03E0FC00
07E07E00
07C07E00
0FC03F00
0F803F00
1F801F80
1F000F80
7FC03FE0
FFE07FF0
FFE07FF0
FFE07FF0
FFC03FE0
ENDCHAR
STARTCHAR 0290
ENCODING 656
SWIDTH 600 0
DWIDTH 30 0
BBX 30 32 5 -10
BITMAP
FFFFF000
FFFFF000
FFFFF000
FFFFF000
FFFFF000
F80FE000
F81FC000
F83F8000
707F0000
00FE0000
01FC0000
03F80000
07F00000
0FE00000
1FC00000
3F807000
7F00F800
FFFFF800
FFFFF800
FFFFF800
FFFFF800
FFFFF800
0000F800
0000F800
0000F800
0000FC00
00007E00
00007FF8
00003FFC
00001FFC
00000FFC
000007F0
ENDCHAR
STARTCHAR 0291
ENCODING 657
SWIDTH 600 0
DWIDTH 30 0
BBX 22 26 5 -4
BITMAP
FFFFF0
FFFFF0
FFFFF0
FFFFF0
FFFFE0
F80FC0
F81F80
F83F00
307E00
00FD80
01FFE0
03FFF0
07FFF8
0FFFF8
0FBE78
1F3E7C
3E3E78
7FFFF8
FFFFF8
FFFFF0
FFFFE0
FFFFC0
003E00
003E00
003C00
001C00
ENDCHAR
STARTCHAR 0292
ENCODING 658
SWIDTH 600 0
DWIDTH 30 0
BBX 19 32 4 -9
BITMAP
1FFF80
7FFFE0
FFFFE0
FFFFE0
7FFFE0
007F00
00FE00
01FC00
03F800
07F800
0FFC00
1FFE00
3FFF00
3FBF80
1E0F80
0007C0
0007C0
0003C0
0003C0
0003C0
0003C0
0003C0
0003C0
0007C0
F007C0
F80F80
FC1F80
FFFF00
7FFF00
3FFE00
0FFC00
03F000
ENDCHAR
STARTCHAR 0293
ENCODING 659
SWIDTH 600 0
DWIDTH 30 0
BBX 18 33 5 -10
BITMAP
3FFF00
FFFFC0
FFFFC0
FFFFC0
7FFFC0
007E00
00FC00
01F800
03F000
07F000
0FFC00
1FFE00
3FFF00
3FFF00
3E1F80
000F80
000780
000780
000780
0007C0
030780
1FC780
3FEF80
3FFF80
7FFF00
7CFF00
7C7E00
7FFE00
3FFC00
3FFE00
1FFE00
0F9E00
000C00
ENDCHAR
STARTCHAR 0294
ENCODING 660
SWIDTH 600 0
DWIDTH 30 0
BBX 21 30 5 0
BITMAP
03FC00
1FFF80
7FFFC0
FFFFE0
FFFFF0
FE07F0
F801F8
F800F8
F800F8
7000F8
0000F8
0001F8
0003F0
000FF0
003FE0
00FFC0
00FF80
00FE00
00F800
00F800
00F800
00F800
00F800
00F800
00F800
07FF00
0FFF80
0FFF80
0FFF80
07FF00
ENDCHAR
STARTCHAR 0295
ENCODING 661
SWIDTH 600 0
DWIDTH 30 0
BBX 21 30 5 0
BITMAP
01FC00
0FFFC0
1FFFF0
3FFFF8
7FFFF8
7F03F8
FC00F8
F800F8
F800F8
F80070
F80000
FC0000
7E0000
7F8000
3FE000
1FF800
0FF800
03F800
00F800
00F800
00F800
00F800
00F800
00F800
00F800
07FF00
0FFF80
0FFF80
0FFF80
07FF00
ENDCHAR
STARTCHAR 0296
ENCODING 662
SWIDTH 600 0
DWIDTH 30 0
BBX 21 30 5 -1
BITMAP
07FF00
0FFF80
0FFF80
0FFF80
07FF00
00F800
00F800
00F800
00F800
00F800
00F800
00F800
03F800
0FF800
1FF800
3FE000
7F8000
7E0000
FC0000
F80000
F80070
F800F8
F800F8
7C00F8
7F07F8
7FFFF8
3FFFF8
1FFFF0
07FF80
01FC00
ENDCHAR
STARTCHAR 0297
ENCODING 663
SWIDTH 600 0
DWIDTH 30 0
BBX 27 39 2 -9
BITMAP
00FFE380
03FFFFC0
07FFFFC0
0FFFFFC0
1FFFFFC0
3FC03FC0
3F000FC0
7E0007C0
7C0007C0
FC0007C0
F8000380
F8000000
F8000000
F8000000
F8000000
F8000000
F8000000
F8000000
F8000000
F8000000
F8000000
F8000000
F8000000
F8000000
F8000000
F8000000
F8000000
F8000000
F8000000
FC000000
7C000000
7E0001C0
3F8007E0
3FE01FE0
1FFFFFC0
0FFFFFC0
03FFFF00
01FFFE00
003FF000
ENDCHAR
STARTCHAR 0298
ENCODING 664
SWIDTH 600 0
DWIDTH 30 0
BBX 28 29 1 1
BITMAP
007FE000
01FFF800
07FFFE00
0FFFFF00
1FFFFF80
1FC03FC0
3F801FC0
7E0007E0
7E0007E0
7C0003E0
FC0003F0
F80F01F0
F81F81F0
F81F81F0
F81F81F0
F81F81F0
F80F01F0
F80001F0
7C0003E0
7C0003E0
7E0007E0
3F000FC0
3F801FC0
1FC03F80
0FFFFF00
07FFFE00
03FFFC00
01FFF800
007FE000
ENDCHAR
STARTCHAR 0299
ENCODING 665
SWIDTH 600 0
DWIDTH 30 0
BBX 24 23 3 0
BITMAP
3FF800
FFFFC0
FFFFF0
FFFFF8
7FFFF8
1F01FC
1F007C
1F007C
1F00FC
1FFFF8
1FFFF0
1FFFF0
1FFFFC
1FFFFE
1F003F
1F001F
1F001F
1F003F
7FFFFF
FFFFFE
FFFFFC
FFFFF8
7FFFE0
ENDCHAR
STARTCHAR 029A
ENCODING 666
SWIDTH 600 0
DWIDTH 30 0
BBX 23 24 4 -1
BITMAP
003000
07FFC0
0FFFE0
3FFFF8
3FFFF8
7F01FC
7C00FC
7C007E
7E003E
3FFE3E
3FFF3E
1FFF3E
3FFF3E
7FFE3E
FF003E
FC003E
F8007E
F8007C
FC00FC
7FFFF8
7FFFF8
3FFFF0
0FFFC0
01FF00
ENDCHAR
STARTCHAR 029B
ENCODING 667
SWIDTH 600 0
DWIDTH 30 0
BBX 30 27 0 -1
BITMAP
00000180
000007F0
00000FF8
00001FF8
01FFBFFC
07FFFE7C
0FFFFE7C
1FFFFE38
3FC1FE00
7E003E00
7C003E00
F8000000
F8000000
F0000000
F007FC00
F01FFF00
F01FFF00
F01FFF00
F80FFF00
F8003E00
7C003E00
7F003E00
3FFFFE00
1FFFFE00
0FFFFE00
03FFF800
007FC000
ENDCHAR
STARTCHAR 029C
ENCODING 668
SWIDTH 600 0
DWIDTH 30 0
BBX 24 22 3 0
BITMAP
7F81FE
FFC3FF
FFC3FF
FFC3FF
7F81FE
1F007C
1F007C
1F007C
1FFFFC
1FFFFC
1FFFFC
1FFFFC
1FFFFC
1F007C
1F007C
1F007C
1F007C
7F81FE
FFC3FF
FFC3FF
FFC3FF
7F81FE
ENDCHAR
STARTCHAR 029D
ENCODING 669
SWIDTH 620 0
DWIDTH 31 0
BBX 23 42 6 -9
BITMAP
000F80
000F80
000F80
000F80
000F80
000F80
000F80
000F80
000000
000000
0FFFE0
7FFFE0
7FFFE0
7FFFE0
3FFFE0
0003E0
0003E0
0003E0
0003E0
0003E0
0003E0
0003E0
0003E0
0003E0
0003E0
0003E0
0003E0
0003E0
01FFFC
0FFFFE
3FFFFE
7FFFFE
7FFFFC
FC03E0
F803E0
F807E0
F80FC0
FFFFC0
7FFF80
3FFF00
1FFE00
07F800
ENDCHAR
ENDFONT
